<?xml  version="1.0" encoding="UTF-8"?>
<!DOCTYPE svg PUBLIC "-//W3C//DTD SVG 1.0//EN" "http://www.w3.org/TR/2001/REC-SVG-20010904/DTD/svg10.dtd" >
<svg xmlns="http://www.w3.org/2000/svg" >
<metadata>
<version>1.0</version>
<id><![CDATA[DIN Next LT W02 UltraLight It]]></id>
<vendor>Monotype Imaging Inc.</vendor>
<credits>
<name>Fonts.com WebFonts</name>
<URL>http://webfonts.fonts.com</URL>
<role>Home of the Web fonts</role>
</credits>
<license>
<URL>http://webfonts.fonts.com/Legal</URL>
</license>
<copyright><![CDATA[Copyright © 2010 Linotype GmbH, www.linotype.com. All rights reserved. This font software may not be reproduced, modified, disclosed or transferred without the express written approval of Linotype GmbH.]]></copyright>
<trademark></trademark>
<licensee>
<name></name>
</licensee>
</metadata>
<defs >
<font horiz-adv-x="470" id="c5e1c7e3-a3a1-46fe-9458-67be339aa210">
<font-face font-family="" panose-1="2 11 2 3 2 2 3 12 2 3" ascent="910" descent="-216" units-per-em="1000" alphabetic="0">
</font-face>
<missing-glyph horiz-adv-x="0" />

<glyph unicode="&#xA;" />
<glyph unicode="&#xD;" horiz-adv-x="0" />
<glyph unicode=" " horiz-adv-x="240" />
<glyph unicode="!" horiz-adv-x="237" d="M107 169Q97 169 99 179L184 670Q186 680 195 680H205Q215 680 213 670L124 179Q122 169 113 169H107ZM68 58Q70 68 79 68H104Q114 68 112 58L104 10Q101 0 92 0H67Q57 0 59 10L68 58Z"  />
<glyph unicode="&quot;" horiz-adv-x="287" d="M248 538Q238 538 240 548L261 670Q263 680 272 680H280Q290 680 288 670L267 548Q265 538 256 538H248ZM143 538Q133 538 135 548L156 670Q158 680 167 680H175Q185 680 183 670L162 548Q160 538 151 538H143Z"  />
<glyph unicode="#" horiz-adv-x="497" d="M125 226H39Q29 226 31 236L32 240Q34 250 44 250H133L194 449H102Q92 449 94 459L95 463Q97 473 107 473H201L262 670Q265 680 274 680H281Q291 680 288 670L227 473H387L447 670Q450 680 459 680H466Q476 680 473 670L412 473H503Q513 473 511 463L510 459Q508 449 498 449H405L344 250H441Q451 250 449 240L448 236Q446 226 436 226H337L271 10Q268 0 259 0H252Q242 0 245 10L311 226H151L85 10Q82 0 73 0H66Q56 0 59 10L125 226ZM318 250L379 449H220L159 250H318Z"  />
<glyph unicode="$" horiz-adv-x="503" d="M29 44Q23 50 30 57L35 62Q41 68 49 63Q77 43 114 30T201 16L257 332Q182 344 150 382T118 477Q118 523 133 561T176 627T240 671T321 690L330 741Q332 751 341 751H347Q357 751 355 741L346 689Q384 687 417 676T475 648Q482 643 476 634L473 630Q470 625 466 625T458 628Q427 646 400 654T341 664L287 355H288Q366 344 399 307T433 212Q433 166 419 127T377 59T310 12T223 -9L214 -61Q212 -71 202 -71H196Q186 -71 188 -61L197 -10Q173 -10 149 -6T103 6T61 23T29 44ZM316 664Q279 662 248 647T194 607T158 549T145 479Q145 429 170 400T262 359L316 664ZM227 16Q266 19 299 34T356 75T393 134T406 209Q406 258 379 288T283 329H282L227 16Z"  />
<glyph unicode="%" horiz-adv-x="732" d="M620 680Q627 690 635 690H644Q655 690 648 680L152 0Q147 -5 144 -7T136 -10H127Q122 -10 121 -8T123 0L620 680ZM220 330Q179 330 156 353T132 420Q132 436 135 463T145 520T158 576T172 617Q190 655 216 671T278 688Q319 688 342 665T366 598Q366 582 363 555T353 498T340 442T326 401Q308 363 282 347T220 330ZM222 353Q274 353 302 406Q309 421 316 446T329 499T337 553T341 597Q341 628 325 646T276 665Q224 665 196 612Q188 597 181 572T169 519T161 465T157 421Q157 390 173 372T222 353ZM406 82Q406 98 409 125T419 182T432 238T446 279Q464 317 490 333T552 350Q593 350 616 327T640 260Q640 244 637 217T627 160T614 104T600 63Q582 25 556 9T494 -8Q453 -8 430 15T406 82ZM431 83Q431 52 447 34T496 15Q548 15 576 68Q583 83 590 108T603 161T611 215T615 259Q615 290 599 308T550 327Q498 327 470 274Q462 259 455 234T443 181T435 127T431 83Z"  />
<glyph unicode="&amp;" horiz-adv-x="581" d="M50 126Q50 163 62 196T98 260T156 320T232 382Q214 415 202 439T182 481T171 514T167 543Q167 574 178 600T209 647T256 678T318 690Q367 690 396 661T426 584Q426 562 420 541T395 495T346 441T265 376L390 144L480 242Q487 249 494 244L500 239Q506 233 498 225L403 121L441 50Q450 34 457 30T479 25H494Q504 25 502 15L501 10Q500 0 490 0H480Q457 0 445 7T422 32L384 101Q330 44 282 17T182 -10Q120 -10 85 27T50 126ZM253 397Q298 430 326 456T371 505T393 545T399 581Q399 621 377 643T313 665Q287 665 265 656T227 630T203 592T194 545Q194 533 197 521T206 491T224 451T253 397ZM77 129Q77 75 105 45T185 15Q231 15 274 42T372 125L244 360Q169 305 123 250T77 129Z"  />
<glyph unicode="&apos;" horiz-adv-x="182" d="M143 538Q133 538 135 548L156 670Q158 680 167 680H175Q185 680 183 670L162 548Q160 538 151 538H143Z"  />
<glyph unicode="(" horiz-adv-x="272" d="M140 -74Q121 -15 111 50T100 183Q100 327 146 462T281 730Q288 740 296 740H303Q308 740 309 738T308 730Q225 603 176 469T127 185Q127 116 137 51T166 -74Q169 -84 158 -84H152Q143 -84 140 -74Z"  />
<glyph unicode=")" horiz-adv-x="272" d="M-2 -74Q81 53 130 187T179 471Q179 540 169 605T140 730Q137 740 148 740H154Q163 740 166 730Q185 671 195 606T206 473Q206 329 160 194T25 -74Q18 -84 10 -84H3Q-2 -84 -3 -82T-2 -74Z"  />
<glyph unicode="*" horiz-adv-x="343" d="M201 408Q191 408 193 418L211 521L115 470Q104 464 101 473L100 477Q97 485 107 491L204 544L127 597Q119 602 125 610L128 614Q133 621 141 616L218 564L237 670Q239 680 249 680H253Q263 680 261 670L242 565L339 617Q350 623 353 614L354 610Q357 602 347 596L251 543L329 491Q337 486 331 478L328 474Q323 467 315 472L235 523L217 418Q215 408 205 408H201Z"  />
<glyph unicode="+" horiz-adv-x="503" d="M243 258Q243 264 237 264H76Q66 264 66 274V279Q66 289 76 289H237Q243 289 243 295V458Q243 468 253 468H260Q270 468 270 458V295Q270 289 276 289H437Q447 289 447 279V274Q447 264 437 264H276Q270 264 270 258V95Q270 85 260 85H253Q243 85 243 95V258Z"  />
<glyph unicode="&#x2c;" horiz-adv-x="195" d="M43 -94Q40 -102 33 -102Q24 -102 26 -93L52 58Q54 68 63 68H83Q93 68 91 58L81 2Q79 -6 78 -9T74 -21L43 -94Z"  />
<glyph unicode="-" horiz-adv-x="353" d="M64 255Q54 255 56 265L57 271Q58 279 68 279H304Q314 279 312 269L311 263Q310 255 300 255H64Z"  />
<glyph unicode="." horiz-adv-x="195" d="M47 58Q49 68 58 68H83Q93 68 91 58L83 10Q81 0 72 0H47Q37 0 39 10L47 58Z"  />
<glyph unicode="/" horiz-adv-x="384" d="M364 680Q368 690 379 690H387Q397 690 392 680L60 0Q56 -10 45 -10H37Q27 -10 32 0L364 680Z"  />
<glyph unicode="0" horiz-adv-x="503" d="M72 132Q72 155 76 192T87 273T102 363T120 451T139 524T156 573Q187 637 232 663T335 690Q403 690 439 651T475 548Q475 524 471 487T460 407T445 317T427 230T408 156T391 107Q360 43 315 17T212 -10Q144 -10 108 29T72 132ZM99 136Q99 79 128 47T216 15Q317 15 366 116Q374 132 383 164T401 238T419 324T433 411T444 488T448 544Q448 601 419 633T331 665Q230 665 181 564Q173 547 164 515T146 442T128 356T114 269T103 192T99 136Z"  />
<glyph unicode="1" horiz-adv-x="503" d="M324 642H322L180 546Q175 543 172 545T170 552L172 565Q173 573 180 577L325 674Q330 677 332 678T340 680H347Q358 680 356 670L240 10Q238 0 229 0H221Q211 0 213 10L324 642Z"  />
<glyph unicode="2" horiz-adv-x="503" d="M38 11Q38 17 45 24L348 367Q394 419 416 460T438 544Q438 598 406 631T319 665Q259 665 217 628T154 530Q151 520 142 522L135 523Q127 525 130 535Q140 566 157 594T199 644T254 677T322 690Q355 690 381 679T425 649T454 604T464 546Q464 491 438 446T363 345L80 26V25H364Q374 25 372 15L371 10Q369 0 359 0H46Q38 0 38 9V11Z"  />
<glyph unicode="3" horiz-adv-x="503" d="M53 127Q51 136 60 139L67 141Q76 144 78 134Q81 114 88 93T109 55T148 26T209 15Q248 15 281 30T338 73T376 136T390 214Q390 271 358 307T266 344H236Q227 344 229 354L230 360Q231 369 240 369H270Q305 369 335 383T389 421T425 476T438 544Q438 598 407 631T319 665Q286 665 260 655T215 629T182 593T161 552Q158 542 149 544L142 545Q134 547 137 557Q144 582 160 605T200 648T254 678T323 690Q390 690 427 650T464 547Q464 475 428 428T336 356V354Q372 339 394 304T417 219Q417 171 402 130T359 57T293 8T206 -10Q164 -10 136 3T91 36T65 81T53 127Z"  />
<glyph unicode="4" horiz-adv-x="503" d="M53 153Q43 153 45 162L46 167Q48 173 50 177L351 672Q356 680 365 680H375Q385 680 380 671L80 179V178H306Q311 178 313 184L347 380Q349 390 358 390H366Q376 390 374 380L340 184Q338 178 345 178H427Q437 178 435 168L434 162Q432 153 422 153H340Q334 153 333 147L309 10Q307 0 298 0H290Q280 0 282 10L307 147Q308 153 302 153H53Z"  />
<glyph unicode="5" horiz-adv-x="503" d="M72 135Q72 145 81 147L88 148Q98 149 98 139Q98 85 126 50T219 15Q264 15 299 36T359 106Q368 125 376 150T389 202T397 254T400 298Q400 358 375 388T293 419Q239 419 200 389T144 318Q139 308 132 308H125Q115 308 117 318L179 670Q181 680 190 680H478Q489 680 487 670L486 665Q484 655 474 655H208Q202 655 201 649L152 369H153Q170 397 206 420T296 444Q359 444 393 409T427 304Q427 285 424 258T416 203T402 146T383 95Q356 40 314 15T215 -10Q178 -10 151 1T107 31T81 77T72 135Z"  />
<glyph unicode="6" horiz-adv-x="503" d="M62 152Q62 197 78 241T132 343L351 672Q356 680 365 680H376Q381 680 382 677T381 671L177 365L179 364Q196 378 222 386T282 395Q354 395 394 352T435 236Q435 190 420 146T377 68T308 12T216 -10Q144 -10 103 33T62 152ZM89 152Q89 90 123 53T217 15Q259 15 294 33T354 82T394 151T408 233Q408 295 374 332T279 370Q237 370 202 352T142 303T103 234T89 152Z"  />
<glyph unicode="7" horiz-adv-x="503" d="M465 653V655H194Q188 655 187 649L169 546Q167 536 157 536H150Q140 536 142 546L164 670Q166 680 175 680H489Q499 680 497 670L495 659Q493 652 490 647L136 9Q131 0 122 0H112Q102 0 108 11L465 653Z"  />
<glyph unicode="8" horiz-adv-x="503" d="M59 142Q59 215 98 274T208 361V363Q138 397 138 485Q138 525 152 562T191 627T253 673T335 690Q399 690 436 652T474 552Q474 486 440 434T347 359V357Q387 340 410 305T433 219Q433 172 417 130T371 57T301 8T212 -10Q142 -10 101 32T59 142ZM281 371Q317 371 347 385T400 423T435 479T448 548Q448 600 417 632T331 665Q295 665 265 651T212 613T177 557T164 488Q164 436 195 404T281 371ZM85 147Q85 89 120 52T217 15Q256 15 290 30T351 72T392 135T407 214Q407 272 372 309T275 346Q236 346 202 330T141 287T100 224T85 147Z"  />
<glyph unicode="9" horiz-adv-x="503" d="M369 315L367 316Q350 302 324 294T264 285Q192 285 152 328T111 444Q111 490 126 534T169 612T238 668T330 690Q402 690 443 647T484 528Q484 483 468 439T414 337L195 8Q190 0 181 0H170Q165 0 164 3T165 9L369 315ZM267 310Q309 310 344 328T404 377T443 446T457 528Q457 590 423 627T329 665Q287 665 252 647T192 598T152 529T138 447Q138 385 172 348T267 310Z"  />
<glyph unicode=":" horiz-adv-x="195" d="M119 406Q109 406 111 416L119 464Q121 474 130 474H155Q165 474 163 464L155 416Q153 406 144 406H119ZM47 58Q49 68 58 68H83Q93 68 91 58L83 10Q81 0 72 0H47Q37 0 39 10L47 58Z"  />
<glyph unicode=";" horiz-adv-x="195" d="M119 406Q109 406 111 416L119 464Q121 474 130 474H155Q165 474 163 464L155 416Q153 406 144 406H119ZM41 -94Q38 -102 31 -102Q22 -102 24 -93L50 58Q52 68 61 68H81Q91 68 89 58L79 2Q77 -6 76 -9T72 -21L41 -94Z"  />
<glyph unicode="&lt;" horiz-adv-x="503" d="M68 262Q58 266 58 274V278Q58 286 68 290L429 436Q439 439 439 429V422Q439 413 429 409L97 277V275L429 143Q439 139 439 130V123Q439 113 429 116L68 262Z"  />
<glyph unicode="=" horiz-adv-x="503" d="M71 359Q61 359 61 369V374Q61 384 71 384H432Q442 384 442 374V369Q442 359 432 359H71ZM71 168Q61 168 61 178V183Q61 193 71 193H432Q442 193 442 183V178Q442 168 432 168H71Z"  />
<glyph unicode="&gt;" horiz-adv-x="503" d="M74 116Q64 113 64 123V130Q64 139 74 143L406 275V277L74 409Q64 413 64 422V429Q64 439 74 436L435 290Q445 286 445 278V274Q445 266 435 262L74 116Z"  />
<glyph unicode="?" horiz-adv-x="421" d="M187 165Q177 165 179 175L187 215Q193 247 203 270T239 319L292 375Q320 404 339 428T370 473T387 514T392 555Q392 609 361 637T282 665Q227 665 186 631T124 535Q121 526 112 527L104 529Q96 531 99 540Q121 609 169 649T286 690Q349 690 383 653T418 557Q418 512 395 468T322 371L269 314Q254 298 245 287T230 265T221 243T214 215L206 175Q204 165 195 165H187ZM154 58Q156 68 165 68H190Q200 68 198 58L190 10Q188 0 179 0H154Q144 0 146 10L154 58Z"  />
<glyph unicode="@" horiz-adv-x="887" d="M60 191Q60 293 91 379T181 527T321 624T503 659Q575 659 634 637T736 574T803 474T827 341Q827 291 818 241T786 149T730 83T644 57Q607 57 580 80T547 144H546Q520 98 480 78T395 57Q341 58 309 90T277 184Q277 222 286 272T315 364Q341 417 378 441T466 465Q518 465 543 445T578 397H580L588 446Q590 456 600 456H607Q617 456 615 446L572 201Q567 171 571 149T586 111T613 89T647 82Q691 82 720 108T767 172T792 255T800 337Q800 408 779 463T718 557T622 614T498 634Q408 634 333 602T203 513T118 374T87 195Q87 126 108 71T169 -23T264 -81T389 -102Q426 -102 456 -98T511 -87T558 -71T600 -51Q608 -47 611 -54L615 -62Q618 -70 609 -74Q566 -97 513 -112T384 -127Q311 -127 252 -105T150 -42T84 58T60 191ZM304 186Q304 140 325 111T398 82Q440 82 473 101T527 163Q535 180 542 201T554 246T561 293T564 336Q564 382 542 411T470 440Q428 440 395 421T341 359Q333 342 326 321T314 276T307 229T304 186Z"  />
<glyph unicode="A" horiz-adv-x="567" d="M7 0Q-3 0 2 10L349 670Q354 680 361 680H371Q378 680 380 670L492 10Q494 0 483 0H475Q465 0 464 10L433 197H131L33 10Q28 0 19 0H7ZM428 223L360 630H358L145 223H428Z"  />
<glyph unicode="B" horiz-adv-x="583" d="M177 670Q179 680 188 680H394Q470 680 511 644T553 539Q553 463 514 413T410 347V345Q425 342 442 333T473 307T496 268T506 212Q506 114 448 57T282 0H69Q59 0 61 10L177 670ZM342 360Q386 360 420 373T477 410T513 466T526 535Q526 592 493 623T394 654H208Q202 654 201 648L152 366Q150 360 156 360H342ZM93 32Q91 26 98 26H287Q334 26 370 39T430 77T466 135T479 209Q479 266 445 300T341 334H152Q146 334 145 328L93 32Z"  />
<glyph unicode="C" horiz-adv-x="531" d="M67 178Q67 210 73 259T88 361T111 462T140 542Q178 620 230 655T357 690Q413 690 458 661T525 567Q528 559 520 556L512 553Q503 549 501 557Q481 612 444 638T355 664Q292 664 246 634T167 536Q152 505 139 458T116 360T101 262T95 183Q95 103 133 60T249 16Q309 16 351 42T429 121Q434 127 440 124L449 119Q455 115 450 106Q411 44 360 17T245 -10Q160 -10 114 39T67 178Z"  />
<glyph unicode="D" horiz-adv-x="605" d="M177 670Q179 680 188 680H381Q468 680 516 639T564 507Q564 475 558 424T541 318T517 213T488 131Q453 60 399 30T262 0H69Q59 0 61 10L177 670ZM93 32Q91 26 97 26H264Q339 26 386 54T463 140Q477 169 490 217T514 318T530 421T536 504Q536 581 498 617T376 654H208Q202 654 201 648L93 32Z"  />
<glyph unicode="E" horiz-adv-x="530" d="M177 670Q179 680 188 680H547Q557 680 555 670L554 664Q553 654 542 654H208Q202 654 201 648L152 366Q151 359 158 359H445Q455 359 453 349L452 343Q451 333 440 333H152Q146 333 145 327L93 32Q91 26 98 26H432Q442 26 440 16L439 10Q438 0 427 0H69Q59 0 61 10L177 670Z"  />
<glyph unicode="F" horiz-adv-x="524" d="M177 670Q179 680 188 680H547Q557 680 555 670L554 664Q553 654 542 654H208Q202 654 201 648L151 359Q150 352 157 352H444Q454 352 452 342L451 336Q450 326 439 326H151Q145 326 144 320L89 10Q87 0 78 0H69Q59 0 61 10L177 670Z"  />
<glyph unicode="G" horiz-adv-x="577" d="M68 178Q68 210 74 259T89 361T112 462T141 542Q178 618 233 654T370 690Q397 690 424 684T474 663T516 626T545 572Q548 564 540 561L532 558Q523 554 521 562Q501 616 460 640T365 664Q230 664 168 536Q153 505 140 458T117 360T102 262T96 183Q96 102 135 59T251 16Q317 16 367 47T450 146Q464 173 475 211T495 299Q496 305 490 305H322Q313 305 315 315L316 322Q317 331 326 331H518Q527 331 525 321L520 288Q513 246 501 205T476 138Q438 60 383 25T247 -10Q162 -10 115 39T68 178Z"  />
<glyph unicode="H" horiz-adv-x="622" d="M177 670Q179 680 188 680H197Q207 680 205 670L151 365Q149 359 156 359H513Q518 359 520 365L574 670Q576 680 585 680H594Q604 680 602 670L486 10Q484 0 475 0H466Q456 0 458 10L513 327Q514 333 509 333H152Q146 333 145 327L89 10Q87 0 78 0H69Q59 0 61 10L177 670Z"  />
<glyph unicode="I" horiz-adv-x="225" d="M177 670Q179 680 188 680H197Q207 680 205 670L89 10Q87 0 78 0H69Q59 0 61 10L177 670Z"  />
<glyph unicode="J" horiz-adv-x="447" d="M14 35Q6 41 14 49L19 54Q26 61 34 55Q57 38 81 27T137 16Q169 16 198 25T250 55T290 109T316 191L400 670Q402 680 411 680H420Q430 680 428 670L343 188Q333 133 314 96T268 35T207 1T134 -10Q100 -10 69 2T14 35Z"  />
<glyph unicode="K" horiz-adv-x="559" d="M177 670Q179 680 188 680H197Q207 680 205 670L131 248L545 670Q555 680 564 680H578Q582 680 583 677T581 670L325 410L478 10Q482 0 471 0H460Q452 0 448 10L305 389L123 204L89 10Q87 0 78 0H69Q59 0 61 10L177 670Z"  />
<glyph unicode="L" horiz-adv-x="500" d="M177 670Q179 680 188 680H197Q207 680 205 670L93 32Q91 26 97 26H431Q441 26 439 16L438 10Q436 0 427 0H69Q59 0 61 10L177 670Z"  />
<glyph unicode="M" horiz-adv-x="724" d="M177 670Q179 680 188 680H197Q205 680 208 670L346 142H348L670 670Q676 680 684 680H696Q706 680 704 670L588 10Q586 0 577 0H568Q558 0 560 10L665 606H663L361 114Q355 104 344 104H340Q328 104 325 115L196 609H194L89 10Q87 0 78 0H69Q59 0 61 10L177 670Z"  />
<glyph unicode="N" horiz-adv-x="623" d="M177 670Q179 680 188 680H196Q205 680 209 670L465 59H467L575 670Q577 680 586 680H595Q605 680 603 670L487 10Q485 0 476 0H469Q459 0 455 10L199 624H197L89 10Q87 0 78 0H69Q59 0 61 10L177 670Z"  />
<glyph unicode="O" horiz-adv-x="580" d="M247 -10Q161 -10 115 39T68 178Q68 210 74 259T89 361T112 462T141 542Q178 618 233 654T369 690Q455 690 501 641T548 502Q548 470 542 421T527 319T504 218T475 138Q438 62 383 26T247 -10ZM251 16Q386 16 448 144Q463 175 476 222T499 320T514 418T520 497Q520 578 481 621T365 664Q230 664 168 536Q153 505 140 458T117 360T102 262T96 183Q96 102 135 59T251 16Z"  />
<glyph unicode="P" horiz-adv-x="555" d="M69 0Q59 0 61 10L177 670Q179 680 188 680H394Q475 680 517 643T560 539Q560 486 543 444T496 373T423 329T330 314H148Q142 314 141 308L89 10Q87 0 78 0H69ZM331 340Q424 341 478 391T533 537Q533 594 498 624T390 654H208Q202 654 201 648L148 346Q146 340 153 340H331Z"  />
<glyph unicode="Q" horiz-adv-x="580" d="M452 -40Q443 -45 439 -38L398 37Q338 -10 247 -10Q161 -10 115 39T68 178Q68 210 74 259T89 361T112 462T141 542Q178 618 233 654T369 690Q455 690 501 641T548 502Q548 470 542 421T527 319T504 218T475 138Q449 86 417 54L461 -25Q466 -33 456 -38L452 -40ZM251 16Q331 16 385 61L329 163Q325 172 334 176L338 178Q347 183 351 176L404 79Q428 105 448 144Q463 175 476 222T499 320T514 418T520 497Q520 578 481 621T365 664Q230 664 168 536Q153 505 140 458T117 360T102 262T96 183Q96 102 135 59T251 16Z"  />
<glyph unicode="R" horiz-adv-x="589" d="M456 0Q448 0 445 9L355 321Q348 320 342 320T329 320H150Q144 320 143 314L89 10Q87 0 78 0H69Q59 0 61 10L177 670Q179 680 188 680H393Q474 680 516 643T558 535Q558 447 512 393T381 324L474 10Q477 0 468 0H456ZM334 346Q431 346 481 397T531 533Q531 654 388 654H208Q202 654 201 648L149 352Q147 346 154 346H334Z"  />
<glyph unicode="S" horiz-adv-x="575" d="M237 -10Q208 -10 179 -4T125 13T79 37T45 64Q40 71 46 77L51 82Q58 89 65 83Q98 54 143 35T248 16Q297 16 337 29T405 66T450 125T466 203Q466 231 459 252T436 288T391 314T322 330L294 334Q212 346 175 383T137 484Q137 529 152 566T196 631T266 674T359 690Q410 690 455 675T529 636Q536 631 530 622L526 617Q520 610 511 616Q440 664 353 664Q311 664 276 651T217 613T179 557T165 488Q165 432 196 401T312 358L340 354Q425 342 459 304T493 204Q493 156 476 117T427 50T347 6T237 -10Z"  />
<glyph unicode="T" horiz-adv-x="491" d="M202 0Q192 0 194 10L306 648Q307 654 302 654H106Q97 654 99 664L100 670Q102 680 111 680H542Q551 680 549 670L548 664Q546 654 537 654H341Q335 654 334 648L222 10Q220 0 211 0H202Z"  />
<glyph unicode="U" horiz-adv-x="607" d="M273 -10Q169 -10 120 49T93 232L170 670Q172 680 181 680H190Q200 680 198 670L121 231Q84 16 275 16Q320 16 355 27T417 64T461 131T490 231L567 670Q569 680 578 680H587Q597 680 595 670L518 232Q507 167 487 122T437 47T366 4T273 -10Z"  />
<glyph unicode="V" horiz-adv-x="535" d="M224 0Q217 0 215 10L109 664Q106 680 118 680H124Q135 680 136 669L236 47H237L552 670Q557 680 568 680H575Q580 680 582 676T580 664L246 10Q240 0 233 0H224Z"  />
<glyph unicode="W" horiz-adv-x="783" d="M531 0Q522 0 521 10L463 620H461L187 10Q183 0 173 0H165Q156 0 155 10L119 669Q119 680 129 680H136Q147 680 147 669L180 60H182L453 670Q457 680 467 680H475Q485 680 486 670L543 60H545L792 670Q796 680 807 680H815Q827 680 822 669L553 10Q549 0 539 0H531Z"  />
<glyph unicode="X" horiz-adv-x="511" d="M416 0Q408 0 405 8L278 330H277L35 8Q29 0 23 0H7Q2 0 1 3T3 10L266 359L144 670Q140 680 150 680H163Q170 680 173 672L285 387H286L498 672Q504 680 511 680H525Q530 680 531 677T529 670L297 358L434 10Q438 0 428 0H416Z"  />
<glyph unicode="Y" horiz-adv-x="486" d="M199 0Q189 0 191 10L238 280L110 668Q107 680 118 680H124Q134 680 138 670L256 314H258L502 670Q508 680 519 680H527Q532 680 533 677T532 668L266 279L219 10Q217 0 208 0H199Z"  />
<glyph unicode="Z" horiz-adv-x="520" d="M26 0Q16 0 18 10L19 17Q20 24 27 32L507 653V654H155Q145 654 147 664L148 670Q150 680 159 680H536Q546 680 544 670L543 663Q542 656 536 649L56 27V26H421Q431 26 429 16L428 10Q427 0 416 0H26Z"  />
<glyph unicode="[" horiz-adv-x="282" d="M78 -84Q68 -84 70 -74L212 730Q214 740 223 740H315Q325 740 323 730L322 724Q320 714 311 714H242Q236 714 235 708L101 -52Q99 -58 106 -58H175Q185 -58 183 -68L182 -74Q181 -84 170 -84H78Z"  />
<glyph unicode="\" horiz-adv-x="384" d="M256 -10Q247 -10 245 0L153 680Q151 690 161 690H168Q177 690 179 680L271 0Q273 -10 263 -10H256Z"  />
<glyph unicode="]" horiz-adv-x="282" d="M3 -84Q-7 -84 -5 -74L-4 -68Q-2 -58 7 -58H76Q81 -58 83 -52L217 708Q218 714 212 714H143Q133 714 135 724L136 730Q137 740 148 740H240Q250 740 248 730L106 -74Q104 -84 95 -84H3Z"  />
<glyph unicode="^" horiz-adv-x="503" d="M446 293Q437 293 433 303L270 649H268L106 303Q102 293 93 293H88Q83 293 81 295T81 303L253 670Q258 680 267 680H272Q281 680 286 670L458 303Q460 298 458 296T451 293H446Z"  />
<glyph unicode="_" horiz-adv-x="425" d="M-59 -115L-54 -89H371L366 -115H-59Z"  />
<glyph unicode="`" horiz-adv-x="403" d="M343 560Q337 560 335 562T328 570L269 690Q267 694 269 697T276 700H285Q291 700 293 698T298 690L352 570Q354 565 352 563T345 560H343Z"  />
<glyph unicode="a" horiz-adv-x="488" d="M341 0Q331 0 333 10L343 66H342Q324 34 283 12T182 -10Q118 -10 85 21T51 103Q51 181 100 221T245 262H371Q376 262 378 268L390 332Q396 367 395 391T382 430T348 452T287 459Q243 459 212 448T160 418Q151 410 145 416L139 422Q133 428 140 435Q166 458 203 471T291 484Q371 484 401 451T417 332L360 10Q358 0 349 0H341ZM189 15Q221 15 249 24T300 51T336 91T356 141L372 231Q373 237 368 237H246Q156 237 117 201T78 105Q78 63 105 39T189 15Z"  />
<glyph unicode="b" horiz-adv-x="503" d="M230 -10Q175 -10 143 17T99 82H98L86 10Q84 0 75 0H67Q57 0 59 10L175 670Q177 680 186 680H194Q204 680 202 670L154 397H155Q178 433 216 458T314 484Q383 484 417 444T452 331Q452 300 447 266T435 201T419 144T403 103Q349 -10 230 -10ZM232 15Q283 15 319 40T379 113Q390 135 398 163T413 220T422 278T425 330Q425 358 419 381T400 422T364 449T309 459Q263 459 223 435T155 353Q150 342 143 316T130 257T119 192T114 138Q114 84 144 50T232 15Z"  />
<glyph unicode="c" horiz-adv-x="450" d="M196 -10Q125 -10 90 31T55 149Q55 206 67 261T101 362Q130 420 176 452T283 484Q337 484 370 459T416 388Q419 379 411 375L404 372Q395 368 392 377Q379 420 352 439T279 459Q236 459 194 432T127 354Q115 328 106 301T92 247T85 197T82 155Q82 89 109 52T200 15Q239 15 274 33T344 97Q350 105 358 99L363 95Q370 89 363 80Q328 35 288 13T196 -10Z"  />
<glyph unicode="d" horiz-adv-x="503" d="M349 0Q339 0 341 10L353 77H352Q329 41 291 16T193 -10Q124 -10 90 30T55 143Q55 174 60 208T72 273T87 330T104 371Q158 484 277 484Q332 484 364 457T408 392H409L457 670Q459 680 468 680H476Q486 680 484 670L368 10Q366 0 357 0H349ZM198 15Q244 15 284 39T352 121Q357 131 364 158T377 217T388 281T393 336Q393 390 363 424T275 459Q224 459 188 434T128 361Q117 339 109 311T94 254T85 196T82 144Q82 116 88 93T107 52T143 25T198 15Z"  />
<glyph unicode="e" horiz-adv-x="469" d="M201 -10Q129 -10 92 30T55 142Q55 198 66 257T101 365Q129 423 175 453T282 484Q345 484 383 446T422 333Q422 316 420 297T413 247Q411 237 401 237H97Q90 237 89 231Q84 204 83 185T82 142Q82 84 111 50T203 15Q251 15 288 35T353 86Q361 94 367 89L373 84Q379 77 372 70Q341 34 298 12T201 -10ZM383 262Q388 262 390 268Q396 301 396 329Q396 394 367 426T280 459Q229 459 190 433T125 355Q117 338 110 315T97 268Q95 262 102 262H383Z"  />
<glyph unicode="f" horiz-adv-x="286" d="M81 0Q72 0 74 10L151 443Q152 449 146 449H90Q80 449 82 459L83 464Q84 474 95 474H151Q156 474 158 480L169 545Q176 587 186 613T213 655T252 675T308 680H328Q338 680 336 670L335 665Q334 655 323 655H306Q278 655 260 652T230 637T211 605T197 552L184 480Q182 474 189 474H292Q302 474 300 464L299 459Q298 449 287 449H184Q179 449 178 443L101 10Q99 0 90 0H81Z"  />
<glyph unicode="g" horiz-adv-x="496" d="M162 -190Q120 -190 85 -173T30 -118Q24 -108 34 -104L41 -101Q49 -98 54 -106Q72 -134 98 -149T166 -165Q230 -165 274 -126T333 4L345 74H344Q320 33 284 12T191 -10Q124 -10 90 29T55 137Q55 161 58 191T68 254T83 316T105 371Q160 484 275 484Q329 484 359 457T401 392H402L414 464Q416 474 426 474H433Q443 474 441 464L359 2Q349 -52 331 -89T288 -148T231 -180T162 -190ZM196 15Q237 15 275 36T340 110Q349 128 357 159T372 223T382 287T386 336Q386 388 358 423T273 459Q176 459 129 361Q106 310 94 251T82 138Q82 83 109 49T196 15Z"  />
<glyph unicode="h" horiz-adv-x="516" d="M367 0Q358 0 360 10L412 294Q427 382 401 420T306 459Q279 459 252 449T202 419T162 373T139 311L86 10Q84 0 75 0H66Q57 0 59 10L175 670Q177 680 186 680H194Q204 680 202 670L155 400H156Q182 440 222 462T311 484Q389 484 423 439T440 301L387 10Q385 0 376 0H367Z"  />
<glyph unicode="i" horiz-adv-x="221" d="M170 622Q160 622 162 632L169 670Q171 680 180 680H202Q211 680 209 670L202 632Q201 622 190 622H170ZM67 0Q57 0 59 10L139 464Q141 474 150 474H158Q168 474 166 464L86 10Q84 0 75 0H67Z"  />
<glyph unicode="j" horiz-adv-x="221" d="M170 622Q160 622 162 632L169 670Q171 680 180 680H202Q211 680 209 670L202 632Q201 622 190 622H170ZM-53 -180Q-63 -180 -61 -170L-60 -165Q-59 -155 -48 -155H-45Q-2 -155 17 -138T45 -71L139 464Q141 474 150 474H158Q168 474 166 464L72 -71Q66 -103 58 -124T35 -157T0 -175T-49 -180H-53Z"  />
<glyph unicode="k" d="M371 0Q363 0 358 10L247 281L109 141L86 10Q84 0 75 0H66Q57 0 59 10L175 670Q177 680 186 680H194Q204 680 202 670L116 183L393 465Q402 474 410 474H424Q429 474 430 471T427 464L267 301L387 10Q389 6 387 3T379 0H371Z"  />
<glyph unicode="l" horiz-adv-x="237" d="M136 -2Q93 -2 79 21T73 95L178 670Q180 680 189 680H197Q207 680 205 670L100 95Q92 53 101 38T140 23H154Q164 23 162 13L161 8Q160 -2 149 -2H136Z"  />
<glyph unicode="m" horiz-adv-x="818" d="M671 0Q660 0 662 10L714 294Q729 382 703 420T608 459Q581 459 554 449T504 420T464 373T441 310L388 10Q386 0 377 0H369Q359 0 361 10L411 294Q426 380 401 419T306 459Q279 459 252 449T202 419T162 373T139 311L86 10Q84 0 75 0H67Q57 0 59 10L139 464Q141 474 150 474H158Q168 474 166 464L155 400H156Q182 440 222 462T311 484Q371 484 403 458T442 384H443Q466 428 510 456T613 484Q691 484 724 439T742 301L689 10Q687 0 678 0H671Z"  />
<glyph unicode="n" horiz-adv-x="516" d="M367 0Q358 0 360 10L412 294Q427 382 401 420T306 459Q279 459 252 449T202 419T162 373T139 311L86 10Q84 0 75 0H66Q57 0 59 10L139 464Q141 474 150 474H158Q168 474 166 464L155 400H156Q182 440 222 462T311 484Q389 484 423 439T440 301L387 10Q385 0 376 0H367Z"  />
<glyph unicode="o" horiz-adv-x="479" d="M201 -10Q126 -10 91 32T55 147Q55 175 59 207T71 270T86 326T103 369Q132 429 178 456T284 484Q359 484 394 442T430 327Q430 298 426 266T414 204T399 148T382 105Q353 45 307 18T201 -10ZM205 15Q256 15 295 40T360 119Q366 132 373 156T387 208T398 266T403 320Q403 387 375 423T280 459Q229 459 190 434T125 355Q119 342 112 318T98 266T87 208T82 154Q82 87 110 51T205 15Z"  />
<glyph unicode="p" horiz-adv-x="503" d="M35 -180Q25 -180 27 -170L139 464Q141 474 150 474H158Q168 474 166 464L154 397H155Q178 433 216 458T314 484Q383 484 417 444T452 331Q452 300 447 266T435 201T419 144T403 103Q349 -10 230 -10Q175 -10 143 17T99 82H98L54 -170Q52 -180 43 -180H35ZM232 15Q283 15 319 40T379 113Q390 135 398 163T413 220T422 278T425 330Q425 358 419 381T400 422T364 449T309 459Q263 459 223 435T155 353Q150 342 143 316T130 257T119 192T114 138Q114 84 144 50T232 15Z"  />
<glyph unicode="q" horiz-adv-x="503" d="M317 -180Q307 -180 309 -170L352 74H351Q328 39 290 15T193 -10Q124 -10 90 29T55 143Q55 174 60 208T72 273T88 330T105 371Q132 428 174 456T278 484Q333 484 365 459T408 394H409L421 464Q423 474 432 474H440Q450 474 448 464L336 -170Q334 -180 325 -180H317ZM198 15Q244 15 284 39T352 121Q357 131 364 158T377 217T388 281T393 336Q393 390 364 424T275 459Q225 459 189 434T129 361Q118 339 110 311T95 254T86 196T82 144Q82 116 88 93T107 52T143 25T198 15Z"  />
<glyph unicode="r" horiz-adv-x="370" d="M67 0Q57 0 59 10L139 464Q141 474 150 474H158Q168 474 166 464L154 394H155Q172 434 207 459T294 484Q320 484 342 476T380 454Q385 449 379 441L374 435Q368 429 360 435Q345 446 328 452T288 459Q255 459 229 443T183 401T152 343T133 276L86 10Q84 0 75 0H67Z"  />
<glyph unicode="s" horiz-adv-x="455" d="M192 -10Q134 -10 93 11T30 53Q24 59 31 66L37 71Q40 74 44 74T50 71Q75 50 108 33T194 15Q268 15 311 52T355 150Q355 185 334 203T258 228L214 233Q99 247 99 336Q99 367 111 394T146 441T201 472T275 484Q313 484 350 472T411 444Q417 440 412 432L409 427Q404 419 393 424Q372 436 341 447T272 459Q207 459 167 425T126 337Q126 302 149 283T229 257L273 252Q382 240 382 153Q382 116 369 86T330 35T270 2T192 -10Z"  />
<glyph unicode="t" horiz-adv-x="289" d="M182 -2Q122 -2 100 24T90 120L152 443Q153 449 147 449H91Q81 449 83 459L84 464Q85 474 96 474H152Q157 474 159 480L183 620Q185 630 194 630H202Q212 630 210 620L186 480Q184 474 191 474H286Q296 474 294 464L293 459Q292 449 281 449H186Q180 449 179 443L118 124Q112 93 113 74T122 43T146 27T187 23H203Q213 23 211 13L210 8Q209 -2 198 -2H182Z"  />
<glyph unicode="u" horiz-adv-x="510" d="M152 474Q161 474 159 464L107 180Q92 92 117 54T210 15Q236 15 262 25T312 55T352 101T375 163L428 464Q430 474 439 474H448Q457 474 455 464L375 10Q373 0 364 0H356Q346 0 348 10L359 74H358Q332 34 292 12T205 -10Q129 -10 96 35T79 173L132 464Q134 474 143 474H152Z"  />
<glyph unicode="v" horiz-adv-x="441" d="M174 0Q168 0 166 10L79 464Q77 474 87 474H95Q105 474 106 464L186 44H187L414 464Q419 474 428 474H438Q448 474 443 464L196 10Q191 0 184 0H174Z"  />
<glyph unicode="w" horiz-adv-x="699" d="M454 0Q445 0 444 10L385 431H384L176 10Q170 0 162 0H156Q147 0 146 10L85 464Q83 474 93 474H100Q110 474 111 464L167 48H168L373 464Q377 474 386 474H393Q403 474 404 464L465 48H466L667 464Q672 474 681 474H689Q700 474 695 464L473 10Q468 0 460 0H454Z"  />
<glyph unicode="x" horiz-adv-x="427" d="M332 0Q324 0 321 7L218 227H217L35 7Q29 0 22 0H8Q3 0 3 3T5 10L205 250L104 464Q100 474 110 474H120Q127 474 131 467L223 272H224L385 467Q391 474 399 474H411Q416 474 416 471T414 464L235 247L349 10Q353 0 342 0H332Z"  />
<glyph unicode="y" horiz-adv-x="441" d="M4 -180Q-6 -180 -4 -170L-3 -165Q-2 -155 9 -155H25Q40 -155 53 -151T79 -134T106 -101T139 -46L168 7L80 464Q78 474 88 474H96Q106 474 107 464L187 44H188L415 464Q420 474 429 474H439Q449 474 444 464L162 -55Q140 -95 122 -119T88 -157T55 -175T19 -180H4Z"  />
<glyph unicode="z" horiz-adv-x="440" d="M28 0Q18 0 20 10L21 16Q22 23 29 31L389 448V449H119Q109 449 111 459L112 464Q114 474 123 474H419Q429 474 427 464L426 458Q425 452 417 443L57 26V25H340Q350 25 348 15L347 10Q345 0 336 0H28Z"  />
<glyph unicode="{" horiz-adv-x="293" d="M160 -84Q118 -84 104 -62T99 12L137 230Q146 279 135 297T104 317Q95 319 96 327L97 334Q98 343 108 343Q131 344 146 360T172 430L211 648Q220 699 241 719T304 740H326Q336 740 334 730L333 725Q332 715 321 715H301Q275 715 259 700T237 647L201 440Q196 410 190 391T177 360T161 341T140 329V327Q159 316 164 290T162 218L125 7Q118 -31 127 -45T163 -59H185Q195 -59 193 -69L192 -74Q191 -84 180 -84H160Z"  />
<glyph unicode="|" horiz-adv-x="241" d="M134 -84Q124 -84 124 -74V730Q124 740 134 740H141Q151 740 151 730V-74Q151 -84 141 -84H134Z"  />
<glyph unicode="}" horiz-adv-x="293" d="M3 -84Q-7 -84 -5 -74L-4 -69Q-3 -59 8 -59H28Q54 -59 70 -44T92 9L129 220Q134 250 140 269T153 300T169 319T190 331V333Q171 344 166 370T168 442L204 649Q211 687 202 701T166 715H144Q134 715 136 725L137 730Q138 740 149 740H169Q211 740 225 718T230 644L193 430Q188 405 189 389T195 363T208 349T226 343Q235 341 234 333L233 326Q231 317 222 317Q210 316 201 313T183 300T169 274T158 230L118 8Q109 -43 88 -63T25 -84H3Z"  />
<glyph unicode="~" horiz-adv-x="503" d="M341 226Q309 226 288 239T246 267Q229 280 211 290T168 301Q142 301 122 288T82 242Q77 234 69 239L65 241Q57 246 62 255Q80 288 107 306T170 325Q202 325 223 312T265 284Q282 271 300 261T343 250Q369 250 389 263T429 309Q434 317 442 312L446 310Q454 305 449 296Q431 263 404 245T341 226Z"  />
<glyph unicode="&#xA0;" horiz-adv-x="240" />
<glyph unicode="&#xA1;" horiz-adv-x="237" d="M137 305Q147 305 145 295L60 -196Q58 -206 49 -206H39Q29 -206 31 -196L120 295Q122 305 131 305H137ZM176 416Q174 406 165 406H140Q130 406 132 416L140 464Q143 474 152 474H177Q187 474 185 464L176 416Z"  />
<glyph unicode="&#xA2;" horiz-adv-x="503" d="M199 -103Q189 -103 191 -93L205 -9Q142 -4 111 36T80 149Q80 206 92 261T126 362Q152 416 194 447T292 483L307 567Q309 577 318 577H324Q334 577 332 567L317 484Q369 482 400 458T445 388Q448 379 440 375L433 372Q424 368 421 377Q408 419 383 438T313 459L235 15Q273 17 307 36T373 97Q379 105 387 99L392 95Q399 89 392 80Q358 36 320 14T230 -10L216 -93Q214 -103 205 -103H199ZM107 155Q107 94 130 58T210 16L288 458Q247 453 211 426T152 354Q140 328 131 301T117 247T110 197T107 155Z"  />
<glyph unicode="&#xA3;" horiz-adv-x="503" d="M77 0Q67 0 69 10L70 17Q71 22 77 26Q102 49 116 74T138 144L166 304Q167 310 161 310H113Q103 310 105 320L106 325Q108 335 118 335H166Q172 335 173 341L205 523Q220 610 261 650T362 690Q413 690 443 660T478 573Q478 563 470 561L463 559Q453 556 453 566Q450 615 425 640T361 665Q310 665 277 630T231 524L199 341Q197 335 203 335H341Q351 335 349 325L348 320Q346 310 336 310H198Q193 310 192 304L164 143Q156 94 143 69T106 26V25H380Q390 25 388 15L387 10Q385 0 377 0H77Z"  />
<glyph unicode="&#xA4;" horiz-adv-x="503" d="M430 117Q422 110 417 117L362 183Q336 163 306 153T240 142Q205 142 178 153T132 185L54 117Q47 111 41 117L36 123Q30 129 38 136L117 204Q94 241 94 288Q94 336 111 377T160 449L108 515Q102 522 109 528L114 532Q122 539 127 532L181 467Q207 486 237 496T302 507Q336 507 363 496T409 464L488 532Q495 538 501 532L506 526Q512 520 504 513L425 444Q448 409 448 361Q448 313 431 272T382 201L436 134Q442 127 435 121L430 117ZM241 167Q278 167 311 182T369 223T408 283T422 358Q422 413 389 447T301 482Q263 482 231 467T173 426T134 366T120 291Q120 236 153 202T241 167Z"  />
<glyph unicode="&#xA5;" horiz-adv-x="503" d="M213 0Q203 0 205 10L233 166Q234 173 228 173H97Q87 173 89 183L90 188Q92 198 102 198H233Q238 198 240 204L252 278Q253 284 247 284H116Q106 284 108 294L109 299Q111 309 121 309H245V310L148 668Q145 680 156 680H164Q173 680 176 670L271 316H273L490 670Q494 676 496 678T507 680H513Q527 680 518 666L298 310V309H422Q432 309 430 299L429 294Q427 284 417 284H285Q279 284 278 278L266 204Q264 198 270 198H403Q413 198 411 188L410 183Q408 173 398 173H265Q260 173 259 167L231 10Q229 0 220 0H213Z"  />
<glyph unicode="&#xA6;" horiz-adv-x="241" d="M134 388Q124 388 124 398V730Q124 740 134 740H141Q151 740 151 730V398Q151 388 141 388H134ZM134 -84Q124 -84 124 -74V262Q124 272 134 272H141Q151 272 151 262V-74Q151 -84 141 -84H134Z"  />
<glyph unicode="&#xA7;" horiz-adv-x="487" d="M171 -192Q101 -192 72 -152T52 -42Q54 -31 61 -30L70 -29Q80 -28 78 -37Q73 -66 75 -89T89 -130T122 -157T176 -167Q206 -167 231 -157T275 -127T303 -81T314 -21Q314 0 308 16T288 45T251 67T193 83Q138 94 114 126T89 208Q89 247 98 282T127 346T173 394T236 420V421Q202 435 184 461T165 523Q165 557 175 588T206 642T257 678T329 692Q386 692 417 657T439 559Q438 549 429 548L421 547Q411 546 413 555Q421 603 400 635T324 667Q293 667 269 657T227 627T201 583T192 528Q192 489 217 464T305 424Q409 402 409 298Q409 260 400 226T373 163T329 115T268 87V86Q341 61 341 -17Q341 -55 329 -87T294 -142T240 -179T171 -192ZM224 106Q261 106 290 120T339 160T371 220T382 294Q382 345 352 372T274 400Q237 400 208 385T159 345T127 285T116 212Q116 161 146 134T224 106Z"  />
<glyph unicode="&#xA8;" horiz-adv-x="401" d="M357 622Q347 622 349 632L356 670Q358 680 367 680H389Q399 680 397 670L390 632Q388 622 379 622H357ZM164 622Q154 622 156 632L163 670Q165 680 174 680H196Q206 680 204 670L197 632Q195 622 186 622H164Z"  />
<glyph unicode="&#xA9;" horiz-adv-x="833" d="M437 -10Q362 -10 298 16T187 90T114 201T87 340Q87 415 113 479T187 590T298 663T437 690Q512 690 576 664T687 590T760 479T787 340Q787 265 761 201T687 90T576 17T437 -10ZM437 15Q506 15 565 39T667 107T735 210T760 340Q760 410 736 469T668 572T565 640T437 665Q368 665 309 641T206 573T138 470T113 340Q113 270 137 211T205 108T308 40T437 15ZM442 144Q392 144 357 169T306 243Q301 260 298 281T295 340Q295 378 298 399T306 437Q322 486 357 511T442 536Q490 536 522 514T572 459Q577 451 568 447L564 445Q555 442 551 449Q534 477 509 494T442 512Q400 512 372 492T329 430Q324 414 322 395T319 340Q319 305 321 286T329 250Q343 208 371 188T442 168Q484 168 509 185T551 231Q555 238 564 235L568 233Q577 229 572 221Q555 189 523 167T442 144Z"  />
<glyph unicode="&#xAA;" horiz-adv-x="328" d="M278 392Q268 392 270 402L274 425H273Q258 405 231 396T174 386Q136 386 113 405T90 458Q90 511 126 534T218 558H291Q296 558 298 564L303 592Q310 629 297 646T236 664Q214 664 194 657T157 639Q146 632 143 640L141 645Q137 653 145 659Q161 671 187 679T242 687Q297 687 316 663T326 588L293 402Q291 392 283 392H278ZM182 409Q220 409 249 429T283 475L292 529Q293 535 287 535H216Q170 535 143 517T115 461Q115 437 132 423T182 409Z"  />
<glyph unicode="&#xAB;" horiz-adv-x="477" d="M243 257Q237 265 245 271L423 429Q426 432 429 431T432 425L430 410Q429 401 421 393L279 266Q275 262 277 258L373 131Q378 124 377 114L375 101Q374 96 371 96T365 98L243 257ZM61 257Q55 265 63 271L241 429Q244 432 247 431T250 425L248 410Q247 401 239 393L97 266Q93 262 95 258L191 131Q196 124 195 114L193 101Q192 96 189 96T183 98L61 257Z"  />
<glyph unicode="&#xAC;" horiz-adv-x="503" d="M425 131Q415 131 415 141V258Q415 264 409 264H71Q61 264 61 274V279Q61 289 71 289H432Q442 289 442 279V141Q442 131 432 131H425Z"  />
<glyph unicode="&#xAD;" horiz-adv-x="353" d="M64 255Q54 255 56 265L57 271Q58 279 68 279H304Q314 279 312 269L311 263Q310 255 300 255H64Z"  />
<glyph unicode="&#xAE;" horiz-adv-x="465" d="M277 300Q236 300 201 314T140 355T100 416T85 493Q85 534 99 569T139 630T200 670T277 685Q319 685 354 671T415 631T455 570T470 493Q470 451 456 416T415 355T354 315T277 300ZM277 322Q313 322 344 335T398 371T434 425T447 493Q447 529 434 560T399 614T345 650T277 663Q241 663 210 650T157 615T121 561T108 493Q108 456 121 425T156 371T210 335T277 322ZM219 386Q210 386 210 395V593Q210 602 219 602H294Q325 602 341 585T358 542Q358 520 347 504T314 482L357 396Q361 386 352 386H343Q337 386 333 393L289 481H235Q232 481 232 479V395Q232 386 223 386H219ZM294 502Q316 502 326 513T336 542Q336 559 326 570T294 581H235Q232 581 232 579V504Q232 502 235 502H294Z"  />
<glyph unicode="&#xAF;" horiz-adv-x="401" d="M161 637Q151 637 153 647L154 652Q155 662 165 662H390Q400 662 398 652L397 647Q396 637 386 637H161Z"  />
<glyph unicode="&#xB0;" horiz-adv-x="419" d="M263 404Q233 404 207 414T162 444T133 488T122 544Q122 574 132 600T162 645T207 674T263 685Q293 685 319 675T363 645T392 600T403 544Q403 514 393 489T364 444T319 415T263 404ZM263 429Q312 429 344 461T376 544Q376 594 345 627T263 660Q213 660 181 627T149 544Q149 494 181 462T263 429Z"  />
<glyph unicode="&#xB1;" horiz-adv-x="503" d="M248 85Q238 85 238 95V258Q238 264 232 264H71Q61 264 61 274V279Q61 289 71 289H232Q238 289 238 295V458Q238 468 248 468H255Q265 468 265 458V295Q265 289 271 289H432Q442 289 442 279V274Q442 264 432 264H271Q265 264 265 258V95Q265 85 255 85H248ZM71 0Q61 0 61 10V15Q61 25 71 25H432Q442 25 442 15V10Q442 0 432 0H71Z"  />
<glyph unicode="&#xB2;" horiz-adv-x="310" d="M87 430Q77 430 79 440L80 444Q81 450 88 458L277 651Q295 670 312 695T330 753Q330 783 313 800T263 818Q230 818 206 799T168 748Q165 739 156 740L150 741Q142 743 145 753Q157 790 188 816T265 842Q310 842 332 817T355 757Q355 722 339 693T295 635L117 455V454H298Q308 454 306 444L305 440Q303 430 294 430H87Z"  />
<glyph unicode="&#xB3;" horiz-adv-x="310" d="M190 424Q167 424 150 430T120 448T100 473T91 502Q89 512 98 514L104 516Q113 519 115 509Q120 484 137 466T193 448Q215 448 234 456T268 479T291 514T299 557Q299 589 280 609T225 630H209Q200 630 202 640L203 645Q204 654 214 654H227Q246 654 264 662T295 683T317 715T325 755Q325 783 308 800T257 818Q222 818 200 802T166 761Q161 752 154 753L148 754Q140 756 143 766Q149 780 159 794T183 818T217 835T260 842Q303 842 326 819T350 758Q350 723 332 692T277 643V642Q294 634 309 614T324 561Q324 532 315 507T288 464T245 435T190 424Z"  />
<glyph unicode="&#xB4;" horiz-adv-x="401" d="M210 560Q199 560 207 570L301 690Q309 700 319 700H330Q335 700 336 697T334 690L232 570Q227 564 224 562T214 560H210Z"  />
<glyph unicode="&#xB5;" horiz-adv-x="519" d="M365 0Q355 0 357 10L368 74H367Q341 34 302 12T212 -10Q122 -10 95 56H94L54 -170Q52 -180 43 -180H35Q25 -180 27 -170L139 464Q141 474 150 474H158Q167 474 165 464L113 164Q100 91 125 53T218 15Q247 15 274 26T324 57T362 104T384 163L437 464Q439 474 448 474H457Q466 474 464 464L384 10Q382 0 373 0H365Z"  />
<glyph unicode="&#xB6;" horiz-adv-x="506" d="M320 -180Q310 -180 312 -170L456 649Q457 655 451 655H346Q341 655 340 649L196 -170Q194 -180 185 -180H177Q167 -180 169 -170L247 272Q172 277 133 320T94 432Q94 485 112 530T164 609T243 661T344 680H479Q489 680 487 670L339 -170Q337 -180 328 -180H320Z"  />
<glyph unicode="&#xB7;" horiz-adv-x="195" d="M87 232Q77 232 79 242L87 290Q89 300 98 300H123Q133 300 131 290L123 242Q121 232 112 232H87Z"  />
<glyph unicode="&#xB8;" horiz-adv-x="401" d="M107 -144Q96 -144 101 -134L175 0Q181 10 189 10H194Q205 10 200 0L132 -134Q127 -144 115 -144H107Z"  />
<glyph unicode="&#xB9;" horiz-adv-x="310" d="M205 430Q195 430 197 440L260 802H259L182 753Q178 751 175 752T173 758L174 766Q175 775 183 780L260 830Q269 836 276 836H281Q292 836 290 826L222 440Q220 430 210 430H205Z"  />
<glyph unicode="&#xBA;" horiz-adv-x="328" d="M192 385Q148 385 123 411T98 489Q98 515 104 549T125 611Q162 687 243 687Q287 687 312 661T337 583Q337 557 331 523T310 461Q273 385 192 385ZM195 408Q227 408 249 424T288 470Q294 482 298 496T306 526T310 555T312 581Q312 621 296 642T241 664Q208 664 186 648T147 602Q141 590 137 576T129 546T125 517T123 491Q123 451 140 430T195 408Z"  />
<glyph unicode="&#xBB;" horiz-adv-x="477" d="M248 98Q245 95 242 96T239 102L241 117Q242 126 250 134L392 261Q396 265 394 269L298 396Q293 403 294 413L296 426Q297 431 300 431T306 429L428 270Q434 262 426 256L248 98ZM66 98Q63 95 60 96T57 102L59 117Q60 126 68 134L210 261Q214 265 212 269L116 396Q111 403 112 413L114 426Q115 431 118 431T124 429L246 270Q252 262 244 256L66 98Z"  />
<glyph unicode="&#xBC;" horiz-adv-x="786" d="M152 -10Q147 -10 146 -8T148 0L645 680Q652 690 660 690H669Q680 690 673 680L177 0Q172 -5 169 -7T161 -10H152ZM194 274Q184 274 186 284L249 646H248L171 597Q167 595 164 596T162 602L163 610Q164 619 172 624L249 674Q258 680 265 680H270Q281 680 279 670L211 284Q209 274 199 274H194ZM593 0Q584 0 586 10L598 79Q599 85 593 85H438Q428 85 430 95L431 100Q432 105 438 114L620 396Q626 406 633 406H644Q648 406 649 403T648 396L463 110V109H597Q602 109 604 115L623 223Q625 233 634 233H641Q650 233 648 223L630 115Q628 109 635 109H677Q687 109 685 99L684 94Q682 85 674 85H630Q624 85 623 79L611 10Q609 0 600 0H593Z"  />
<glyph unicode="&#xBD;" horiz-adv-x="813" d="M152 -10Q147 -10 146 -8T148 0L645 680Q652 690 660 690H669Q680 690 673 680L177 0Q172 -5 169 -7T161 -10H152ZM194 274Q184 274 186 284L249 646H248L171 597Q167 595 164 596T162 602L163 610Q164 619 172 624L249 674Q258 680 265 680H270Q281 680 279 670L211 284Q209 274 199 274H194ZM478 0Q468 0 470 10L471 14Q472 20 479 28L668 221Q686 240 703 265T721 323Q721 353 704 370T654 388Q621 388 597 369T559 318Q556 309 547 310L541 311Q533 313 536 323Q548 360 579 386T656 412Q701 412 723 387T746 327Q746 292 730 263T686 205L508 25V24H689Q699 24 697 14L696 10Q694 0 685 0H478Z"  />
<glyph unicode="&#xBE;" horiz-adv-x="853" d="M219 -10Q214 -10 213 -8T215 0L712 680Q719 690 727 690H736Q747 690 740 680L244 0Q239 -5 236 -7T228 -10H219ZM221 268Q198 268 181 274T151 292T131 317T122 346Q120 356 129 358L135 360Q144 363 146 353Q151 328 168 310T224 292Q246 292 265 300T299 323T322 358T330 401Q330 433 311 453T256 474H240Q231 474 233 484L234 489Q235 498 245 498H258Q277 498 295 506T326 527T348 559T356 599Q356 627 339 644T288 662Q253 662 231 646T197 605Q192 596 185 597L179 598Q171 600 174 610Q180 624 190 638T214 662T248 679T291 686Q334 686 357 663T381 602Q381 567 363 536T308 487V486Q325 478 340 458T355 405Q355 376 346 351T319 308T276 279T221 268ZM660 0Q651 0 653 10L665 79Q666 85 660 85H505Q495 85 497 95L498 100Q499 105 505 114L687 396Q693 406 700 406H711Q715 406 716 403T715 396L530 110V109H664Q669 109 671 115L690 223Q692 233 701 233H708Q717 233 715 223L697 115Q695 109 702 109H744Q754 109 752 99L751 94Q749 85 741 85H697Q691 85 690 79L678 10Q676 0 667 0H660Z"  />
<glyph unicode="&#xBF;" horiz-adv-x="421" d="M241 309Q251 309 249 299L241 259Q235 227 225 204T189 155L136 99Q108 70 89 46T58 1T41 -40T36 -81Q36 -135 67 -163T146 -191Q201 -191 242 -157T304 -61Q307 -52 316 -53L324 -55Q332 -57 329 -66Q307 -135 259 -175T142 -216Q79 -216 45 -179T10 -83Q10 -38 33 6T106 103L159 160Q174 176 183 187T198 209T207 231T214 259L222 299Q224 309 233 309H241ZM274 416Q272 406 263 406H238Q228 406 230 416L238 464Q240 474 249 474H274Q284 474 282 464L274 416Z"  />
<glyph unicode="&#xC0;" horiz-adv-x="567" d="M7 0Q-3 0 2 10L349 670Q354 680 361 680H371Q378 680 380 670L492 10Q494 0 483 0H475Q465 0 464 10L433 197H131L33 10Q28 0 19 0H7ZM428 223L360 630H358L145 223H428ZM370 766Q364 766 362 767T354 776L290 878Q288 882 289 885T295 888H305Q311 888 314 886T320 878L378 776Q381 771 380 769T373 766H370Z"  />
<glyph unicode="&#xC1;" horiz-adv-x="567" d="M7 0Q-3 0 2 10L349 670Q354 680 361 680H371Q378 680 380 670L492 10Q494 0 483 0H475Q465 0 464 10L433 197H131L33 10Q28 0 19 0H7ZM428 223L360 630H358L145 223H428ZM377 766Q372 766 372 769T376 777L467 878Q476 888 486 888H497Q502 888 503 885T500 878L401 776Q395 770 392 768T382 766H377Z"  />
<glyph unicode="&#xC2;" horiz-adv-x="567" d="M7 0Q-3 0 2 10L349 670Q354 680 361 680H371Q378 680 380 670L492 10Q494 0 483 0H475Q465 0 464 10L433 197H131L33 10Q28 0 19 0H7ZM428 223L360 630H358L145 223H428ZM475 756Q466 756 461 765L405 869H403L309 765Q301 756 292 756H287Q283 756 282 759T285 766L388 886Q396 895 404 895H409Q416 895 421 886L483 766Q485 762 484 759T479 756H475Z"  />
<glyph unicode="&#xC3;" horiz-adv-x="567" d="M7 0Q-3 0 2 10L349 670Q354 680 361 680H371Q378 680 380 670L492 10Q494 0 483 0H475Q465 0 464 10L433 197H131L33 10Q28 0 19 0H7ZM428 223L360 630H358L145 223H428ZM439 796Q423 796 411 802T388 817Q378 825 369 830T347 835Q333 835 319 826T289 801Q286 798 283 799T281 804L283 818Q284 822 285 824T292 832Q305 844 320 851T352 858Q368 858 380 852T403 837Q413 829 422 824T444 819Q458 819 472 828T502 853Q505 856 508 855T510 850L508 836Q507 832 506 830T499 822Q486 810 471 803T439 796Z"  />
<glyph unicode="&#xC4;" horiz-adv-x="567" d="M7 0Q-3 0 2 10L349 670Q354 680 361 680H371Q378 680 380 670L492 10Q494 0 483 0H475Q465 0 464 10L433 197H131L33 10Q28 0 19 0H7ZM428 223L360 630H358L145 223H428ZM475 796Q465 796 467 806L474 844Q476 854 485 854H507Q517 854 515 844L508 806Q506 796 497 796H475ZM282 796Q272 796 274 806L281 844Q283 854 292 854H314Q324 854 322 844L315 806Q313 796 304 796H282Z"  />
<glyph unicode="&#xC5;" horiz-adv-x="567" d="M7 0Q-3 0 2 10L349 670Q354 680 361 680H371Q378 680 380 670L492 10Q494 0 483 0H475Q465 0 464 10L433 197H131L33 10Q28 0 19 0H7ZM428 223L360 630H358L145 223H428ZM381 748Q352 748 334 767T315 815Q315 855 341 882T410 910Q439 910 457 891T476 843Q476 803 450 776T381 748ZM386 770Q413 770 432 790T452 840Q452 861 440 874T405 888Q378 888 359 868T339 818Q339 797 351 784T386 770Z"  />
<glyph unicode="&#xC6;" horiz-adv-x="917" d="M456 0Q446 0 448 10L480 191Q481 197 475 197H189L38 10Q30 0 22 0H7Q2 0 1 3T3 10L541 671Q548 680 558 680H934Q944 680 942 670L941 664Q940 654 929 654H595Q589 654 588 648L539 366Q538 359 545 359H832Q842 359 840 349L839 343Q838 333 827 333H539Q533 333 532 327L480 32Q478 26 485 26H819Q829 26 827 16L826 10Q825 0 814 0H456ZM210 223H479Q484 223 486 229L561 651H558L210 223Z"  />
<glyph unicode="&#xC7;" horiz-adv-x="531" d="M157 -144Q146 -144 151 -134L220 -9Q147 -2 107 46T67 178Q67 210 73 259T88 361T111 462T140 542Q178 620 230 655T357 690Q413 690 458 661T525 567Q528 559 520 556L512 553Q503 549 501 557Q481 612 444 638T355 664Q292 664 246 634T167 536Q152 505 139 458T116 360T101 262T95 183Q95 103 133 60T249 16Q309 16 351 42T429 121Q434 127 440 124L449 119Q455 115 450 106Q411 44 360 17T245 -10L182 -134Q177 -144 165 -144H157Z"  />
<glyph unicode="&#xC8;" horiz-adv-x="530" d="M177 670Q179 680 188 680H547Q557 680 555 670L554 664Q553 654 542 654H208Q202 654 201 648L152 366Q151 359 158 359H445Q455 359 453 349L452 343Q451 333 440 333H152Q146 333 145 327L93 32Q91 26 98 26H432Q442 26 440 16L439 10Q438 0 427 0H69Q59 0 61 10L177 670ZM384 766Q378 766 376 767T368 776L304 878Q302 882 303 885T309 888H319Q325 888 328 886T334 878L392 776Q395 771 394 769T387 766H384Z"  />
<glyph unicode="&#xC9;" horiz-adv-x="530" d="M177 670Q179 680 188 680H547Q557 680 555 670L554 664Q553 654 542 654H208Q202 654 201 648L152 366Q151 359 158 359H445Q455 359 453 349L452 343Q451 333 440 333H152Q146 333 145 327L93 32Q91 26 98 26H432Q442 26 440 16L439 10Q438 0 427 0H69Q59 0 61 10L177 670ZM359 766Q354 766 354 769T358 777L449 878Q458 888 468 888H479Q484 888 485 885T482 878L383 776Q377 770 374 768T364 766H359Z"  />
<glyph unicode="&#xCA;" horiz-adv-x="530" d="M177 670Q179 680 188 680H547Q557 680 555 670L554 664Q553 654 542 654H208Q202 654 201 648L152 366Q151 359 158 359H445Q455 359 453 349L452 343Q451 333 440 333H152Q146 333 145 327L93 32Q91 26 98 26H432Q442 26 440 16L439 10Q438 0 427 0H69Q59 0 61 10L177 670ZM469 756Q460 756 455 765L399 869H397L303 765Q295 756 286 756H281Q277 756 276 759T279 766L382 886Q390 895 398 895H403Q410 895 415 886L477 766Q479 762 478 759T473 756H469Z"  />
<glyph unicode="&#xCB;" horiz-adv-x="530" d="M177 670Q179 680 188 680H547Q557 680 555 670L554 664Q553 654 542 654H208Q202 654 201 648L152 366Q151 359 158 359H445Q455 359 453 349L452 343Q451 333 440 333H152Q146 333 145 327L93 32Q91 26 98 26H432Q442 26 440 16L439 10Q438 0 427 0H69Q59 0 61 10L177 670ZM472 796Q462 796 464 806L471 844Q473 854 482 854H504Q514 854 512 844L505 806Q503 796 494 796H472ZM279 796Q269 796 271 806L278 844Q280 854 289 854H311Q321 854 319 844L312 806Q310 796 301 796H279Z"  />
<glyph unicode="&#xCC;" horiz-adv-x="225" d="M177 670Q179 680 188 680H197Q207 680 205 670L89 10Q87 0 78 0H69Q59 0 61 10L177 670ZM205 766Q199 766 197 767T189 776L125 878Q123 882 124 885T130 888H140Q146 888 149 886T155 878L213 776Q216 771 215 769T208 766H205Z"  />
<glyph unicode="&#xCD;" horiz-adv-x="225" d="M177 670Q179 680 188 680H197Q207 680 205 670L89 10Q87 0 78 0H69Q59 0 61 10L177 670ZM205 766Q200 766 200 769T204 777L295 878Q304 888 314 888H325Q330 888 331 885T328 878L229 776Q223 770 220 768T210 766H205Z"  />
<glyph unicode="&#xCE;" horiz-adv-x="225" d="M177 670Q179 680 188 680H197Q207 680 205 670L89 10Q87 0 78 0H69Q59 0 61 10L177 670ZM301 756Q292 756 287 765L231 869H229L135 765Q127 756 118 756H113Q109 756 108 759T111 766L214 886Q222 895 230 895H235Q242 895 247 886L309 766Q311 762 310 759T305 756H301Z"  />
<glyph unicode="&#xCF;" horiz-adv-x="225" d="M177 670Q179 680 188 680H197Q207 680 205 670L89 10Q87 0 78 0H69Q59 0 61 10L177 670ZM308 796Q298 796 300 806L307 844Q309 854 318 854H340Q350 854 348 844L341 806Q339 796 330 796H308ZM115 796Q105 796 107 806L114 844Q116 854 125 854H147Q157 854 155 844L148 806Q146 796 137 796H115Z"  />
<glyph unicode="&#xD0;" horiz-adv-x="605" d="M69 0Q59 0 61 10L117 328Q118 334 112 334H68Q58 334 60 344L61 349Q62 359 73 359H116Q121 359 123 365L177 670Q179 680 188 680H381Q468 680 516 639T564 507Q564 475 558 424T541 318T517 213T488 131Q453 60 399 30T262 0H69ZM264 26Q339 26 386 54T463 140Q477 169 490 217T514 318T530 421T536 504Q536 581 498 617T376 654H208Q202 654 201 648L151 365Q149 359 155 359H295Q305 359 303 349L302 344Q301 334 290 334H152Q146 334 145 328L93 32Q91 26 97 26H264Z"  />
<glyph unicode="&#xD1;" horiz-adv-x="623" d="M177 670Q179 680 188 680H196Q205 680 209 670L465 59H467L575 670Q577 680 586 680H595Q605 680 603 670L487 10Q485 0 476 0H469Q459 0 455 10L199 624H197L89 10Q87 0 78 0H69Q59 0 61 10L177 670ZM458 796Q442 796 430 802T407 817Q397 825 388 830T366 835Q352 835 338 826T308 801Q305 798 302 799T300 804L302 818Q303 822 304 824T311 832Q324 844 339 851T371 858Q387 858 399 852T422 837Q432 829 441 824T463 819Q477 819 491 828T521 853Q524 856 527 855T529 850L527 836Q526 832 525 830T518 822Q505 810 490 803T458 796Z"  />
<glyph unicode="&#xD2;" horiz-adv-x="580" d="M247 -10Q161 -10 115 39T68 178Q68 210 74 259T89 361T112 462T141 542Q178 618 233 654T369 690Q455 690 501 641T548 502Q548 470 542 421T527 319T504 218T475 138Q438 62 383 26T247 -10ZM251 16Q386 16 448 144Q463 175 476 222T499 320T514 418T520 497Q520 578 481 621T365 664Q230 664 168 536Q153 505 140 458T117 360T102 262T96 183Q96 102 135 59T251 16ZM380 766Q374 766 372 767T364 776L300 878Q298 882 299 885T305 888H315Q321 888 324 886T330 878L388 776Q391 771 390 769T383 766H380Z"  />
<glyph unicode="&#xD3;" horiz-adv-x="580" d="M247 -10Q161 -10 115 39T68 178Q68 210 74 259T89 361T112 462T141 542Q178 618 233 654T369 690Q455 690 501 641T548 502Q548 470 542 421T527 319T504 218T475 138Q438 62 383 26T247 -10ZM251 16Q386 16 448 144Q463 175 476 222T499 320T514 418T520 497Q520 578 481 621T365 664Q230 664 168 536Q153 505 140 458T117 360T102 262T96 183Q96 102 135 59T251 16ZM387 766Q382 766 382 769T386 777L477 878Q486 888 496 888H507Q512 888 513 885T510 878L411 776Q405 770 402 768T392 766H387Z"  />
<glyph unicode="&#xD4;" horiz-adv-x="580" d="M247 -10Q161 -10 115 39T68 178Q68 210 74 259T89 361T112 462T141 542Q178 618 233 654T369 690Q455 690 501 641T548 502Q548 470 542 421T527 319T504 218T475 138Q438 62 383 26T247 -10ZM251 16Q386 16 448 144Q463 175 476 222T499 320T514 418T520 497Q520 578 481 621T365 664Q230 664 168 536Q153 505 140 458T117 360T102 262T96 183Q96 102 135 59T251 16ZM480 767Q471 767 466 776L410 880H408L314 776Q306 767 297 767H292Q288 767 287 770T290 777L393 897Q401 906 409 906H414Q421 906 426 897L488 777Q490 773 489 770T484 767H480Z"  />
<glyph unicode="&#xD5;" horiz-adv-x="580" d="M247 -10Q161 -10 115 39T68 178Q68 210 74 259T89 361T112 462T141 542Q178 618 233 654T369 690Q455 690 501 641T548 502Q548 470 542 421T527 319T504 218T475 138Q438 62 383 26T247 -10ZM251 16Q386 16 448 144Q463 175 476 222T499 320T514 418T520 497Q520 578 481 621T365 664Q230 664 168 536Q153 505 140 458T117 360T102 262T96 183Q96 102 135 59T251 16ZM442 796Q426 796 414 802T391 817Q381 825 372 830T350 835Q336 835 322 826T292 801Q289 798 286 799T284 804L286 818Q287 822 288 824T295 832Q308 844 323 851T355 858Q371 858 383 852T406 837Q416 829 425 824T447 819Q461 819 475 828T505 853Q508 856 511 855T513 850L511 836Q510 832 509 830T502 822Q489 810 474 803T442 796Z"  />
<glyph unicode="&#xD6;" horiz-adv-x="580" d="M247 -10Q161 -10 115 39T68 178Q68 210 74 259T89 361T112 462T141 542Q178 618 233 654T369 690Q455 690 501 641T548 502Q548 470 542 421T527 319T504 218T475 138Q438 62 383 26T247 -10ZM251 16Q386 16 448 144Q463 175 476 222T499 320T514 418T520 497Q520 578 481 621T365 664Q230 664 168 536Q153 505 140 458T117 360T102 262T96 183Q96 102 135 59T251 16ZM478 796Q468 796 470 806L477 844Q479 854 488 854H510Q520 854 518 844L511 806Q509 796 500 796H478ZM285 796Q275 796 277 806L284 844Q286 854 295 854H317Q327 854 325 844L318 806Q316 796 307 796H285Z"  />
<glyph unicode="&#xD7;" horiz-adv-x="503" d="M411 122Q404 115 397 122L264 254Q260 258 256 254L124 122Q117 115 110 122L106 126Q99 133 106 140L239 272Q243 276 239 280L106 412Q99 419 106 426L110 430Q117 437 124 430L256 298Q260 294 264 298L397 430Q404 437 411 430L415 426Q422 419 415 412L282 280Q278 276 282 272L415 140Q422 133 415 126L411 122Z"  />
<glyph unicode="&#xD8;" horiz-adv-x="580" d="M42 -30Q31 -30 38 -20L97 61Q82 84 75 113T68 178Q68 210 74 259T89 361T112 462T141 542Q178 618 233 654T369 690Q459 690 505 636L551 700Q558 710 567 710H575Q586 710 579 700L519 617Q548 571 548 502Q548 470 542 421T527 319T504 218T475 138Q438 62 383 26T247 -10Q157 -10 111 44L66 -20Q59 -30 50 -30H42ZM96 183Q96 125 115 87L488 611Q447 664 365 664Q230 664 168 536Q153 505 140 458T117 360T102 262T96 183ZM251 16Q386 16 448 144Q463 175 476 222T499 320T514 418T520 497Q520 553 500 591L128 68Q168 16 251 16Z"  />
<glyph unicode="&#xD9;" horiz-adv-x="607" d="M273 -10Q169 -10 120 49T93 232L170 670Q172 680 181 680H190Q200 680 198 670L121 231Q84 16 275 16Q320 16 355 27T417 64T461 131T490 231L567 670Q569 680 578 680H587Q597 680 595 670L518 232Q507 167 487 122T437 47T366 4T273 -10ZM407 766Q401 766 399 767T391 776L327 878Q325 882 326 885T332 888H342Q348 888 351 886T357 878L415 776Q418 771 417 769T410 766H407Z"  />
<glyph unicode="&#xDA;" horiz-adv-x="607" d="M273 -10Q169 -10 120 49T93 232L170 670Q172 680 181 680H190Q200 680 198 670L121 231Q84 16 275 16Q320 16 355 27T417 64T461 131T490 231L567 670Q569 680 578 680H587Q597 680 595 670L518 232Q507 167 487 122T437 47T366 4T273 -10ZM375 766Q370 766 370 769T374 777L465 878Q474 888 484 888H495Q500 888 501 885T498 878L399 776Q393 770 390 768T380 766H375Z"  />
<glyph unicode="&#xDB;" horiz-adv-x="607" d="M273 -10Q169 -10 120 49T93 232L170 670Q172 680 181 680H190Q200 680 198 670L121 231Q84 16 275 16Q320 16 355 27T417 64T461 131T490 231L567 670Q569 680 578 680H587Q597 680 595 670L518 232Q507 167 487 122T437 47T366 4T273 -10ZM496 756Q487 756 482 765L426 869H424L330 765Q322 756 313 756H308Q304 756 303 759T306 766L409 886Q417 895 425 895H430Q437 895 442 886L504 766Q506 762 505 759T500 756H496Z"  />
<glyph unicode="&#xDC;" horiz-adv-x="607" d="M273 -10Q169 -10 120 49T93 232L170 670Q172 680 181 680H190Q200 680 198 670L121 231Q84 16 275 16Q320 16 355 27T417 64T461 131T490 231L567 670Q569 680 578 680H587Q597 680 595 670L518 232Q507 167 487 122T437 47T366 4T273 -10ZM496 796Q486 796 488 806L495 844Q497 854 506 854H528Q538 854 536 844L529 806Q527 796 518 796H496ZM303 796Q293 796 295 806L302 844Q304 854 313 854H335Q345 854 343 844L336 806Q334 796 325 796H303Z"  />
<glyph unicode="&#xDD;" horiz-adv-x="486" d="M199 0Q189 0 191 10L238 280L110 668Q107 680 118 680H124Q134 680 138 670L256 314H258L502 670Q508 680 519 680H527Q532 680 533 677T532 668L266 279L219 10Q217 0 208 0H199ZM330 766Q325 766 325 769T329 777L420 878Q429 888 439 888H450Q455 888 456 885T453 878L354 776Q348 770 345 768T335 766H330Z"  />
<glyph unicode="&#xDE;" horiz-adv-x="555" d="M69 0Q59 0 61 10L177 670Q179 680 188 680H197Q207 680 205 670L181 532Q179 526 186 526H367Q448 526 490 489T533 385Q533 332 516 290T469 219T396 175T303 160H121Q115 160 114 154L89 10Q87 0 78 0H69ZM304 186Q397 187 451 237T506 383Q506 440 471 470T363 500H181Q175 500 174 494L121 192Q119 186 126 186H304Z"  />
<glyph unicode="&#xDF;" horiz-adv-x="520" d="M229 -6Q219 -6 221 4L222 9Q224 19 233 19H242Q293 19 328 36T383 96Q390 111 398 143T412 210T423 278T427 327Q427 376 400 397T315 418H304Q294 418 296 428L297 433Q299 443 309 443H324Q393 443 429 479T466 578Q466 620 437 642T348 665Q270 665 229 626T172 498L86 10Q84 0 75 0H67Q57 0 59 10L145 500Q161 594 209 642T352 690Q423 690 457 661T492 580Q492 556 486 533T468 489T437 453T391 431V429Q424 417 438 392T453 331Q453 313 449 279T438 207T423 136T406 86Q380 33 338 14T237 -6H229Z"  />
<glyph unicode="&#xE0;" horiz-adv-x="488" d="M341 0Q331 0 333 10L343 66H342Q324 34 283 12T182 -10Q118 -10 85 21T51 103Q51 181 100 221T245 262H371Q376 262 378 268L390 332Q396 367 395 391T382 430T348 452T287 459Q243 459 212 448T160 418Q151 410 145 416L139 422Q133 428 140 435Q166 458 203 471T291 484Q371 484 401 451T417 332L360 10Q358 0 349 0H341ZM189 15Q221 15 249 24T300 51T336 91T356 141L372 231Q373 237 368 237H246Q156 237 117 201T78 105Q78 63 105 39T189 15ZM315 560Q309 560 307 562T300 570L241 690Q239 694 241 697T248 700H257Q263 700 265 698T270 690L324 570Q326 565 324 563T317 560H315Z"  />
<glyph unicode="&#xE1;" horiz-adv-x="488" d="M341 0Q331 0 333 10L343 66H342Q324 34 283 12T182 -10Q118 -10 85 21T51 103Q51 181 100 221T245 262H371Q376 262 378 268L390 332Q396 367 395 391T382 430T348 452T287 459Q243 459 212 448T160 418Q151 410 145 416L139 422Q133 428 140 435Q166 458 203 471T291 484Q371 484 401 451T417 332L360 10Q358 0 349 0H341ZM189 15Q221 15 249 24T300 51T336 91T356 141L372 231Q373 237 368 237H246Q156 237 117 201T78 105Q78 63 105 39T189 15ZM296 560Q285 560 293 570L387 690Q395 700 405 700H416Q421 700 422 697T420 690L318 570Q313 564 310 562T300 560H296Z"  />
<glyph unicode="&#xE2;" horiz-adv-x="488" d="M341 0Q331 0 333 10L343 66H342Q324 34 283 12T182 -10Q118 -10 85 21T51 103Q51 181 100 221T245 262H371Q376 262 378 268L390 332Q396 367 395 391T382 430T348 452T287 459Q243 459 212 448T160 418Q151 410 145 416L139 422Q133 428 140 435Q166 458 203 471T291 484Q371 484 401 451T417 332L360 10Q358 0 349 0H341ZM189 15Q221 15 249 24T300 51T336 91T356 141L372 231Q373 237 368 237H246Q156 237 117 201T78 105Q78 63 105 39T189 15ZM410 561Q401 561 396 570L340 674H338L244 570Q236 561 227 561H222Q218 561 217 564T220 571L323 691Q331 700 339 700H344Q351 700 356 691L418 571Q420 567 419 564T414 561H410Z"  />
<glyph unicode="&#xE3;" horiz-adv-x="488" d="M341 0Q331 0 333 10L343 66H342Q324 34 283 12T182 -10Q118 -10 85 21T51 103Q51 181 100 221T245 262H371Q376 262 378 268L390 332Q396 367 395 391T382 430T348 452T287 459Q243 459 212 448T160 418Q151 410 145 416L139 422Q133 428 140 435Q166 458 203 471T291 484Q371 484 401 451T417 332L360 10Q358 0 349 0H341ZM189 15Q221 15 249 24T300 51T336 91T356 141L372 231Q373 237 368 237H246Q156 237 117 201T78 105Q78 63 105 39T189 15ZM376 615Q360 615 348 621T325 636Q315 644 306 649T284 654Q270 654 256 645T226 620Q223 617 220 618T218 623L220 637Q221 641 222 643T229 651Q242 663 257 670T289 677Q305 677 317 671T340 656Q350 648 359 643T381 638Q395 638 409 647T439 672Q442 675 445 674T447 669L445 655Q444 651 443 649T436 641Q423 629 408 622T376 615Z"  />
<glyph unicode="&#xE4;" horiz-adv-x="488" d="M341 0Q331 0 333 10L343 66H342Q324 34 283 12T182 -10Q118 -10 85 21T51 103Q51 181 100 221T245 262H371Q376 262 378 268L390 332Q396 367 395 391T382 430T348 452T287 459Q243 459 212 448T160 418Q151 410 145 416L139 422Q133 428 140 435Q166 458 203 471T291 484Q371 484 401 451T417 332L360 10Q358 0 349 0H341ZM189 15Q221 15 249 24T300 51T336 91T356 141L372 231Q373 237 368 237H246Q156 237 117 201T78 105Q78 63 105 39T189 15ZM415 622Q405 622 407 632L414 670Q416 680 425 680H447Q457 680 455 670L448 632Q446 622 437 622H415ZM222 622Q212 622 214 632L221 670Q223 680 232 680H254Q264 680 262 670L255 632Q253 622 244 622H222Z"  />
<glyph unicode="&#xE5;" horiz-adv-x="488" d="M341 0Q331 0 333 10L343 66H342Q324 34 283 12T182 -10Q118 -10 85 21T51 103Q51 181 100 221T245 262H371Q376 262 378 268L390 332Q396 367 395 391T382 430T348 452T287 459Q243 459 212 448T160 418Q151 410 145 416L139 422Q133 428 140 435Q166 458 203 471T291 484Q371 484 401 451T417 332L360 10Q358 0 349 0H341ZM189 15Q221 15 249 24T300 51T336 91T356 141L372 231Q373 237 368 237H246Q156 237 117 201T78 105Q78 63 105 39T189 15ZM315 548Q286 548 268 567T249 615Q249 655 275 682T344 710Q373 710 391 691T410 643Q410 603 384 576T315 548ZM320 570Q347 570 366 590T386 640Q386 661 374 674T339 688Q312 688 293 668T273 618Q273 597 285 584T320 570Z"  />
<glyph unicode="&#xE6;" horiz-adv-x="777" d="M509 -10Q444 -10 412 18T368 92H367Q338 38 291 14T182 -10Q118 -10 85 21T51 103Q51 181 100 221T245 262H371Q376 262 378 268L390 332Q396 367 395 391T382 430T348 452T287 459Q243 459 212 448T160 418Q151 410 145 416L139 422Q133 428 140 435Q166 458 203 471T291 484Q357 484 388 462T421 387H422Q451 435 493 459T590 484Q653 484 691 446T730 333Q730 316 728 297T721 247Q719 237 709 237H407Q400 237 399 231Q394 204 392 185T390 142Q390 84 419 50T511 15Q559 15 596 35T661 86Q669 94 675 89L681 84Q687 77 680 70Q649 34 606 12T509 -10ZM691 262Q696 262 698 268Q704 301 704 329Q704 394 675 426T588 459Q537 459 496 431T430 352Q422 335 416 313T405 268Q403 262 410 262H691ZM189 15Q221 15 249 24T300 51T336 91T356 141L372 231Q373 237 368 237H246Q156 237 117 201T78 105Q78 63 105 39T189 15Z"  />
<glyph unicode="&#xE7;" horiz-adv-x="450" d="M112 -144Q101 -144 106 -134L175 -9Q115 -3 85 38T55 149Q55 206 67 261T101 362Q130 420 176 452T283 484Q337 484 370 459T416 388Q419 379 411 375L404 372Q395 368 392 377Q379 420 352 439T279 459Q236 459 194 432T127 354Q115 328 106 301T92 247T85 197T82 155Q82 89 109 52T200 15Q239 15 274 33T344 97Q350 105 358 99L363 95Q370 89 363 80Q329 35 290 13T200 -10L137 -134Q132 -144 120 -144H112Z"  />
<glyph unicode="&#xE8;" horiz-adv-x="469" d="M201 -10Q129 -10 92 30T55 142Q55 198 66 257T101 365Q129 423 175 453T282 484Q345 484 383 446T422 333Q422 316 420 297T413 247Q411 237 401 237H97Q90 237 89 231Q84 204 83 185T82 142Q82 84 111 50T203 15Q251 15 288 35T353 86Q361 94 367 89L373 84Q379 77 372 70Q341 34 298 12T201 -10ZM383 262Q388 262 390 268Q396 301 396 329Q396 394 367 426T280 459Q229 459 190 433T125 355Q117 338 110 315T97 268Q95 262 102 262H383ZM293 560Q287 560 285 562T278 570L219 690Q217 694 219 697T226 700H235Q241 700 243 698T248 690L302 570Q304 565 302 563T295 560H293Z"  />
<glyph unicode="&#xE9;" horiz-adv-x="469" d="M201 -10Q129 -10 92 30T55 142Q55 198 66 257T101 365Q129 423 175 453T282 484Q345 484 383 446T422 333Q422 316 420 297T413 247Q411 237 401 237H97Q90 237 89 231Q84 204 83 185T82 142Q82 84 111 50T203 15Q251 15 288 35T353 86Q361 94 367 89L373 84Q379 77 372 70Q341 34 298 12T201 -10ZM383 262Q388 262 390 268Q396 301 396 329Q396 394 367 426T280 459Q229 459 190 433T125 355Q117 338 110 315T97 268Q95 262 102 262H383ZM284 560Q273 560 281 570L375 690Q383 700 393 700H404Q409 700 410 697T408 690L306 570Q301 564 298 562T288 560H284Z"  />
<glyph unicode="&#xEA;" horiz-adv-x="469" d="M201 -10Q129 -10 92 30T55 142Q55 198 66 257T101 365Q129 423 175 453T282 484Q345 484 383 446T422 333Q422 316 420 297T413 247Q411 237 401 237H97Q90 237 89 231Q84 204 83 185T82 142Q82 84 111 50T203 15Q251 15 288 35T353 86Q361 94 367 89L373 84Q379 77 372 70Q341 34 298 12T201 -10ZM383 262Q388 262 390 268Q396 301 396 329Q396 394 367 426T280 459Q229 459 190 433T125 355Q117 338 110 315T97 268Q95 262 102 262H383ZM390 561Q381 561 376 570L320 674H318L224 570Q216 561 207 561H202Q198 561 197 564T200 571L303 691Q311 700 319 700H324Q331 700 336 691L398 571Q400 567 399 564T394 561H390Z"  />
<glyph unicode="&#xEB;" horiz-adv-x="469" d="M201 -10Q129 -10 92 30T55 142Q55 198 66 257T101 365Q129 423 175 453T282 484Q345 484 383 446T422 333Q422 316 420 297T413 247Q411 237 401 237H97Q90 237 89 231Q84 204 83 185T82 142Q82 84 111 50T203 15Q251 15 288 35T353 86Q361 94 367 89L373 84Q379 77 372 70Q341 34 298 12T201 -10ZM383 262Q388 262 390 268Q396 301 396 329Q396 394 367 426T280 459Q229 459 190 433T125 355Q117 338 110 315T97 268Q95 262 102 262H383ZM394 622Q384 622 386 632L393 670Q395 680 404 680H426Q436 680 434 670L427 632Q425 622 416 622H394ZM201 622Q191 622 193 632L200 670Q202 680 211 680H233Q243 680 241 670L234 632Q232 622 223 622H201Z"  />
<glyph unicode="&#xEC;" horiz-adv-x="221" d="M67 0Q57 0 59 10L139 464Q141 474 150 474H158Q168 474 166 464L86 10Q84 0 75 0H67ZM164 560Q158 560 156 562T149 570L90 690Q88 694 90 697T97 700H106Q112 700 114 698T119 690L173 570Q175 565 173 563T166 560H164Z"  />
<glyph unicode="&#xED;" horiz-adv-x="221" d="M67 0Q57 0 59 10L139 464Q141 474 150 474H158Q168 474 166 464L86 10Q84 0 75 0H67ZM161 560Q150 560 158 570L252 690Q260 700 270 700H281Q286 700 287 697T285 690L183 570Q178 564 175 562T165 560H161Z"  />
<glyph unicode="&#xEE;" horiz-adv-x="221" d="M67 0Q57 0 59 10L139 464Q141 474 150 474H158Q168 474 166 464L86 10Q84 0 75 0H67ZM262 561Q253 561 248 570L192 674H190L96 570Q88 561 79 561H74Q70 561 69 564T72 571L175 691Q183 700 191 700H196Q203 700 208 691L270 571Q272 567 271 564T266 561H262Z"  />
<glyph unicode="&#xEF;" horiz-adv-x="221" d="M67 0Q57 0 59 10L139 464Q141 474 150 474H158Q168 474 166 464L86 10Q84 0 75 0H67ZM264 622Q254 622 256 632L263 670Q265 680 274 680H296Q306 680 304 670L297 632Q295 622 286 622H264ZM71 622Q61 622 63 632L70 670Q72 680 81 680H103Q113 680 111 670L104 632Q102 622 93 622H71Z"  />
<glyph unicode="&#xF0;" horiz-adv-x="480" d="M310 598L406 627Q418 630 418 621V615Q418 606 409 603L323 577L377 488Q404 443 417 405T430 323Q430 297 426 266T414 204T399 148T382 105Q353 45 307 18T201 -10Q126 -10 91 32T55 147Q55 175 59 207T71 270T86 326T103 369Q132 429 177 456T282 484Q311 484 331 477T366 457H367L297 570L199 541Q187 538 187 547V553Q187 562 196 565L284 591L236 670Q234 674 235 677T241 680H251Q257 680 260 678T267 670L310 598ZM205 15Q256 15 295 40T360 119Q366 132 373 156T387 208T398 266T403 320Q403 387 374 423T280 459Q229 459 190 434T125 355Q119 342 112 318T98 266T87 208T82 154Q82 87 110 51T205 15Z"  />
<glyph unicode="&#xF1;" horiz-adv-x="516" d="M367 0Q358 0 360 10L412 294Q427 382 401 420T306 459Q279 459 252 449T202 419T162 373T139 311L86 10Q84 0 75 0H66Q57 0 59 10L139 464Q141 474 150 474H158Q168 474 166 464L155 400H156Q182 440 222 462T311 484Q389 484 423 439T440 301L387 10Q385 0 376 0H367ZM369 615Q353 615 341 621T318 636Q308 644 299 649T277 654Q263 654 249 645T219 620Q216 617 213 618T211 623L213 637Q214 641 215 643T222 651Q235 663 250 670T282 677Q298 677 310 671T333 656Q343 648 352 643T374 638Q388 638 402 647T432 672Q435 675 438 674T440 669L438 655Q437 651 436 649T429 641Q416 629 401 622T369 615Z"  />
<glyph unicode="&#xF2;" horiz-adv-x="479" d="M201 -10Q126 -10 91 32T55 147Q55 175 59 207T71 270T86 326T103 369Q132 429 178 456T284 484Q359 484 394 442T430 327Q430 298 426 266T414 204T399 148T382 105Q353 45 307 18T201 -10ZM205 15Q256 15 295 40T360 119Q366 132 373 156T387 208T398 266T403 320Q403 387 375 423T280 459Q229 459 190 434T125 355Q119 342 112 318T98 266T87 208T82 154Q82 87 110 51T205 15ZM304 560Q298 560 296 562T289 570L230 690Q228 694 230 697T237 700H246Q252 700 254 698T259 690L313 570Q315 565 313 563T306 560H304Z"  />
<glyph unicode="&#xF3;" horiz-adv-x="479" d="M201 -10Q126 -10 91 32T55 147Q55 175 59 207T71 270T86 326T103 369Q132 429 178 456T284 484Q359 484 394 442T430 327Q430 298 426 266T414 204T399 148T382 105Q353 45 307 18T201 -10ZM205 15Q256 15 295 40T360 119Q366 132 373 156T387 208T398 266T403 320Q403 387 375 423T280 459Q229 459 190 434T125 355Q119 342 112 318T98 266T87 208T82 154Q82 87 110 51T205 15ZM286 560Q275 560 283 570L377 690Q385 700 395 700H406Q411 700 412 697T410 690L308 570Q303 564 300 562T290 560H286Z"  />
<glyph unicode="&#xF4;" horiz-adv-x="479" d="M201 -10Q126 -10 91 32T55 147Q55 175 59 207T71 270T86 326T103 369Q132 429 178 456T284 484Q359 484 394 442T430 327Q430 298 426 266T414 204T399 148T382 105Q353 45 307 18T201 -10ZM205 15Q256 15 295 40T360 119Q366 132 373 156T387 208T398 266T403 320Q403 387 375 423T280 459Q229 459 190 434T125 355Q119 342 112 318T98 266T87 208T82 154Q82 87 110 51T205 15ZM398 561Q389 561 384 570L328 674H326L232 570Q224 561 215 561H210Q206 561 205 564T208 571L311 691Q319 700 327 700H332Q339 700 344 691L406 571Q408 567 407 564T402 561H398Z"  />
<glyph unicode="&#xF5;" horiz-adv-x="479" d="M201 -10Q126 -10 91 32T55 147Q55 175 59 207T71 270T86 326T103 369Q132 429 178 456T284 484Q359 484 394 442T430 327Q430 298 426 266T414 204T399 148T382 105Q353 45 307 18T201 -10ZM205 15Q256 15 295 40T360 119Q366 132 373 156T387 208T398 266T403 320Q403 387 375 423T280 459Q229 459 190 434T125 355Q119 342 112 318T98 266T87 208T82 154Q82 87 110 51T205 15ZM363 615Q347 615 335 621T312 636Q302 644 293 649T271 654Q257 654 243 645T213 620Q210 617 207 618T205 623L207 637Q208 641 209 643T216 651Q229 663 244 670T276 677Q292 677 304 671T327 656Q337 648 346 643T368 638Q382 638 396 647T426 672Q429 675 432 674T434 669L432 655Q431 651 430 649T423 641Q410 629 395 622T363 615Z"  />
<glyph unicode="&#xF6;" horiz-adv-x="479" d="M201 -10Q126 -10 91 32T55 147Q55 175 59 207T71 270T86 326T103 369Q132 429 178 456T284 484Q359 484 394 442T430 327Q430 298 426 266T414 204T399 148T382 105Q353 45 307 18T201 -10ZM205 15Q256 15 295 40T360 119Q366 132 373 156T387 208T398 266T403 320Q403 387 375 423T280 459Q229 459 190 434T125 355Q119 342 112 318T98 266T87 208T82 154Q82 87 110 51T205 15ZM402 622Q392 622 394 632L401 670Q403 680 412 680H434Q444 680 442 670L435 632Q433 622 424 622H402ZM209 622Q199 622 201 632L208 670Q210 680 219 680H241Q251 680 249 670L242 632Q240 622 231 622H209Z"  />
<glyph unicode="&#xF7;" horiz-adv-x="503" d="M251 374Q237 374 228 383T219 406Q219 420 228 429T251 438Q265 438 274 429T283 406Q283 392 274 383T251 374ZM71 264Q61 264 61 274V279Q61 289 71 289H432Q442 289 442 279V274Q442 264 432 264H71ZM251 113Q237 113 228 122T219 145Q219 159 228 168T251 177Q265 177 274 168T283 145Q283 131 274 122T251 113Z"  />
<glyph unicode="&#xF8;" horiz-adv-x="479" d="M24 -30Q19 -30 19 -27T21 -20L78 49Q55 86 55 147Q55 175 59 207T71 270T86 326T103 369Q132 429 178 456T284 484Q356 484 393 442L435 494Q440 500 443 502T451 504H459Q464 504 464 501T463 494L407 424Q430 386 430 327Q430 298 426 266T414 204T399 148T382 105Q353 45 307 18T201 -10Q128 -10 91 32L48 -20Q40 -30 32 -30H24ZM82 154Q82 105 96 74L375 421Q345 459 280 459Q229 459 190 434T125 355Q119 342 112 318T98 266T87 208T82 154ZM205 15Q256 15 295 40T360 119Q366 132 373 156T387 208T398 266T403 320Q403 368 388 401L109 53Q139 15 205 15Z"  />
<glyph unicode="&#xF9;" horiz-adv-x="510" d="M152 474Q161 474 159 464L107 180Q92 92 117 54T210 15Q236 15 262 25T312 55T352 101T375 163L428 464Q430 474 439 474H448Q457 474 455 464L375 10Q373 0 364 0H356Q346 0 348 10L359 74H358Q332 34 292 12T205 -10Q129 -10 96 35T79 173L132 464Q134 474 143 474H152ZM323 560Q317 560 315 562T308 570L249 690Q247 694 249 697T256 700H265Q271 700 273 698T278 690L332 570Q334 565 332 563T325 560H323Z"  />
<glyph unicode="&#xFA;" horiz-adv-x="510" d="M152 474Q161 474 159 464L107 180Q92 92 117 54T210 15Q236 15 262 25T312 55T352 101T375 163L428 464Q430 474 439 474H448Q457 474 455 464L375 10Q373 0 364 0H356Q346 0 348 10L359 74H358Q332 34 292 12T205 -10Q129 -10 96 35T79 173L132 464Q134 474 143 474H152ZM289 560Q278 560 286 570L380 690Q388 700 398 700H409Q414 700 415 697T413 690L311 570Q306 564 303 562T293 560H289Z"  />
<glyph unicode="&#xFB;" horiz-adv-x="510" d="M152 474Q161 474 159 464L107 180Q92 92 117 54T210 15Q236 15 262 25T312 55T352 101T375 163L428 464Q430 474 439 474H448Q457 474 455 464L375 10Q373 0 364 0H356Q346 0 348 10L359 74H358Q332 34 292 12T205 -10Q129 -10 96 35T79 173L132 464Q134 474 143 474H152ZM403 561Q394 561 389 570L333 674H331L237 570Q229 561 220 561H215Q211 561 210 564T213 571L316 691Q324 700 332 700H337Q344 700 349 691L411 571Q413 567 412 564T407 561H403Z"  />
<glyph unicode="&#xFC;" horiz-adv-x="510" d="M152 474Q161 474 159 464L107 180Q92 92 117 54T210 15Q236 15 262 25T312 55T352 101T375 163L428 464Q430 474 439 474H448Q457 474 455 464L375 10Q373 0 364 0H356Q346 0 348 10L359 74H358Q332 34 292 12T205 -10Q129 -10 96 35T79 173L132 464Q134 474 143 474H152ZM405 622Q395 622 397 632L404 670Q406 680 415 680H437Q447 680 445 670L438 632Q436 622 427 622H405ZM212 622Q202 622 204 632L211 670Q213 680 222 680H244Q254 680 252 670L245 632Q243 622 234 622H212Z"  />
<glyph unicode="&#xFD;" horiz-adv-x="441" d="M4 -180Q-6 -180 -4 -170L-3 -165Q-2 -155 9 -155H25Q40 -155 53 -151T79 -134T106 -101T139 -46L168 7L80 464Q78 474 88 474H96Q106 474 107 464L187 44H188L415 464Q420 474 429 474H439Q449 474 444 464L162 -55Q140 -95 122 -119T88 -157T55 -175T19 -180H4ZM260 560Q249 560 257 570L351 690Q359 700 369 700H380Q385 700 386 697T384 690L282 570Q277 564 274 562T264 560H260Z"  />
<glyph unicode="&#xFE;" horiz-adv-x="503" d="M230 -10Q175 -10 143 17T99 82H98L54 -170Q52 -180 43 -180H35Q25 -180 27 -170L175 670Q177 680 186 680H194Q204 680 202 670L154 397H155Q178 433 216 458T314 484Q383 484 417 444T452 331Q452 300 447 266T435 201T419 144T403 103Q349 -10 230 -10ZM232 15Q283 15 319 40T379 113Q390 135 398 163T413 220T422 278T425 330Q425 358 419 381T400 422T364 449T309 459Q263 459 223 435T155 353Q150 342 143 316T130 257T119 192T114 138Q114 84 144 50T232 15Z"  />
<glyph unicode="&#xFF;" horiz-adv-x="441" d="M4 -180Q-6 -180 -4 -170L-3 -165Q-2 -155 9 -155H25Q40 -155 53 -151T79 -134T106 -101T139 -46L168 7L80 464Q78 474 88 474H96Q106 474 107 464L187 44H188L415 464Q420 474 429 474H439Q449 474 444 464L162 -55Q140 -95 122 -119T88 -157T55 -175T19 -180H4ZM378 622Q368 622 370 632L377 670Q379 680 388 680H410Q420 680 418 670L411 632Q409 622 400 622H378ZM185 622Q175 622 177 632L184 670Q186 680 195 680H217Q227 680 225 670L218 632Q216 622 207 622H185Z"  />
<glyph unicode="&#x100;" horiz-adv-x="567" d="M7 0Q-3 0 2 10L349 670Q354 680 361 680H371Q378 680 380 670L492 10Q494 0 483 0H475Q465 0 464 10L433 197H131L33 10Q28 0 19 0H7ZM428 223L360 630H358L145 223H428ZM280 812Q270 812 272 822L273 827Q274 837 284 837H509Q519 837 517 827L516 822Q515 812 505 812H280Z"  />
<glyph unicode="&#x101;" horiz-adv-x="488" d="M341 0Q331 0 333 10L343 66H342Q324 34 283 12T182 -10Q118 -10 85 21T51 103Q51 181 100 221T245 262H371Q376 262 378 268L390 332Q396 367 395 391T382 430T348 452T287 459Q243 459 212 448T160 418Q151 410 145 416L139 422Q133 428 140 435Q166 458 203 471T291 484Q371 484 401 451T417 332L360 10Q358 0 349 0H341ZM189 15Q221 15 249 24T300 51T336 91T356 141L372 231Q373 237 368 237H246Q156 237 117 201T78 105Q78 63 105 39T189 15ZM219 637Q209 637 211 647L212 652Q213 662 223 662H448Q458 662 456 652L455 647Q454 637 444 637H219Z"  />
<glyph unicode="&#x102;" horiz-adv-x="567" d="M7 0Q-3 0 2 10L349 670Q354 680 361 680H371Q378 680 380 670L492 10Q494 0 483 0H475Q465 0 464 10L433 197H131L33 10Q28 0 19 0H7ZM428 223L360 630H358L145 223H428ZM388 776Q344 776 320 801T293 869Q293 879 303 879H307Q317 879 317 869Q319 836 338 818T391 800Q424 800 449 819T488 869Q493 879 501 879H506Q516 879 513 869Q498 827 465 802T388 776Z"  />
<glyph unicode="&#x103;" horiz-adv-x="488" d="M341 0Q331 0 333 10L343 66H342Q324 34 283 12T182 -10Q118 -10 85 21T51 103Q51 181 100 221T245 262H371Q376 262 378 268L390 332Q396 367 395 391T382 430T348 452T287 459Q243 459 212 448T160 418Q151 410 145 416L139 422Q133 428 140 435Q166 458 203 471T291 484Q371 484 401 451T417 332L360 10Q358 0 349 0H341ZM189 15Q221 15 249 24T300 51T336 91T356 141L372 231Q373 237 368 237H246Q156 237 117 201T78 105Q78 63 105 39T189 15ZM323 580Q279 580 255 605T228 673Q228 683 238 683H242Q252 683 252 673Q254 640 273 622T326 604Q359 604 384 623T423 673Q428 683 436 683H441Q451 683 448 673Q433 631 400 606T323 580Z"  />
<glyph unicode="&#x104;" horiz-adv-x="567" d="M409 -161Q388 -161 375 -149T362 -115Q362 -101 367 -88T384 -60T415 -29T464 8L433 197H131L33 10Q28 0 19 0H7Q-3 0 2 10L349 670Q354 680 361 680H371Q378 680 380 670L492 10Q493 3 489 0Q457 -23 438 -40T408 -69T393 -92T389 -111Q389 -136 415 -136Q424 -136 431 -133T446 -125Q453 -120 457 -127L460 -133Q462 -139 454 -146Q447 -151 436 -156T409 -161ZM145 223H428L360 630H358L145 223Z"  />
<glyph unicode="&#x105;" horiz-adv-x="488" d="M273 -161Q252 -161 239 -149T226 -115Q226 -89 251 -60T333 10L343 66H342Q324 34 283 12T182 -10Q118 -10 85 21T51 103Q51 181 100 221T245 262H371Q376 262 378 268L390 332Q396 367 395 391T382 430T348 452T287 459Q243 459 212 448T160 418Q151 410 145 416L139 422Q133 428 140 435Q166 458 203 471T291 484Q371 484 401 451T417 332L360 10Q359 4 353 0Q322 -23 303 -39T272 -68T257 -91T253 -111Q253 -136 279 -136Q288 -136 295 -133T310 -125Q317 -120 321 -127L324 -133Q326 -139 318 -146Q311 -151 300 -156T273 -161ZM189 15Q221 15 249 24T300 51T336 91T356 141L372 231Q373 237 368 237H246Q156 237 117 201T78 105Q78 63 105 39T189 15Z"  />
<glyph unicode="&#x106;" horiz-adv-x="531" d="M67 178Q67 210 73 259T88 361T111 462T140 542Q178 620 230 655T357 690Q413 690 458 661T525 567Q528 559 520 556L512 553Q503 549 501 557Q481 612 444 638T355 664Q292 664 246 634T167 536Q152 505 139 458T116 360T101 262T95 183Q95 103 133 60T249 16Q309 16 351 42T429 121Q434 127 440 124L449 119Q455 115 450 106Q411 44 360 17T245 -10Q160 -10 114 39T67 178ZM374 766Q369 766 369 769T373 777L464 878Q473 888 483 888H494Q499 888 500 885T497 878L398 776Q392 770 389 768T379 766H374Z"  />
<glyph unicode="&#x107;" horiz-adv-x="450" d="M196 -10Q125 -10 90 31T55 149Q55 206 67 261T101 362Q130 420 176 452T283 484Q337 484 370 459T416 388Q419 379 411 375L404 372Q395 368 392 377Q379 420 352 439T279 459Q236 459 194 432T127 354Q115 328 106 301T92 247T85 197T82 155Q82 89 109 52T200 15Q239 15 274 33T344 97Q350 105 358 99L363 95Q370 89 363 80Q328 35 288 13T196 -10ZM308 560Q297 560 305 570L399 690Q407 700 417 700H428Q433 700 434 697T432 690L330 570Q325 564 322 562T312 560H308Z"  />
<glyph unicode="&#x108;" horiz-adv-x="531" d="M67 178Q67 210 73 259T88 361T111 462T140 542Q178 620 230 655T357 690Q413 690 458 661T525 567Q528 559 520 556L512 553Q503 549 501 557Q481 612 444 638T355 664Q292 664 246 634T167 536Q152 505 139 458T116 360T101 262T95 183Q95 103 133 60T249 16Q309 16 351 42T429 121Q434 127 440 124L449 119Q455 115 450 106Q411 44 360 17T245 -10Q160 -10 114 39T67 178ZM468 756Q459 756 454 765L398 869H396L302 765Q294 756 285 756H280Q276 756 275 759T278 766L381 886Q389 895 397 895H402Q409 895 414 886L476 766Q478 762 477 759T472 756H468Z"  />
<glyph unicode="&#x109;" horiz-adv-x="450" d="M196 -10Q125 -10 90 31T55 149Q55 206 67 261T101 362Q130 420 176 452T283 484Q337 484 370 459T416 388Q419 379 411 375L404 372Q395 368 392 377Q379 420 352 439T279 459Q236 459 194 432T127 354Q115 328 106 301T92 247T85 197T82 155Q82 89 109 52T200 15Q239 15 274 33T344 97Q350 105 358 99L363 95Q370 89 363 80Q328 35 288 13T196 -10ZM397 561Q388 561 383 570L327 674H325L231 570Q223 561 214 561H209Q205 561 204 564T207 571L310 691Q318 700 326 700H331Q338 700 343 691L405 571Q407 567 406 564T401 561H397Z"  />
<glyph unicode="&#x10A;" horiz-adv-x="531" d="M67 178Q67 210 73 259T88 361T111 462T140 542Q178 620 230 655T357 690Q413 690 458 661T525 567Q528 559 520 556L512 553Q503 549 501 557Q481 612 444 638T355 664Q292 664 246 634T167 536Q152 505 139 458T116 360T101 262T95 183Q95 103 133 60T249 16Q309 16 351 42T429 121Q434 127 440 124L449 119Q455 115 450 106Q411 44 360 17T245 -10Q160 -10 114 39T67 178ZM374 796Q364 796 366 806L373 844Q375 854 384 854H406Q416 854 414 844L407 806Q405 796 396 796H374Z"  />
<glyph unicode="&#x10B;" horiz-adv-x="450" d="M196 -10Q125 -10 90 31T55 149Q55 206 67 261T101 362Q130 420 176 452T283 484Q337 484 370 459T416 388Q419 379 411 375L404 372Q395 368 392 377Q379 420 352 439T279 459Q236 459 194 432T127 354Q115 328 106 301T92 247T85 197T82 155Q82 89 109 52T200 15Q239 15 274 33T344 97Q350 105 358 99L363 95Q370 89 363 80Q328 35 288 13T196 -10ZM306 622Q296 622 298 632L305 670Q307 680 316 680H338Q348 680 346 670L339 632Q337 622 328 622H306Z"  />
<glyph unicode="&#x10C;" horiz-adv-x="531" d="M67 178Q67 210 73 259T88 361T111 462T140 542Q178 620 230 655T357 690Q413 690 458 661T525 567Q528 559 520 556L512 553Q503 549 501 557Q481 612 444 638T355 664Q292 664 246 634T167 536Q152 505 139 458T116 360T101 262T95 183Q95 103 133 60T249 16Q309 16 351 42T429 121Q434 127 440 124L449 119Q455 115 450 106Q411 44 360 17T245 -10Q160 -10 114 39T67 178ZM373 756Q365 756 361 765L299 885Q297 889 298 892T303 895H307Q316 895 321 886L377 782H379L473 886Q481 895 490 895H495Q499 895 500 892T497 885L394 765Q386 756 378 756H373Z"  />
<glyph unicode="&#x10D;" horiz-adv-x="450" d="M196 -10Q125 -10 90 31T55 149Q55 206 67 261T101 362Q130 420 176 452T283 484Q337 484 370 459T416 388Q419 379 411 375L404 372Q395 368 392 377Q379 420 352 439T279 459Q236 459 194 432T127 354Q115 328 106 301T92 247T85 197T82 155Q82 89 109 52T200 15Q239 15 274 33T344 97Q350 105 358 99L363 95Q370 89 363 80Q328 35 288 13T196 -10ZM301 561Q293 561 289 570L227 690Q225 694 226 697T231 700H235Q244 700 249 691L305 587H307L401 691Q409 700 418 700H423Q427 700 428 697T425 690L322 570Q314 561 306 561H301Z"  />
<glyph unicode="&#x10E;" horiz-adv-x="605" d="M177 670Q179 680 188 680H381Q468 680 516 639T564 507Q564 475 558 424T541 318T517 213T488 131Q453 60 399 30T262 0H69Q59 0 61 10L177 670ZM93 32Q91 26 97 26H264Q339 26 386 54T463 140Q477 169 490 217T514 318T530 421T536 504Q536 581 498 617T376 654H208Q202 654 201 648L93 32ZM376 756Q368 756 364 765L302 885Q300 889 301 892T306 895H310Q319 895 324 886L380 782H382L476 886Q484 895 493 895H498Q502 895 503 892T500 885L397 765Q389 756 381 756H376Z"  />
<glyph unicode="&#x10F;" horiz-adv-x="503" d="M349 0Q339 0 341 10L353 77H352Q329 41 291 16T193 -10Q124 -10 90 30T55 143Q55 174 60 208T72 273T87 330T104 371Q158 484 277 484Q332 484 364 457T408 392H409L457 670Q459 680 468 680H476Q486 680 484 670L368 10Q366 0 357 0H349ZM198 15Q244 15 284 39T352 121Q357 131 364 158T377 217T388 281T393 336Q393 390 363 424T275 459Q224 459 188 434T128 361Q117 339 109 311T94 254T85 196T82 144Q82 116 88 93T107 52T143 25T198 15ZM540 554Q531 554 533 563L552 670Q554 680 563 680H573Q583 680 581 670L569 606Q567 598 566 595T562 584L551 563Q546 554 540 554Z"  />
<glyph unicode="&#x110;" horiz-adv-x="605" d="M69 0Q59 0 61 10L117 328Q118 334 112 334H68Q58 334 60 344L61 349Q62 359 73 359H116Q121 359 123 365L177 670Q179 680 188 680H381Q468 680 516 639T564 507Q564 475 558 424T541 318T517 213T488 131Q453 60 399 30T262 0H69ZM264 26Q339 26 386 54T463 140Q477 169 490 217T514 318T530 421T536 504Q536 581 498 617T376 654H208Q202 654 201 648L151 365Q149 359 155 359H295Q305 359 303 349L302 344Q301 334 290 334H152Q146 334 145 328L93 32Q91 26 97 26H264Z"  />
<glyph unicode="&#x111;" horiz-adv-x="503" d="M349 0Q339 0 341 10L353 77H352Q329 41 291 16T193 -10Q124 -10 90 30T55 143Q55 174 60 208T72 273T87 330T104 371Q158 484 277 484Q332 484 364 457T408 392H409L439 567Q440 573 434 573H300Q290 573 292 583L293 588Q294 597 305 597H438Q443 597 445 603L457 670Q459 680 468 680H476Q486 680 484 670L472 603Q470 597 477 597H512Q522 597 520 587L519 582Q517 573 507 573H473Q467 573 466 567L368 10Q366 0 357 0H349ZM198 15Q244 15 284 39T352 121Q357 131 364 158T377 217T388 281T393 336Q393 390 363 424T275 459Q224 459 188 434T128 361Q117 339 109 311T94 254T85 196T82 144Q82 116 88 93T107 52T143 25T198 15Z"  />
<glyph unicode="&#x112;" horiz-adv-x="530" d="M177 670Q179 680 188 680H547Q557 680 555 670L554 664Q553 654 542 654H208Q202 654 201 648L152 366Q151 359 158 359H445Q455 359 453 349L452 343Q451 333 440 333H152Q146 333 145 327L93 32Q91 26 98 26H432Q442 26 440 16L439 10Q438 0 427 0H69Q59 0 61 10L177 670ZM277 812Q267 812 269 822L270 827Q271 837 281 837H506Q516 837 514 827L513 822Q512 812 502 812H277Z"  />
<glyph unicode="&#x113;" horiz-adv-x="469" d="M201 -10Q129 -10 92 30T55 142Q55 198 66 257T101 365Q129 423 175 453T282 484Q345 484 383 446T422 333Q422 316 420 297T413 247Q411 237 401 237H97Q90 237 89 231Q84 204 83 185T82 142Q82 84 111 50T203 15Q251 15 288 35T353 86Q361 94 367 89L373 84Q379 77 372 70Q341 34 298 12T201 -10ZM383 262Q388 262 390 268Q396 301 396 329Q396 394 367 426T280 459Q229 459 190 433T125 355Q117 338 110 315T97 268Q95 262 102 262H383ZM198 637Q188 637 190 647L191 652Q192 662 202 662H427Q437 662 435 652L434 647Q433 637 423 637H198Z"  />
<glyph unicode="&#x114;" horiz-adv-x="530" d="M177 670Q179 680 188 680H547Q557 680 555 670L554 664Q553 654 542 654H208Q202 654 201 648L152 366Q151 359 158 359H445Q455 359 453 349L452 343Q451 333 440 333H152Q146 333 145 327L93 32Q91 26 98 26H432Q442 26 440 16L439 10Q438 0 427 0H69Q59 0 61 10L177 670ZM384 776Q340 776 316 801T289 869Q289 879 299 879H303Q313 879 313 869Q315 836 334 818T387 800Q420 800 445 819T484 869Q489 879 497 879H502Q512 879 509 869Q494 827 461 802T384 776Z"  />
<glyph unicode="&#x115;" horiz-adv-x="469" d="M201 -10Q129 -10 92 30T55 142Q55 198 66 257T101 365Q129 423 175 453T282 484Q345 484 383 446T422 333Q422 316 420 297T413 247Q411 237 401 237H97Q90 237 89 231Q84 204 83 185T82 142Q82 84 111 50T203 15Q251 15 288 35T353 86Q361 94 367 89L373 84Q379 77 372 70Q341 34 298 12T201 -10ZM383 262Q388 262 390 268Q396 301 396 329Q396 394 367 426T280 459Q229 459 190 433T125 355Q117 338 110 315T97 268Q95 262 102 262H383ZM302 580Q258 580 234 605T207 673Q207 683 217 683H221Q231 683 231 673Q233 640 252 622T305 604Q338 604 363 623T402 673Q407 683 415 683H420Q430 683 427 673Q412 631 379 606T302 580Z"  />
<glyph unicode="&#x116;" horiz-adv-x="530" d="M177 670Q179 680 188 680H547Q557 680 555 670L554 664Q553 654 542 654H208Q202 654 201 648L152 366Q151 359 158 359H445Q455 359 453 349L452 343Q451 333 440 333H152Q146 333 145 327L93 32Q91 26 98 26H432Q442 26 440 16L439 10Q438 0 427 0H69Q59 0 61 10L177 670ZM375 796Q365 796 367 806L374 844Q376 854 385 854H407Q417 854 415 844L408 806Q406 796 397 796H375Z"  />
<glyph unicode="&#x117;" horiz-adv-x="469" d="M201 -10Q129 -10 92 30T55 142Q55 198 66 257T101 365Q129 423 175 453T282 484Q345 484 383 446T422 333Q422 316 420 297T413 247Q411 237 401 237H97Q90 237 89 231Q84 204 83 185T82 142Q82 84 111 50T203 15Q251 15 288 35T353 86Q361 94 367 89L373 84Q379 77 372 70Q341 34 298 12T201 -10ZM383 262Q388 262 390 268Q396 301 396 329Q396 394 367 426T280 459Q229 459 190 433T125 355Q117 338 110 315T97 268Q95 262 102 262H383ZM297 622Q287 622 289 632L296 670Q298 680 307 680H329Q339 680 337 670L330 632Q328 622 319 622H297Z"  />
<glyph unicode="&#x118;" horiz-adv-x="530" d="M340 -161Q319 -161 306 -148T293 -114Q293 -101 297 -89T312 -63T341 -34T385 0H69Q59 0 61 10L177 670Q179 680 188 680H547Q557 680 555 670L554 664Q553 654 542 654H208Q202 654 201 648L152 366Q151 359 158 359H445Q455 359 453 349L452 343Q451 333 440 333H152Q146 333 145 327L93 32Q91 26 98 26H432Q442 26 440 16L439 10Q438 0 427 0H420Q389 -23 370 -39T339 -68T324 -91T320 -111Q320 -136 346 -136Q355 -136 362 -133T377 -125Q384 -120 388 -127L391 -133Q393 -139 385 -146Q378 -151 367 -156T340 -161Z"  />
<glyph unicode="&#x119;" horiz-adv-x="469" d="M245 -161Q224 -161 211 -149T198 -115Q198 -94 216 -63T271 1Q238 -10 201 -10Q129 -10 92 30T55 142Q55 198 66 257T101 365Q129 423 175 453T282 484Q345 484 383 446T422 333Q422 316 420 297T413 247Q411 237 401 237H97Q90 237 89 231Q84 204 83 185T82 142Q82 84 111 50T203 15Q251 15 288 35T353 86Q361 94 367 89L373 84Q379 78 372 70Q350 46 327 29Q298 2 279 -20T247 -59T230 -89T225 -111Q225 -136 251 -136Q260 -136 267 -133T282 -125Q289 -120 293 -127L296 -133Q298 -139 290 -146Q283 -151 272 -156T245 -161ZM383 262Q388 262 390 268Q396 301 396 329Q396 394 367 426T280 459Q229 459 190 433T125 355Q117 338 110 315T97 268Q95 262 102 262H383Z"  />
<glyph unicode="&#x11A;" horiz-adv-x="530" d="M177 670Q179 680 188 680H547Q557 680 555 670L554 664Q553 654 542 654H208Q202 654 201 648L152 366Q151 359 158 359H445Q455 359 453 349L452 343Q451 333 440 333H152Q146 333 145 327L93 32Q91 26 98 26H432Q442 26 440 16L439 10Q438 0 427 0H69Q59 0 61 10L177 670ZM374 756Q366 756 362 765L300 885Q298 889 299 892T304 895H308Q317 895 322 886L378 782H380L474 886Q482 895 491 895H496Q500 895 501 892T498 885L395 765Q387 756 379 756H374Z"  />
<glyph unicode="&#x11B;" horiz-adv-x="469" d="M201 -10Q129 -10 92 30T55 142Q55 198 66 257T101 365Q129 423 175 453T282 484Q345 484 383 446T422 333Q422 316 420 297T413 247Q411 237 401 237H97Q90 237 89 231Q84 204 83 185T82 142Q82 84 111 50T203 15Q251 15 288 35T353 86Q361 94 367 89L373 84Q379 77 372 70Q341 34 298 12T201 -10ZM383 262Q388 262 390 268Q396 301 396 329Q396 394 367 426T280 459Q229 459 190 433T125 355Q117 338 110 315T97 268Q95 262 102 262H383ZM295 561Q287 561 283 570L221 690Q219 694 220 697T225 700H229Q238 700 243 691L299 587H301L395 691Q403 700 412 700H417Q421 700 422 697T419 690L316 570Q308 561 300 561H295Z"  />
<glyph unicode="&#x11C;" horiz-adv-x="577" d="M68 178Q68 210 74 259T89 361T112 462T141 542Q178 618 233 654T370 690Q397 690 424 684T474 663T516 626T545 572Q548 564 540 561L532 558Q523 554 521 562Q501 616 460 640T365 664Q230 664 168 536Q153 505 140 458T117 360T102 262T96 183Q96 102 135 59T251 16Q317 16 367 47T450 146Q464 173 475 211T495 299Q496 305 490 305H322Q313 305 315 315L316 322Q317 331 326 331H518Q527 331 525 321L520 288Q513 246 501 205T476 138Q438 60 383 25T247 -10Q162 -10 115 39T68 178ZM480 756Q471 756 466 765L410 869H408L314 765Q306 756 297 756H292Q288 756 287 759T290 766L393 886Q401 895 409 895H414Q421 895 426 886L488 766Q490 762 489 759T484 756H480Z"  />
<glyph unicode="&#x11D;" horiz-adv-x="496" d="M162 -190Q120 -190 85 -173T30 -118Q24 -108 34 -104L41 -101Q49 -98 54 -106Q72 -134 98 -149T166 -165Q230 -165 274 -126T333 4L345 74H344Q320 33 284 12T191 -10Q124 -10 90 29T55 137Q55 161 58 191T68 254T83 316T105 371Q160 484 275 484Q329 484 359 457T401 392H402L414 464Q416 474 426 474H433Q443 474 441 464L359 2Q349 -52 331 -89T288 -148T231 -180T162 -190ZM196 15Q237 15 275 36T340 110Q349 128 357 159T372 223T382 287T386 336Q386 388 358 423T273 459Q176 459 129 361Q106 310 94 251T82 138Q82 83 109 49T196 15ZM402 561Q393 561 388 570L332 674H330L236 570Q228 561 219 561H214Q210 561 209 564T212 571L315 691Q323 700 331 700H336Q343 700 348 691L410 571Q412 567 411 564T406 561H402Z"  />
<glyph unicode="&#x11E;" horiz-adv-x="577" d="M68 178Q68 210 74 259T89 361T112 462T141 542Q178 618 233 654T370 690Q397 690 424 684T474 663T516 626T545 572Q548 564 540 561L532 558Q523 554 521 562Q501 616 460 640T365 664Q230 664 168 536Q153 505 140 458T117 360T102 262T96 183Q96 102 135 59T251 16Q317 16 367 47T450 146Q464 173 475 211T495 299Q496 305 490 305H322Q313 305 315 315L316 322Q317 331 326 331H518Q527 331 525 321L520 288Q513 246 501 205T476 138Q438 60 383 25T247 -10Q162 -10 115 39T68 178ZM393 776Q349 776 325 801T298 869Q298 879 308 879H312Q322 879 322 869Q324 836 343 818T396 800Q429 800 454 819T493 869Q498 879 506 879H511Q521 879 518 869Q503 827 470 802T393 776Z"  />
<glyph unicode="&#x11F;" horiz-adv-x="496" d="M162 -190Q120 -190 85 -173T30 -118Q24 -108 34 -104L41 -101Q49 -98 54 -106Q72 -134 98 -149T166 -165Q230 -165 274 -126T333 4L345 74H344Q320 33 284 12T191 -10Q124 -10 90 29T55 137Q55 161 58 191T68 254T83 316T105 371Q160 484 275 484Q329 484 359 457T401 392H402L414 464Q416 474 426 474H433Q443 474 441 464L359 2Q349 -52 331 -89T288 -148T231 -180T162 -190ZM196 15Q237 15 275 36T340 110Q349 128 357 159T372 223T382 287T386 336Q386 388 358 423T273 459Q176 459 129 361Q106 310 94 251T82 138Q82 83 109 49T196 15ZM314 580Q270 580 246 605T219 673Q219 683 229 683H233Q243 683 243 673Q245 640 264 622T317 604Q350 604 375 623T414 673Q419 683 427 683H432Q442 683 439 673Q424 631 391 606T314 580Z"  />
<glyph unicode="&#x120;" horiz-adv-x="577" d="M68 178Q68 210 74 259T89 361T112 462T141 542Q178 618 233 654T370 690Q397 690 424 684T474 663T516 626T545 572Q548 564 540 561L532 558Q523 554 521 562Q501 616 460 640T365 664Q230 664 168 536Q153 505 140 458T117 360T102 262T96 183Q96 102 135 59T251 16Q317 16 367 47T450 146Q464 173 475 211T495 299Q496 305 490 305H322Q313 305 315 315L316 322Q317 331 326 331H518Q527 331 525 321L520 288Q513 246 501 205T476 138Q438 60 383 25T247 -10Q162 -10 115 39T68 178ZM383 796Q373 796 375 806L382 844Q384 854 393 854H415Q425 854 423 844L416 806Q414 796 405 796H383Z"  />
<glyph unicode="&#x121;" horiz-adv-x="496" d="M162 -190Q120 -190 85 -173T30 -118Q24 -108 34 -104L41 -101Q49 -98 54 -106Q72 -134 98 -149T166 -165Q230 -165 274 -126T333 4L345 74H344Q320 33 284 12T191 -10Q124 -10 90 29T55 137Q55 161 58 191T68 254T83 316T105 371Q160 484 275 484Q329 484 359 457T401 392H402L414 464Q416 474 426 474H433Q443 474 441 464L359 2Q349 -52 331 -89T288 -148T231 -180T162 -190ZM196 15Q237 15 275 36T340 110Q349 128 357 159T372 223T382 287T386 336Q386 388 358 423T273 459Q176 459 129 361Q106 310 94 251T82 138Q82 83 109 49T196 15ZM309 622Q299 622 301 632L308 670Q310 680 319 680H341Q351 680 349 670L342 632Q340 622 331 622H309Z"  />
<glyph unicode="&#x122;" horiz-adv-x="577" d="M68 178Q68 210 74 259T89 361T112 462T141 542Q178 618 233 654T370 690Q397 690 424 684T474 663T516 626T545 572Q548 564 540 561L532 558Q523 554 521 562Q501 616 460 640T365 664Q230 664 168 536Q153 505 140 458T117 360T102 262T96 183Q96 102 135 59T251 16Q317 16 367 47T450 146Q464 173 475 211T495 299Q496 305 490 305H322Q313 305 315 315L316 322Q317 331 326 331H518Q527 331 525 321L520 288Q513 246 501 205T476 138Q438 60 383 25T247 -10Q162 -10 115 39T68 178ZM217 -182Q208 -182 210 -173L229 -66Q231 -56 240 -56H250Q260 -56 258 -66L246 -130Q244 -138 243 -141T239 -152L228 -173Q223 -182 217 -182Z"  />
<glyph unicode="&#x123;" horiz-adv-x="496" d="M162 -190Q120 -190 85 -173T30 -118Q24 -108 34 -104L41 -101Q49 -98 54 -106Q72 -134 98 -149T166 -165Q230 -165 274 -126T333 4L345 74H344Q320 33 284 12T191 -10Q124 -10 90 29T55 137Q55 161 58 191T68 254T83 316T105 371Q160 484 275 484Q329 484 359 457T401 392H402L414 464Q416 474 426 474H433Q443 474 441 464L359 2Q349 -52 331 -89T288 -148T231 -180T162 -190ZM196 15Q237 15 275 36T340 110Q349 128 357 159T372 223T382 287T386 336Q386 388 358 423T273 459Q176 459 129 361Q106 310 94 251T82 138Q82 83 109 49T196 15ZM339 700Q347 700 346 691L327 584Q325 574 316 574H306Q296 574 298 584L310 648Q312 656 313 659T317 670L328 691Q332 700 339 700Z"  />
<glyph unicode="&#x124;" horiz-adv-x="622" d="M177 670Q179 680 188 680H197Q207 680 205 670L151 365Q149 359 156 359H513Q518 359 520 365L574 670Q576 680 585 680H594Q604 680 602 670L486 10Q484 0 475 0H466Q456 0 458 10L513 327Q514 333 509 333H152Q146 333 145 327L89 10Q87 0 78 0H69Q59 0 61 10L177 670ZM491 756Q482 756 477 765L421 869H419L325 765Q317 756 308 756H303Q299 756 298 759T301 766L404 886Q412 895 420 895H425Q432 895 437 886L499 766Q501 762 500 759T495 756H491Z"  />
<glyph unicode="&#x125;" horiz-adv-x="516" d="M367 0Q358 0 360 10L412 294Q427 382 401 420T306 459Q279 459 252 449T202 419T162 373T139 311L86 10Q84 0 75 0H66Q57 0 59 10L175 670Q177 680 186 680H194Q204 680 202 670L155 400H156Q182 440 222 462T311 484Q389 484 423 439T440 301L387 10Q385 0 376 0H367ZM440 756Q431 756 426 765L370 869H368L274 765Q266 756 257 756H252Q248 756 247 759T250 766L353 886Q361 895 369 895H374Q381 895 386 886L448 766Q450 762 449 759T444 756H440Z"  />
<glyph unicode="&#x126;" horiz-adv-x="622" d="M466 0Q456 0 458 10L513 327Q514 333 509 333H152Q146 333 145 327L89 10Q87 0 78 0H69Q59 0 61 10L147 498Q148 504 142 504H102Q92 504 94 514L95 519Q97 529 107 529H146Q151 529 153 535L177 670Q179 680 188 680H197Q207 680 205 670L181 535Q179 529 185 529H543Q548 529 550 535L574 670Q576 680 585 680H594Q604 680 602 670L578 535Q576 529 582 529H622Q631 529 629 519V514Q627 504 618 504H577Q572 504 571 498L486 10Q484 0 475 0H466ZM513 359Q518 359 520 365L543 498Q544 504 538 504H180Q175 504 174 498L151 365Q149 359 156 359H513Z"  />
<glyph unicode="&#x127;" horiz-adv-x="516" d="M367 0Q358 0 360 10L412 294Q427 382 401 420T306 459Q279 459 252 449T202 419T162 373T139 311L86 10Q84 0 75 0H66Q57 0 59 10L157 567Q158 573 152 573H117Q107 573 109 583L110 588Q111 597 122 597H156Q161 597 163 603L175 670Q177 680 186 680H194Q204 680 202 670L190 603Q188 597 195 597H329Q339 597 337 587L336 582Q334 573 324 573H191Q185 573 184 567L155 400H156Q182 440 222 462T311 484Q389 484 423 439T440 301L387 10Q385 0 376 0H367Z"  />
<glyph unicode="&#x128;" horiz-adv-x="225" d="M177 670Q179 680 188 680H197Q207 680 205 670L89 10Q87 0 78 0H69Q59 0 61 10L177 670ZM272 796Q256 796 244 802T221 817Q211 825 202 830T180 835Q166 835 152 826T122 801Q119 798 116 799T114 804L116 818Q117 822 118 824T125 832Q138 844 153 851T185 858Q201 858 213 852T236 837Q246 829 255 824T277 819Q291 819 305 828T335 853Q338 856 341 855T343 850L341 836Q340 832 339 830T332 822Q319 810 304 803T272 796Z"  />
<glyph unicode="&#x129;" horiz-adv-x="221" d="M67 0Q57 0 59 10L139 464Q141 474 150 474H158Q168 474 166 464L86 10Q84 0 75 0H67ZM215 615Q199 615 187 621T164 636Q154 644 145 649T123 654Q109 654 95 645T65 620Q62 617 59 618T57 623L59 637Q60 641 61 643T68 651Q81 663 96 670T128 677Q144 677 156 671T179 656Q189 648 198 643T220 638Q234 638 248 647T278 672Q281 675 284 674T286 669L284 655Q283 651 282 649T275 641Q262 629 247 622T215 615Z"  />
<glyph unicode="&#x12A;" horiz-adv-x="225" d="M177 670Q179 680 188 680H197Q207 680 205 670L89 10Q87 0 78 0H69Q59 0 61 10L177 670ZM114 812Q104 812 106 822L107 827Q108 837 118 837H343Q353 837 351 827L350 822Q349 812 339 812H114Z"  />
<glyph unicode="&#x12B;" horiz-adv-x="221" d="M67 0Q57 0 59 10L139 464Q141 474 150 474H158Q168 474 166 464L86 10Q84 0 75 0H67ZM58 637Q48 637 50 647L51 652Q52 662 62 662H287Q297 662 295 652L294 647Q293 637 283 637H58Z"  />
<glyph unicode="&#x12E;" horiz-adv-x="225" d="M24 -161Q3 -161 -10 -148T-23 -115Q-23 -89 -4 -61T60 6L177 670Q179 680 188 680H197Q207 680 205 670L89 10Q88 6 83 1Q41 -41 23 -66T4 -111Q4 -136 30 -136Q39 -136 46 -133T61 -125Q68 -120 72 -127L75 -133Q77 -139 69 -146Q62 -151 51 -156T24 -161Z"  />
<glyph unicode="&#x12F;" horiz-adv-x="221" d="M170 622Q160 622 162 632L169 670Q171 680 180 680H202Q211 680 209 670L202 632Q201 622 190 622H170ZM21 -161Q0 -161 -13 -149T-26 -115Q-26 -104 -22 -93T-9 -67T17 -34T59 8L139 464Q141 474 150 474H158Q168 474 166 464L86 10Q85 5 81 1Q57 -23 42 -40T17 -71T5 -93T1 -111Q1 -136 27 -136Q36 -136 43 -133T58 -125Q65 -120 69 -127L72 -133Q74 -139 66 -146Q59 -151 48 -156T21 -161Z"  />
<glyph unicode="&#x130;" horiz-adv-x="225" d="M177 670Q179 680 188 680H197Q207 680 205 670L89 10Q87 0 78 0H69Q59 0 61 10L177 670ZM206 796Q196 796 198 806L205 844Q207 854 216 854H238Q248 854 246 844L239 806Q237 796 228 796H206Z"  />
<glyph unicode="&#x131;" horiz-adv-x="221" d="M67 0Q57 0 59 10L139 464Q141 474 150 474H158Q168 474 166 464L86 10Q84 0 75 0H67Z"  />
<glyph unicode="&#x132;" horiz-adv-x="672" d="M177 670Q179 680 188 680H197Q207 680 205 670L89 10Q87 0 78 0H69Q59 0 61 10L177 670ZM239 35Q231 41 239 49L244 54Q251 61 259 55Q282 38 306 27T362 16Q394 16 423 25T475 55T515 109T541 191L625 670Q627 680 636 680H645Q655 680 653 670L568 188Q558 133 539 96T493 35T432 1T359 -10Q325 -10 294 2T239 35Z"  />
<glyph unicode="&#x133;" horiz-adv-x="442" d="M170 622Q160 622 162 632L169 670Q171 680 180 680H202Q211 680 209 670L202 632Q201 622 190 622H170ZM67 0Q57 0 59 10L139 464Q141 474 150 474H158Q168 474 166 464L86 10Q84 0 75 0H67ZM391 622Q381 622 383 632L390 670Q392 680 401 680H423Q432 680 430 670L423 632Q422 622 411 622H391ZM168 -180Q158 -180 160 -170L161 -165Q162 -155 173 -155H176Q219 -155 238 -138T266 -71L360 464Q362 474 371 474H379Q389 474 387 464L293 -71Q287 -103 279 -124T256 -157T221 -175T172 -180H168Z"  />
<glyph unicode="&#x134;" horiz-adv-x="447" d="M14 35Q6 41 14 49L19 54Q26 61 34 55Q57 38 81 27T137 16Q169 16 198 25T250 55T290 109T316 191L400 670Q402 680 411 680H420Q430 680 428 670L343 188Q333 133 314 96T268 35T207 1T134 -10Q100 -10 69 2T14 35ZM519 756Q510 756 505 765L449 869H447L353 765Q345 756 336 756H331Q327 756 326 759T329 766L432 886Q440 895 448 895H453Q460 895 465 886L527 766Q529 762 528 759T523 756H519Z"  />
<glyph unicode="&#x135;" horiz-adv-x="221" d="M-53 -180Q-63 -180 -61 -170L-60 -165Q-59 -155 -48 -155H-45Q-23 -155 -8 -152T17 -139T34 -114T45 -71L139 464Q141 474 150 474H158Q168 474 166 464L72 -71Q66 -103 58 -124T35 -157T0 -175T-49 -180H-53ZM262 561Q253 561 248 570L192 674H190L96 570Q88 561 79 561H74Q70 561 69 564T72 571L175 691Q183 700 191 700H196Q203 700 208 691L270 571Q272 567 271 564T266 561H262Z"  />
<glyph unicode="&#x136;" horiz-adv-x="559" d="M177 670Q179 680 188 680H197Q207 680 205 670L131 248L545 670Q555 680 564 680H578Q582 680 583 677T581 670L325 410L478 10Q482 0 471 0H460Q452 0 448 10L305 389L123 204L89 10Q87 0 78 0H69Q59 0 61 10L177 670ZM226 -182Q217 -182 219 -173L238 -66Q240 -56 249 -56H259Q269 -56 267 -66L255 -130Q253 -138 252 -141T248 -152L237 -173Q232 -182 226 -182Z"  />
<glyph unicode="&#x137;" d="M371 0Q363 0 358 10L247 281L109 141L86 10Q84 0 75 0H66Q57 0 59 10L175 670Q177 680 186 680H194Q204 680 202 670L116 183L393 465Q402 474 410 474H424Q429 474 430 471T427 464L267 301L387 10Q389 6 387 3T379 0H371ZM187 -182Q178 -182 180 -173L199 -66Q201 -56 210 -56H220Q230 -56 228 -66L216 -130Q214 -138 213 -141T209 -152L198 -173Q193 -182 187 -182Z"  />
<glyph unicode="&#x139;" horiz-adv-x="500" d="M177 670Q179 680 188 680H197Q207 680 205 670L93 32Q91 26 97 26H431Q441 26 439 16L438 10Q436 0 427 0H69Q59 0 61 10L177 670ZM207 766Q202 766 202 769T206 777L297 878Q306 888 316 888H327Q332 888 333 885T330 878L231 776Q225 770 222 768T212 766H207Z"  />
<glyph unicode="&#x13A;" horiz-adv-x="237" d="M136 -2Q93 -2 79 21T73 95L178 670Q180 680 189 680H197Q207 680 205 670L100 95Q92 53 101 38T140 23H154Q164 23 162 13L161 8Q160 -2 149 -2H136ZM203 766Q198 766 198 769T202 777L293 878Q302 888 312 888H323Q328 888 329 885T326 878L227 776Q221 770 218 768T208 766H203Z"  />
<glyph unicode="&#x13B;" horiz-adv-x="500" d="M177 670Q179 680 188 680H197Q207 680 205 670L93 32Q91 26 97 26H431Q441 26 439 16L438 10Q436 0 427 0H69Q59 0 61 10L177 670ZM223 -182Q214 -182 216 -173L235 -66Q237 -56 246 -56H256Q266 -56 264 -66L252 -130Q250 -138 249 -141T245 -152L234 -173Q229 -182 223 -182Z"  />
<glyph unicode="&#x13C;" horiz-adv-x="237" d="M136 -2Q93 -2 79 21T73 95L178 670Q180 680 189 680H197Q207 680 205 670L100 95Q92 53 101 38T140 23H154Q164 23 162 13L161 8Q160 -2 149 -2H136ZM73 -182Q64 -182 66 -173L85 -66Q87 -56 96 -56H106Q116 -56 114 -66L102 -130Q100 -138 99 -141T95 -152L84 -173Q79 -182 73 -182Z"  />
<glyph unicode="&#x13D;" horiz-adv-x="500" d="M177 670Q179 680 188 680H197Q207 680 205 670L93 32Q91 26 97 26H431Q441 26 439 16L438 10Q436 0 427 0H69Q59 0 61 10L177 670ZM305 554Q296 554 298 563L317 670Q319 680 328 680H338Q348 680 346 670L334 606Q332 598 331 595T327 584L316 563Q311 554 305 554Z"  />
<glyph unicode="&#x13E;" horiz-adv-x="237" d="M136 -2Q93 -2 79 21T73 95L178 670Q180 680 189 680H197Q207 680 205 670L100 95Q92 53 101 38T140 23H154Q164 23 162 13L161 8Q160 -2 149 -2H136ZM260 554Q251 554 253 563L272 670Q274 680 283 680H293Q303 680 301 670L289 606Q287 598 286 595T282 584L271 563Q266 554 260 554Z"  />
<glyph unicode="&#x13F;" horiz-adv-x="500" d="M177 670Q179 680 188 680H197Q207 680 205 670L93 32Q91 26 97 26H431Q441 26 439 16L438 10Q436 0 427 0H69Q59 0 61 10L177 670ZM349 292Q339 292 341 302L349 350Q351 360 360 360H385Q395 360 393 350L385 302Q383 292 374 292H349Z"  />
<glyph unicode="&#x140;" horiz-adv-x="237" d="M136 -2Q93 -2 79 21T73 95L178 670Q180 680 189 680H197Q207 680 205 670L100 95Q92 53 101 38T140 23H154Q164 23 162 13L161 8Q160 -2 149 -2H136ZM229 292Q219 292 221 302L229 350Q231 360 240 360H265Q275 360 273 350L265 302Q263 292 254 292H229Z"  />
<glyph unicode="&#x141;" horiz-adv-x="500" d="M144 323L93 32Q91 26 97 26H431Q441 26 439 16L438 10Q436 0 427 0H69Q59 0 61 10L113 308L51 278Q40 273 42 284L44 294Q45 302 55 307L118 338L177 670Q179 680 188 680H197Q207 680 205 670L149 353L328 440Q339 445 337 434L335 424Q334 416 324 411L144 323Z"  />
<glyph unicode="&#x142;" horiz-adv-x="237" d="M136 -2Q93 -2 79 21T73 95L118 345L75 324Q63 319 65 330L66 338Q67 347 78 352L124 374L178 670Q180 680 189 680H197Q207 680 205 670L153 388L211 416Q223 421 221 410L220 402Q219 393 208 388L148 359L100 95Q92 53 101 38T140 23H154Q164 23 162 13L161 8Q160 -2 149 -2H136Z"  />
<glyph unicode="&#x143;" horiz-adv-x="623" d="M177 670Q179 680 188 680H196Q205 680 209 670L465 59H467L575 670Q577 680 586 680H595Q605 680 603 670L487 10Q485 0 476 0H469Q459 0 455 10L199 624H197L89 10Q87 0 78 0H69Q59 0 61 10L177 670ZM380 766Q375 766 375 769T379 777L470 878Q479 888 489 888H500Q505 888 506 885T503 878L404 776Q398 770 395 768T385 766H380Z"  />
<glyph unicode="&#x144;" horiz-adv-x="516" d="M367 0Q358 0 360 10L412 294Q427 382 401 420T306 459Q279 459 252 449T202 419T162 373T139 311L86 10Q84 0 75 0H66Q57 0 59 10L139 464Q141 474 150 474H158Q168 474 166 464L155 400H156Q182 440 222 462T311 484Q389 484 423 439T440 301L387 10Q385 0 376 0H367ZM290 560Q279 560 287 570L381 690Q389 700 399 700H410Q415 700 416 697T414 690L312 570Q307 564 304 562T294 560H290Z"  />
<glyph unicode="&#x145;" horiz-adv-x="623" d="M177 670Q179 680 188 680H196Q205 680 209 670L465 59H467L575 670Q577 680 586 680H595Q605 680 603 670L487 10Q485 0 476 0H469Q459 0 455 10L199 624H197L89 10Q87 0 78 0H69Q59 0 61 10L177 670ZM252 -182Q243 -182 245 -173L264 -66Q266 -56 275 -56H285Q295 -56 293 -66L281 -130Q279 -138 278 -141T274 -152L263 -173Q258 -182 252 -182Z"  />
<glyph unicode="&#x146;" horiz-adv-x="516" d="M367 0Q358 0 360 10L412 294Q427 382 401 420T306 459Q279 459 252 449T202 419T162 373T139 311L86 10Q84 0 75 0H66Q57 0 59 10L139 464Q141 474 150 474H158Q168 474 166 464L155 400H156Q182 440 222 462T311 484Q389 484 423 439T440 301L387 10Q385 0 376 0H367ZM195 -182Q186 -182 188 -173L207 -66Q209 -56 218 -56H228Q238 -56 236 -66L224 -130Q222 -138 221 -141T217 -152L206 -173Q201 -182 195 -182Z"  />
<glyph unicode="&#x147;" horiz-adv-x="623" d="M177 670Q179 680 188 680H196Q205 680 209 670L465 59H467L575 670Q577 680 586 680H595Q605 680 603 670L487 10Q485 0 476 0H469Q459 0 455 10L199 624H197L89 10Q87 0 78 0H69Q59 0 61 10L177 670ZM399 756Q391 756 387 765L325 885Q323 889 324 892T329 895H333Q342 895 347 886L403 782H405L499 886Q507 895 516 895H521Q525 895 526 892T523 885L420 765Q412 756 404 756H399Z"  />
<glyph unicode="&#x148;" horiz-adv-x="516" d="M367 0Q358 0 360 10L412 294Q427 382 401 420T306 459Q279 459 252 449T202 419T162 373T139 311L86 10Q84 0 75 0H66Q57 0 59 10L139 464Q141 474 150 474H158Q168 474 166 464L155 400H156Q182 440 222 462T311 484Q389 484 423 439T440 301L387 10Q385 0 376 0H367ZM314 561Q306 561 302 570L240 690Q238 694 239 697T244 700H248Q257 700 262 691L318 587H320L414 691Q422 700 431 700H436Q440 700 441 697T438 690L335 570Q327 561 319 561H314Z"  />
<glyph unicode="&#x149;" horiz-adv-x="516" d="M367 0Q358 0 360 10L412 294Q427 382 401 420T306 459Q279 459 252 449T202 419T162 373T139 311L86 10Q84 0 75 0H66Q57 0 59 10L139 464Q141 474 150 474H158Q168 474 166 464L155 400H156Q182 440 222 462T311 484Q389 484 423 439T440 301L387 10Q385 0 376 0H367ZM111 554Q102 554 104 563L123 670Q125 680 134 680H144Q154 680 152 670L140 606Q138 598 137 595T133 584L122 563Q117 554 111 554Z"  />
<glyph unicode="&#x14C;" horiz-adv-x="580" d="M247 -10Q161 -10 115 39T68 178Q68 210 74 259T89 361T112 462T141 542Q178 618 233 654T369 690Q455 690 501 641T548 502Q548 470 542 421T527 319T504 218T475 138Q438 62 383 26T247 -10ZM251 16Q386 16 448 144Q463 175 476 222T499 320T514 418T520 497Q520 578 481 621T365 664Q230 664 168 536Q153 505 140 458T117 360T102 262T96 183Q96 102 135 59T251 16ZM283 812Q273 812 275 822L276 827Q277 837 287 837H512Q522 837 520 827L519 822Q518 812 508 812H283Z"  />
<glyph unicode="&#x14D;" horiz-adv-x="479" d="M201 -10Q126 -10 91 32T55 147Q55 175 59 207T71 270T86 326T103 369Q132 429 178 456T284 484Q359 484 394 442T430 327Q430 298 426 266T414 204T399 148T382 105Q353 45 307 18T201 -10ZM205 15Q256 15 295 40T360 119Q366 132 373 156T387 208T398 266T403 320Q403 387 375 423T280 459Q229 459 190 434T125 355Q119 342 112 318T98 266T87 208T82 154Q82 87 110 51T205 15ZM206 637Q196 637 198 647L199 652Q200 662 210 662H435Q445 662 443 652L442 647Q441 637 431 637H206Z"  />
<glyph unicode="&#x14E;" horiz-adv-x="580" d="M247 -10Q161 -10 115 39T68 178Q68 210 74 259T89 361T112 462T141 542Q178 618 233 654T369 690Q455 690 501 641T548 502Q548 470 542 421T527 319T504 218T475 138Q438 62 383 26T247 -10ZM251 16Q386 16 448 144Q463 175 476 222T499 320T514 418T520 497Q520 578 481 621T365 664Q230 664 168 536Q153 505 140 458T117 360T102 262T96 183Q96 102 135 59T251 16ZM391 776Q347 776 323 801T296 869Q296 879 306 879H310Q320 879 320 869Q322 836 341 818T394 800Q427 800 452 819T491 869Q496 879 504 879H509Q519 879 516 869Q501 827 468 802T391 776Z"  />
<glyph unicode="&#x14F;" horiz-adv-x="479" d="M201 -10Q126 -10 91 32T55 147Q55 175 59 207T71 270T86 326T103 369Q132 429 178 456T284 484Q359 484 394 442T430 327Q430 298 426 266T414 204T399 148T382 105Q353 45 307 18T201 -10ZM205 15Q256 15 295 40T360 119Q366 132 373 156T387 208T398 266T403 320Q403 387 375 423T280 459Q229 459 190 434T125 355Q119 342 112 318T98 266T87 208T82 154Q82 87 110 51T205 15ZM320 580Q276 580 252 605T225 673Q225 683 235 683H239Q249 683 249 673Q251 640 270 622T323 604Q356 604 381 623T420 673Q425 683 433 683H438Q448 683 445 673Q430 631 397 606T320 580Z"  />
<glyph unicode="&#x150;" horiz-adv-x="580" d="M247 -10Q161 -10 115 39T68 178Q68 210 74 259T89 361T112 462T141 542Q178 618 233 654T369 690Q455 690 501 641T548 502Q548 470 542 421T527 319T504 218T475 138Q438 62 383 26T247 -10ZM251 16Q386 16 448 144Q463 175 476 222T499 320T514 418T520 497Q520 578 481 621T365 664Q230 664 168 536Q153 505 140 458T117 360T102 262T96 183Q96 102 135 59T251 16ZM440 766Q436 766 434 768T436 776L519 878Q524 883 527 885T537 888H546Q551 888 552 885T550 878L460 774Q453 766 446 766H440ZM336 766Q332 766 330 768T332 776L415 878Q420 883 423 885T433 888H442Q447 888 448 885T446 878L356 774Q349 766 342 766H336Z"  />
<glyph unicode="&#x151;" horiz-adv-x="479" d="M201 -10Q126 -10 91 32T55 147Q55 175 59 207T71 270T86 326T103 369Q132 429 178 456T284 484Q359 484 394 442T430 327Q430 298 426 266T414 204T399 148T382 105Q353 45 307 18T201 -10ZM205 15Q256 15 295 40T360 119Q366 132 373 156T387 208T398 266T403 320Q403 387 375 423T280 459Q229 459 190 434T125 355Q119 342 112 318T98 266T87 208T82 154Q82 87 110 51T205 15ZM356 561Q352 561 351 563T352 571L438 690Q445 700 455 700H464Q469 700 470 697T468 690L375 569Q368 561 361 561H356ZM252 561Q248 561 247 563T248 571L334 690Q341 700 351 700H360Q365 700 366 697T364 690L271 569Q264 561 257 561H252Z"  />
<glyph unicode="&#x152;" horiz-adv-x="914" d="M453 0Q443 0 445 10L464 118H463Q427 52 375 21T247 -10Q161 -10 115 39T68 178Q68 210 74 259T89 361T112 462T141 542Q178 618 233 654T369 690Q439 690 483 657T540 557H541L561 670Q563 680 572 680H931Q941 680 939 670L938 664Q937 654 926 654H592Q586 654 585 648L536 366Q535 359 542 359H829Q839 359 837 349L836 343Q835 333 824 333H536Q530 333 529 327L477 32Q475 26 482 26H816Q826 26 824 16L823 10Q822 0 811 0H453ZM251 16Q386 16 448 144Q463 175 476 222T499 320T514 418T520 497Q520 578 481 621T365 664Q230 664 168 536Q153 505 140 458T117 360T102 262T96 183Q96 102 135 59T251 16Z"  />
<glyph unicode="&#x153;" horiz-adv-x="800" d="M532 -10Q401 -10 389 118H388Q362 56 315 23T201 -10Q126 -10 91 32T55 147Q55 175 59 207T71 270T86 326T103 369Q132 429 178 456T284 484Q412 484 428 356H429Q457 422 506 453T613 484Q676 484 714 446T753 333Q753 316 751 297T744 247Q742 237 732 237H430Q423 237 422 231Q417 204 415 185T413 142Q413 84 442 50T534 15Q582 15 619 35T684 86Q692 94 698 89L704 84Q710 77 703 70Q672 34 629 12T532 -10ZM714 262Q719 262 721 268Q727 301 727 329Q727 394 698 426T611 459Q560 459 521 433T457 355Q449 338 441 315T428 268Q426 262 433 262H714ZM205 15Q256 15 295 40T360 119Q366 132 373 156T387 208T398 266T403 320Q403 387 375 423T280 459Q229 459 190 434T125 355Q119 342 112 318T98 266T87 208T82 154Q82 87 110 51T205 15Z"  />
<glyph unicode="&#x154;" horiz-adv-x="589" d="M456 0Q448 0 445 9L355 321Q348 320 342 320T329 320H150Q144 320 143 314L89 10Q87 0 78 0H69Q59 0 61 10L177 670Q179 680 188 680H393Q474 680 516 643T558 535Q558 447 512 393T381 324L474 10Q477 0 468 0H456ZM334 346Q431 346 481 397T531 533Q531 654 388 654H208Q202 654 201 648L149 352Q147 346 154 346H334ZM346 766Q341 766 341 769T345 777L436 878Q445 888 455 888H466Q471 888 472 885T469 878L370 776Q364 770 361 768T351 766H346Z"  />
<glyph unicode="&#x155;" horiz-adv-x="370" d="M67 0Q57 0 59 10L139 464Q141 474 150 474H158Q168 474 166 464L154 394H155Q172 434 207 459T294 484Q320 484 342 476T380 454Q385 449 379 441L374 435Q368 429 360 435Q345 446 328 452T288 459Q255 459 229 443T183 401T152 343T133 276L86 10Q84 0 75 0H67ZM234 560Q223 560 231 570L325 690Q333 700 343 700H354Q359 700 360 697T358 690L256 570Q251 564 248 562T238 560H234Z"  />
<glyph unicode="&#x156;" horiz-adv-x="589" d="M456 0Q448 0 445 9L355 321Q348 320 342 320T329 320H150Q144 320 143 314L89 10Q87 0 78 0H69Q59 0 61 10L177 670Q179 680 188 680H393Q474 680 516 643T558 535Q558 447 512 393T381 324L474 10Q477 0 468 0H456ZM334 346Q431 346 481 397T531 533Q531 654 388 654H208Q202 654 201 648L149 352Q147 346 154 346H334ZM223 -182Q214 -182 216 -173L235 -66Q237 -56 246 -56H256Q266 -56 264 -66L252 -130Q250 -138 249 -141T245 -152L234 -173Q229 -182 223 -182Z"  />
<glyph unicode="&#x157;" horiz-adv-x="370" d="M67 0Q57 0 59 10L139 464Q141 474 150 474H158Q168 474 166 464L154 394H155Q172 434 207 459T294 484Q320 484 342 476T380 454Q385 449 379 441L374 435Q368 429 360 435Q345 446 328 452T288 459Q255 459 229 443T183 401T152 343T133 276L86 10Q84 0 75 0H67ZM35 -182Q26 -182 28 -173L47 -66Q49 -56 58 -56H68Q78 -56 76 -66L64 -130Q62 -138 61 -141T57 -152L46 -173Q41 -182 35 -182Z"  />
<glyph unicode="&#x158;" horiz-adv-x="589" d="M456 0Q448 0 445 9L355 321Q348 320 342 320T329 320H150Q144 320 143 314L89 10Q87 0 78 0H69Q59 0 61 10L177 670Q179 680 188 680H393Q474 680 516 643T558 535Q558 447 512 393T381 324L474 10Q477 0 468 0H456ZM334 346Q431 346 481 397T531 533Q531 654 388 654H208Q202 654 201 648L149 352Q147 346 154 346H334ZM371 756Q363 756 359 765L297 885Q295 889 296 892T301 895H305Q314 895 319 886L375 782H377L471 886Q479 895 488 895H493Q497 895 498 892T495 885L392 765Q384 756 376 756H371Z"  />
<glyph unicode="&#x159;" horiz-adv-x="370" d="M67 0Q57 0 59 10L139 464Q141 474 150 474H158Q168 474 166 464L154 394H155Q172 434 207 459T294 484Q320 484 342 476T380 454Q385 449 379 441L374 435Q368 429 360 435Q345 446 328 452T288 459Q255 459 229 443T183 401T152 343T133 276L86 10Q84 0 75 0H67ZM282 561Q274 561 270 570L208 690Q206 694 207 697T212 700H216Q225 700 230 691L286 587H288L382 691Q390 700 399 700H404Q408 700 409 697T406 690L303 570Q295 561 287 561H282Z"  />
<glyph unicode="&#x15A;" horiz-adv-x="575" d="M237 -10Q208 -10 179 -4T125 13T79 37T45 64Q40 71 46 77L51 82Q58 89 65 83Q98 54 143 35T248 16Q297 16 337 29T405 66T450 125T466 203Q466 231 459 252T436 288T391 314T322 330L294 334Q212 346 175 383T137 484Q137 529 152 566T196 631T266 674T359 690Q410 690 455 675T529 636Q536 631 530 622L526 617Q520 610 511 616Q440 664 353 664Q311 664 276 651T217 613T179 557T165 488Q165 432 196 401T312 358L340 354Q425 342 459 304T493 204Q493 156 476 117T427 50T347 6T237 -10ZM375 766Q370 766 370 769T374 777L465 878Q474 888 484 888H495Q500 888 501 885T498 878L399 776Q393 770 390 768T380 766H375Z"  />
<glyph unicode="&#x15B;" horiz-adv-x="455" d="M192 -10Q134 -10 93 11T30 53Q24 59 31 66L37 71Q40 74 44 74T50 71Q75 50 108 33T194 15Q268 15 311 52T355 150Q355 185 334 203T258 228L214 233Q99 247 99 336Q99 367 111 394T146 441T201 472T275 484Q313 484 350 472T411 444Q417 440 412 432L409 427Q404 419 393 424Q372 436 341 447T272 459Q207 459 167 425T126 337Q126 302 149 283T229 257L273 252Q382 240 382 153Q382 116 369 86T330 35T270 2T192 -10ZM284 560Q273 560 281 570L375 690Q383 700 393 700H404Q409 700 410 697T408 690L306 570Q301 564 298 562T288 560H284Z"  />
<glyph unicode="&#x15C;" horiz-adv-x="575" d="M237 -10Q208 -10 179 -4T125 13T79 37T45 64Q40 71 46 77L51 82Q58 89 65 83Q98 54 143 35T248 16Q297 16 337 29T405 66T450 125T466 203Q466 231 459 252T436 288T391 314T322 330L294 334Q212 346 175 383T137 484Q137 529 152 566T196 631T266 674T359 690Q410 690 455 675T529 636Q536 631 530 622L526 617Q520 610 511 616Q440 664 353 664Q311 664 276 651T217 613T179 557T165 488Q165 432 196 401T312 358L340 354Q425 342 459 304T493 204Q493 156 476 117T427 50T347 6T237 -10ZM479 756Q470 756 465 765L409 869H407L313 765Q305 756 296 756H291Q287 756 286 759T289 766L392 886Q400 895 408 895H413Q420 895 425 886L487 766Q489 762 488 759T483 756H479Z"  />
<glyph unicode="&#x15D;" horiz-adv-x="455" d="M192 -10Q134 -10 93 11T30 53Q24 59 31 66L37 71Q40 74 44 74T50 71Q75 50 108 33T194 15Q268 15 311 52T355 150Q355 185 334 203T258 228L214 233Q99 247 99 336Q99 367 111 394T146 441T201 472T275 484Q313 484 350 472T411 444Q417 440 412 432L409 427Q404 419 393 424Q372 436 341 447T272 459Q207 459 167 425T126 337Q126 302 149 283T229 257L273 252Q382 240 382 153Q382 116 369 86T330 35T270 2T192 -10ZM377 561Q368 561 363 570L307 674H305L211 570Q203 561 194 561H189Q185 561 184 564T187 571L290 691Q298 700 306 700H311Q318 700 323 691L385 571Q387 567 386 564T381 561H377Z"  />
<glyph unicode="&#x15E;" horiz-adv-x="575" d="M241 -10Q210 -10 181 -4T126 13T79 37T45 64Q40 71 46 77L51 82Q58 89 65 83Q98 54 143 35T248 16Q297 16 337 29T405 66T450 125T466 203Q466 231 459 252T436 288T391 314T322 330L294 334Q212 346 175 383T137 484Q137 529 152 566T196 631T266 674T359 690Q410 690 455 675T529 636Q536 631 530 622L526 617Q520 610 511 616Q440 664 353 664Q311 664 276 651T217 613T179 557T165 488Q165 432 196 401T312 358L340 354Q425 342 459 304T493 204Q493 114 435 57T267 -9L204 -134Q199 -144 187 -144H179Q168 -144 173 -134L241 -10Z"  />
<glyph unicode="&#x15F;" horiz-adv-x="455" d="M125 -144Q114 -144 119 -134L187 -10Q131 -8 91 12T30 53Q24 59 31 66L37 71Q40 74 44 74T50 71Q75 50 108 33T194 15Q231 15 261 25T312 54T344 96T355 150Q355 185 334 203T258 228L214 233Q99 247 99 336Q99 367 111 394T146 441T201 472T275 484Q313 484 350 472T411 444Q417 440 412 432L409 427Q404 419 393 424Q372 436 341 447T272 459Q207 459 167 425T126 337Q126 302 149 283T229 257L273 252Q382 240 382 153Q382 83 337 40T213 -9L150 -134Q145 -144 133 -144H125Z"  />
<glyph unicode="&#x160;" horiz-adv-x="575" d="M237 -10Q208 -10 179 -4T125 13T79 37T45 64Q40 71 46 77L51 82Q58 89 65 83Q98 54 143 35T248 16Q297 16 337 29T405 66T450 125T466 203Q466 231 459 252T436 288T391 314T322 330L294 334Q212 346 175 383T137 484Q137 529 152 566T196 631T266 674T359 690Q410 690 455 675T529 636Q536 631 530 622L526 617Q520 610 511 616Q440 664 353 664Q311 664 276 651T217 613T179 557T165 488Q165 432 196 401T312 358L340 354Q425 342 459 304T493 204Q493 156 476 117T427 50T347 6T237 -10ZM374 756Q366 756 362 765L300 885Q298 889 299 892T304 895H308Q317 895 322 886L378 782H380L474 886Q482 895 491 895H496Q500 895 501 892T498 885L395 765Q387 756 379 756H374Z"  />
<glyph unicode="&#x161;" horiz-adv-x="455" d="M192 -10Q134 -10 93 11T30 53Q24 59 31 66L37 71Q40 74 44 74T50 71Q75 50 108 33T194 15Q268 15 311 52T355 150Q355 185 334 203T258 228L214 233Q99 247 99 336Q99 367 111 394T146 441T201 472T275 484Q313 484 350 472T411 444Q417 440 412 432L409 427Q404 419 393 424Q372 436 341 447T272 459Q207 459 167 425T126 337Q126 302 149 283T229 257L273 252Q382 240 382 153Q382 116 369 86T330 35T270 2T192 -10ZM292 561Q284 561 280 570L218 690Q216 694 217 697T222 700H226Q235 700 240 691L296 587H298L392 691Q400 700 409 700H414Q418 700 419 697T416 690L313 570Q305 561 297 561H292Z"  />
<glyph unicode="&#x162;" horiz-adv-x="491" d="M202 0Q192 0 194 10L306 648Q307 654 302 654H106Q97 654 99 664L100 670Q102 680 111 680H542Q551 680 549 670L548 664Q546 654 537 654H341Q335 654 334 648L222 10Q220 0 211 0H202ZM170 -182Q161 -182 163 -173L182 -66Q184 -56 193 -56H203Q213 -56 211 -66L199 -130Q197 -138 196 -141T192 -152L181 -173Q176 -182 170 -182Z"  />
<glyph unicode="&#x163;" horiz-adv-x="289" d="M182 -2Q122 -2 100 24T90 120L152 443Q153 449 147 449H91Q81 449 83 459L84 464Q85 474 96 474H152Q157 474 159 480L183 620Q185 630 194 630H202Q212 630 210 620L186 480Q184 474 191 474H286Q296 474 294 464L293 459Q292 449 281 449H186Q180 449 179 443L118 124Q112 93 113 74T122 43T146 27T187 23H203Q213 23 211 13L210 8Q209 -2 198 -2H182ZM95 -182Q86 -182 88 -173L107 -66Q109 -56 118 -56H128Q138 -56 136 -66L124 -130Q122 -138 121 -141T117 -152L106 -173Q101 -182 95 -182Z"  />
<glyph unicode="&#x164;" horiz-adv-x="491" d="M202 0Q192 0 194 10L306 648Q307 654 302 654H106Q97 654 99 664L100 670Q102 680 111 680H542Q551 680 549 670L548 664Q546 654 537 654H341Q335 654 334 648L222 10Q220 0 211 0H202ZM335 756Q327 756 323 765L261 885Q259 889 260 892T265 895H269Q278 895 283 886L339 782H341L435 886Q443 895 452 895H457Q461 895 462 892T459 885L356 765Q348 756 340 756H335Z"  />
<glyph unicode="&#x165;" horiz-adv-x="289" d="M182 -2Q122 -2 100 24T90 120L152 443Q153 449 147 449H91Q81 449 83 459L84 464Q85 474 96 474H152Q157 474 159 480L183 620Q185 630 194 630H202Q212 630 210 620L186 480Q184 474 191 474H286Q296 474 294 464L293 459Q292 449 281 449H186Q180 449 179 443L118 124Q112 93 113 74T122 43T146 27T187 23H203Q213 23 211 13L210 8Q209 -2 198 -2H182ZM314 554Q305 554 307 563L326 670Q328 680 337 680H347Q357 680 355 670L343 606Q341 598 340 595T336 584L325 563Q320 554 314 554Z"  />
<glyph unicode="&#x166;" horiz-adv-x="491" d="M202 0Q192 0 194 10L267 429Q268 435 262 435H160Q150 435 152 445L153 450Q154 460 165 460H267Q272 460 274 466L306 648Q307 654 302 654H106Q97 654 99 664L100 670Q102 680 111 680H542Q551 680 549 670L548 664Q546 654 537 654H341Q335 654 334 648L302 466Q300 460 306 460H410Q420 460 418 450L417 445Q416 435 405 435H302Q296 435 295 429L222 10Q220 0 211 0H202Z"  />
<glyph unicode="&#x167;" horiz-adv-x="289" d="M182 -2Q122 -2 99 24T90 120L130 327Q131 333 125 333H80Q70 333 72 343L73 348Q74 357 85 357H130Q135 357 137 363L152 443Q153 449 147 449H91Q81 449 83 459L84 464Q85 474 96 474H152Q157 474 159 480L183 620Q185 630 194 630H202Q212 630 210 620L186 480Q184 474 191 474H286Q296 474 294 464L293 459Q292 449 281 449H186Q180 449 179 443L164 363Q162 357 169 357H253Q263 357 261 347L260 342Q258 333 248 333H164Q158 333 157 327L118 124Q112 93 113 74T122 43T146 27T187 23H203Q213 23 211 13L210 8Q209 -2 198 -2H182Z"  />
<glyph unicode="&#x168;" horiz-adv-x="607" d="M273 -10Q169 -10 120 49T93 232L170 670Q172 680 181 680H190Q200 680 198 670L121 231Q84 16 275 16Q320 16 355 27T417 64T461 131T490 231L567 670Q569 680 578 680H587Q597 680 595 670L518 232Q507 167 487 122T437 47T366 4T273 -10ZM460 796Q444 796 432 802T409 817Q399 825 390 830T368 835Q354 835 340 826T310 801Q307 798 304 799T302 804L304 818Q305 822 306 824T313 832Q326 844 341 851T373 858Q389 858 401 852T424 837Q434 829 443 824T465 819Q479 819 493 828T523 853Q526 856 529 855T531 850L529 836Q528 832 527 830T520 822Q507 810 492 803T460 796Z"  />
<glyph unicode="&#x169;" horiz-adv-x="510" d="M152 474Q161 474 159 464L107 180Q92 92 117 54T210 15Q236 15 262 25T312 55T352 101T375 163L428 464Q430 474 439 474H448Q457 474 455 464L375 10Q373 0 364 0H356Q346 0 348 10L359 74H358Q332 34 292 12T205 -10Q129 -10 96 35T79 173L132 464Q134 474 143 474H152ZM364 615Q348 615 336 621T313 636Q303 644 294 649T272 654Q258 654 244 645T214 620Q211 617 208 618T206 623L208 637Q209 641 210 643T217 651Q230 663 245 670T277 677Q293 677 305 671T328 656Q338 648 347 643T369 638Q383 638 397 647T427 672Q430 675 433 674T435 669L433 655Q432 651 431 649T424 641Q411 629 396 622T364 615Z"  />
<glyph unicode="&#x16A;" horiz-adv-x="607" d="M273 -10Q169 -10 120 49T93 232L170 670Q172 680 181 680H190Q200 680 198 670L121 231Q84 16 275 16Q320 16 355 27T417 64T461 131T490 231L567 670Q569 680 578 680H587Q597 680 595 670L518 232Q507 167 487 122T437 47T366 4T273 -10ZM301 812Q291 812 293 822L294 827Q295 837 305 837H530Q540 837 538 827L537 822Q536 812 526 812H301Z"  />
<glyph unicode="&#x16B;" horiz-adv-x="510" d="M152 474Q161 474 159 464L107 180Q92 92 117 54T210 15Q236 15 262 25T312 55T352 101T375 163L428 464Q430 474 439 474H448Q457 474 455 464L375 10Q373 0 364 0H356Q346 0 348 10L359 74H358Q332 34 292 12T205 -10Q129 -10 96 35T79 173L132 464Q134 474 143 474H152ZM207 637Q197 637 199 647L200 652Q201 662 211 662H436Q446 662 444 652L443 647Q442 637 432 637H207Z"  />
<glyph unicode="&#x16C;" horiz-adv-x="607" d="M273 -10Q169 -10 120 49T93 232L170 670Q172 680 181 680H190Q200 680 198 670L121 231Q84 16 275 16Q320 16 355 27T417 64T461 131T490 231L567 670Q569 680 578 680H587Q597 680 595 670L518 232Q507 167 487 122T437 47T366 4T273 -10ZM409 776Q365 776 341 801T314 869Q314 879 324 879H328Q338 879 338 869Q340 836 359 818T412 800Q445 800 470 819T509 869Q514 879 522 879H527Q537 879 534 869Q519 827 486 802T409 776Z"  />
<glyph unicode="&#x16D;" horiz-adv-x="510" d="M152 474Q161 474 159 464L107 180Q92 92 117 54T210 15Q236 15 262 25T312 55T352 101T375 163L428 464Q430 474 439 474H448Q457 474 455 464L375 10Q373 0 364 0H356Q346 0 348 10L359 74H358Q332 34 292 12T205 -10Q129 -10 96 35T79 173L132 464Q134 474 143 474H152ZM311 580Q267 580 243 605T216 673Q216 683 226 683H230Q240 683 240 673Q242 640 261 622T314 604Q347 604 372 623T411 673Q416 683 424 683H429Q439 683 436 673Q421 631 388 606T311 580Z"  />
<glyph unicode="&#x16E;" horiz-adv-x="607" d="M273 -10Q169 -10 120 49T93 232L170 670Q172 680 181 680H190Q200 680 198 670L121 231Q84 16 275 16Q320 16 355 27T417 64T461 131T490 231L567 670Q569 680 578 680H587Q597 680 595 670L518 232Q507 167 487 122T437 47T366 4T273 -10ZM402 748Q373 748 355 767T336 815Q336 855 362 882T431 910Q460 910 478 891T497 843Q497 803 471 776T402 748ZM407 770Q434 770 453 790T473 840Q473 861 461 874T426 888Q399 888 380 868T360 818Q360 797 372 784T407 770Z"  />
<glyph unicode="&#x16F;" horiz-adv-x="510" d="M152 474Q161 474 159 464L107 180Q92 92 117 54T210 15Q236 15 262 25T312 55T352 101T375 163L428 464Q430 474 439 474H448Q457 474 455 464L375 10Q373 0 364 0H356Q346 0 348 10L359 74H358Q332 34 292 12T205 -10Q129 -10 96 35T79 173L132 464Q134 474 143 474H152ZM309 548Q280 548 262 567T243 615Q243 655 269 682T338 710Q367 710 385 691T404 643Q404 603 378 576T309 548ZM314 570Q341 570 360 590T380 640Q380 661 368 674T333 688Q306 688 287 668T267 618Q267 597 279 584T314 570Z"  />
<glyph unicode="&#x170;" horiz-adv-x="607" d="M273 -10Q169 -10 120 49T93 232L170 670Q172 680 181 680H190Q200 680 198 670L121 231Q84 16 275 16Q320 16 355 27T417 64T461 131T490 231L567 670Q569 680 578 680H587Q597 680 595 670L518 232Q507 167 487 122T437 47T366 4T273 -10ZM443 766Q439 766 437 768T439 776L522 878Q527 883 530 885T540 888H549Q554 888 555 885T553 878L463 774Q456 766 449 766H443ZM339 766Q335 766 333 768T335 776L418 878Q423 883 426 885T436 888H445Q450 888 451 885T449 878L359 774Q352 766 345 766H339Z"  />
<glyph unicode="&#x171;" horiz-adv-x="510" d="M152 474Q161 474 159 464L107 180Q92 92 117 54T210 15Q236 15 262 25T312 55T352 101T375 163L428 464Q430 474 439 474H448Q457 474 455 464L375 10Q373 0 364 0H356Q346 0 348 10L359 74H358Q332 34 292 12T205 -10Q129 -10 96 35T79 173L132 464Q134 474 143 474H152ZM355 561Q351 561 350 563T351 571L437 690Q444 700 454 700H463Q468 700 469 697T467 690L374 569Q367 561 360 561H355ZM251 561Q247 561 246 563T247 571L333 690Q340 700 350 700H359Q364 700 365 697T363 690L270 569Q263 561 256 561H251Z"  />
<glyph unicode="&#x172;" horiz-adv-x="607" d="M239 -161Q218 -161 205 -149T192 -115Q192 -90 207 -67T257 -9Q161 -4 117 54T93 232L170 670Q172 680 181 680H190Q200 680 198 670L121 231Q84 16 275 16Q320 16 355 27T417 64T461 131T490 231L567 670Q569 680 578 680H587Q597 680 595 670L518 232Q507 170 488 125T441 51T376 8T289 -9Q247 -50 233 -72T219 -111Q219 -136 245 -136Q254 -136 261 -133T276 -125Q283 -120 287 -127L290 -133Q292 -139 284 -146Q277 -151 266 -156T239 -161Z"  />
<glyph unicode="&#x173;" horiz-adv-x="510" d="M291 -161Q270 -161 257 -149T244 -115Q244 -100 249 -87T267 -60T299 -29T348 9L359 74H358Q332 34 292 12T205 -10Q129 -10 96 35T79 173L132 464Q134 474 143 474H152Q161 474 159 464L107 180Q92 92 117 54T210 15Q236 15 262 25T312 55T352 101T375 163L428 464Q430 474 439 474H448Q457 474 455 464L375 10Q374 3 368 -1Q337 -24 318 -40T289 -69T275 -92T271 -111Q271 -136 297 -136Q306 -136 313 -133T328 -125Q335 -120 339 -127L342 -133Q344 -139 336 -146Q329 -151 318 -156T291 -161Z"  />
<glyph unicode="&#x174;" horiz-adv-x="783" d="M531 0Q522 0 521 10L463 620H461L187 10Q183 0 173 0H165Q156 0 155 10L119 669Q119 680 129 680H136Q147 680 147 669L180 60H182L453 670Q457 680 467 680H475Q485 680 486 670L543 60H545L792 670Q796 680 807 680H815Q827 680 822 669L553 10Q549 0 539 0H531ZM587 756Q578 756 573 765L517 869H515L421 765Q413 756 404 756H399Q395 756 394 759T397 766L500 886Q508 895 516 895H521Q528 895 533 886L595 766Q597 762 596 759T591 756H587Z"  />
<glyph unicode="&#x175;" horiz-adv-x="699" d="M454 0Q445 0 444 10L385 431H384L176 10Q170 0 162 0H156Q147 0 146 10L85 464Q83 474 93 474H100Q110 474 111 464L167 48H168L373 464Q377 474 386 474H393Q403 474 404 464L465 48H466L667 464Q672 474 681 474H689Q700 474 695 464L473 10Q468 0 460 0H454ZM508 561Q499 561 494 570L438 674H436L342 570Q334 561 325 561H320Q316 561 315 564T318 571L421 691Q429 700 437 700H442Q449 700 454 691L516 571Q518 567 517 564T512 561H508Z"  />
<glyph unicode="&#x176;" horiz-adv-x="486" d="M199 0Q189 0 191 10L238 280L110 668Q107 680 118 680H124Q134 680 138 670L256 314H258L502 670Q508 680 519 680H527Q532 680 533 677T532 668L266 279L219 10Q217 0 208 0H199ZM432 756Q423 756 418 765L362 869H360L266 765Q258 756 249 756H244Q240 756 239 759T242 766L345 886Q353 895 361 895H366Q373 895 378 886L440 766Q442 762 441 759T436 756H432Z"  />
<glyph unicode="&#x177;" horiz-adv-x="441" d="M4 -180Q-6 -180 -4 -170L-3 -165Q-2 -155 9 -155H25Q40 -155 53 -151T79 -134T106 -101T139 -46L168 7L80 464Q78 474 88 474H96Q106 474 107 464L187 44H188L415 464Q420 474 429 474H439Q449 474 444 464L162 -55Q140 -95 122 -119T88 -157T55 -175T19 -180H4ZM374 561Q365 561 360 570L304 674H302L208 570Q200 561 191 561H186Q182 561 181 564T184 571L287 691Q295 700 303 700H308Q315 700 320 691L382 571Q384 567 383 564T378 561H374Z"  />
<glyph unicode="&#x178;" horiz-adv-x="486" d="M199 0Q189 0 191 10L238 280L110 668Q107 680 118 680H124Q134 680 138 670L256 314H258L502 670Q508 680 519 680H527Q532 680 533 677T532 668L266 279L219 10Q217 0 208 0H199ZM432 796Q422 796 424 806L431 844Q433 854 442 854H464Q474 854 472 844L465 806Q463 796 454 796H432ZM239 796Q229 796 231 806L238 844Q240 854 249 854H271Q281 854 279 844L272 806Q270 796 261 796H239Z"  />
<glyph unicode="&#x179;" horiz-adv-x="520" d="M26 0Q16 0 18 10L19 17Q20 24 27 32L507 653V654H155Q145 654 147 664L148 670Q150 680 159 680H536Q546 680 544 670L543 663Q542 656 536 649L56 27V26H421Q431 26 429 16L428 10Q427 0 416 0H26ZM335 766Q330 766 330 769T334 777L425 878Q434 888 444 888H455Q460 888 461 885T458 878L359 776Q353 770 350 768T340 766H335Z"  />
<glyph unicode="&#x17A;" horiz-adv-x="440" d="M28 0Q18 0 20 10L21 16Q22 23 29 31L389 448V449H119Q109 449 111 459L112 464Q114 474 123 474H419Q429 474 427 464L426 458Q425 452 417 443L57 26V25H340Q350 25 348 15L347 10Q345 0 336 0H28ZM262 560Q251 560 259 570L353 690Q361 700 371 700H382Q387 700 388 697T386 690L284 570Q279 564 276 562T266 560H262Z"  />
<glyph unicode="&#x17B;" horiz-adv-x="520" d="M26 0Q16 0 18 10L19 17Q20 24 27 32L507 653V654H155Q145 654 147 664L148 670Q150 680 159 680H536Q546 680 544 670L543 663Q542 656 536 649L56 27V26H421Q431 26 429 16L428 10Q427 0 416 0H26ZM354 796Q344 796 346 806L353 844Q355 854 364 854H386Q396 854 394 844L387 806Q385 796 376 796H354Z"  />
<glyph unicode="&#x17C;" horiz-adv-x="440" d="M28 0Q18 0 20 10L21 16Q22 23 29 31L389 448V449H119Q109 449 111 459L112 464Q114 474 123 474H419Q429 474 427 464L426 458Q425 452 417 443L57 26V25H340Q350 25 348 15L347 10Q345 0 336 0H28ZM282 622Q272 622 274 632L281 670Q283 680 292 680H314Q324 680 322 670L315 632Q313 622 304 622H282Z"  />
<glyph unicode="&#x17D;" horiz-adv-x="520" d="M26 0Q16 0 18 10L19 17Q20 24 27 32L507 653V654H155Q145 654 147 664L148 670Q150 680 159 680H536Q546 680 544 670L543 663Q542 656 536 649L56 27V26H421Q431 26 429 16L428 10Q427 0 416 0H26ZM354 756Q346 756 342 765L280 885Q278 889 279 892T284 895H288Q297 895 302 886L358 782H360L454 886Q462 895 471 895H476Q480 895 481 892T478 885L375 765Q367 756 359 756H354Z"  />
<glyph unicode="&#x17E;" horiz-adv-x="440" d="M28 0Q18 0 20 10L21 16Q22 23 29 31L389 448V449H119Q109 449 111 459L112 464Q114 474 123 474H419Q429 474 427 464L426 458Q425 452 417 443L57 26V25H340Q350 25 348 15L347 10Q345 0 336 0H28ZM280 561Q272 561 268 570L206 690Q204 694 205 697T210 700H214Q223 700 228 691L284 587H286L380 691Q388 700 397 700H402Q406 700 407 697T404 690L301 570Q293 561 285 561H280Z"  />
<glyph unicode="&#x192;" horiz-adv-x="503" d="M300 362L167 -48Q155 -86 141 -111T109 -152T69 -173T17 -180H-1Q-11 -180 -9 -170L-8 -165Q-7 -155 4 -155H23Q44 -155 61 -150T92 -133T117 -101T138 -52L272 362H182Q172 362 174 372L175 377Q177 387 187 387H280L333 548Q345 586 359 611T391 652T431 673T483 680H501Q511 680 509 670L508 665Q507 655 496 655H477Q435 655 408 633T362 552L308 387H410Q420 387 418 377L417 372Q415 362 405 362H300Z"  />
<glyph unicode="&#x218;" horiz-adv-x="575" d="M237 -10Q208 -10 179 -4T125 13T79 37T45 64Q40 71 46 77L51 82Q58 89 65 83Q98 54 143 35T248 16Q297 16 337 29T405 66T450 125T466 203Q466 231 459 252T436 288T391 314T322 330L294 334Q212 346 175 383T137 484Q137 529 152 566T196 631T266 674T359 690Q410 690 455 675T529 636Q536 631 530 622L526 617Q520 610 511 616Q440 664 353 664Q311 664 276 651T217 613T179 557T165 488Q165 432 196 401T312 358L340 354Q425 342 459 304T493 204Q493 156 476 117T427 50T347 6T237 -10ZM216 -182Q207 -182 209 -173L228 -66Q230 -56 239 -56H249Q259 -56 257 -66L245 -130Q243 -138 242 -141T238 -152L227 -173Q222 -182 216 -182Z"  />
<glyph unicode="&#x219;" horiz-adv-x="455" d="M192 -10Q134 -10 93 11T30 53Q24 59 31 66L37 71Q40 74 44 74T50 71Q75 50 108 33T194 15Q268 15 311 52T355 150Q355 185 334 203T258 228L214 233Q99 247 99 336Q99 367 111 394T146 441T201 472T275 484Q313 484 350 472T411 444Q417 440 412 432L409 427Q404 419 393 424Q372 436 341 447T272 459Q207 459 167 425T126 337Q126 302 149 283T229 257L273 252Q382 240 382 153Q382 116 369 86T330 35T270 2T192 -10ZM157 -182Q148 -182 150 -173L169 -66Q171 -56 180 -56H190Q200 -56 198 -66L186 -130Q184 -138 183 -141T179 -152L168 -173Q163 -182 157 -182Z"  />
<glyph unicode="&#x21A;" horiz-adv-x="491" d="M202 0Q192 0 194 10L306 648Q307 654 302 654H106Q97 654 99 664L100 670Q102 680 111 680H542Q551 680 549 670L548 664Q546 654 537 654H341Q335 654 334 648L222 10Q220 0 211 0H202ZM170 -182Q161 -182 163 -173L182 -66Q184 -56 193 -56H203Q213 -56 211 -66L199 -130Q197 -138 196 -141T192 -152L181 -173Q176 -182 170 -182Z"  />
<glyph unicode="&#x21B;" horiz-adv-x="289" d="M182 -2Q122 -2 100 24T90 120L152 443Q153 449 147 449H91Q81 449 83 459L84 464Q85 474 96 474H152Q157 474 159 480L183 620Q185 630 194 630H202Q212 630 210 620L186 480Q184 474 191 474H286Q296 474 294 464L293 459Q292 449 281 449H186Q180 449 179 443L118 124Q112 93 113 74T122 43T146 27T187 23H203Q213 23 211 13L210 8Q209 -2 198 -2H182ZM95 -182Q86 -182 88 -173L107 -66Q109 -56 118 -56H128Q138 -56 136 -66L124 -130Q122 -138 121 -141T117 -152L106 -173Q101 -182 95 -182Z"  />
<glyph unicode="&#x237;" horiz-adv-x="221" d="M-53 -180Q-63 -180 -61 -170L-60 -165Q-59 -155 -48 -155H-45Q-23 -155 -8 -152T17 -139T34 -114T45 -71L139 464Q141 474 150 474H158Q168 474 166 464L72 -71Q66 -103 58 -124T35 -157T0 -175T-49 -180H-53Z"  />
<glyph unicode="&#x2C6;" horiz-adv-x="401" d="M350 561Q341 561 336 570L280 674H278L184 570Q176 561 167 561H162Q158 561 157 564T160 571L263 691Q271 700 279 700H284Q291 700 296 691L358 571Q360 567 359 564T354 561H350Z"  />
<glyph unicode="&#x2C7;" horiz-adv-x="401" d="M255 561Q247 561 243 570L181 690Q179 694 180 697T185 700H189Q198 700 203 691L259 587H261L355 691Q363 700 372 700H377Q381 700 382 697T379 690L276 570Q268 561 260 561H255Z"  />
<glyph unicode="&#x2C9;" horiz-adv-x="401" d="M192 812Q182 812 184 822L185 827Q186 837 196 837H421Q431 837 429 827L428 822Q427 812 417 812H192Z"  />
<glyph unicode="&#x2D8;" horiz-adv-x="401" d="M264 580Q220 580 196 605T169 673Q169 683 179 683H183Q193 683 193 673Q195 640 214 622T267 604Q300 604 325 623T364 673Q369 683 377 683H382Q392 683 389 673Q374 631 341 606T264 580Z"  />
<glyph unicode="&#x2D9;" horiz-adv-x="401" d="M260 622Q250 622 252 632L259 670Q261 680 270 680H292Q302 680 300 670L293 632Q291 622 282 622H260Z"  />
<glyph unicode="&#x2DA;" horiz-adv-x="401" d="M257 548Q228 548 210 567T191 615Q191 655 217 682T286 710Q315 710 333 691T352 643Q352 603 326 576T257 548ZM262 570Q289 570 308 590T328 640Q328 661 316 674T281 688Q254 688 235 668T215 618Q215 597 227 584T262 570Z"  />
<glyph unicode="&#x2DB;" horiz-adv-x="401" d="M134 -161Q113 -161 100 -149T87 -115Q87 -102 91 -90T106 -64T135 -35T179 0Q193 10 202 10H212Q217 10 217 7T214 0Q183 -23 164 -39T133 -68T118 -91T114 -111Q114 -136 140 -136Q149 -136 156 -133T171 -125Q178 -120 182 -127L185 -133Q187 -139 179 -146Q172 -151 161 -156T134 -161Z"  />
<glyph unicode="&#x2DC;" horiz-adv-x="401" d="M318 615Q302 615 290 621T267 636Q257 644 248 649T226 654Q212 654 198 645T168 620Q165 617 162 618T160 623L162 637Q163 641 164 643T171 651Q184 663 199 670T231 677Q247 677 259 671T282 656Q292 648 301 643T323 638Q337 638 351 647T381 672Q384 675 387 674T389 669L387 655Q386 651 385 649T378 641Q365 629 350 622T318 615Z"  />
<glyph unicode="&#x2DD;" horiz-adv-x="401" d="M269 561Q265 561 264 563T265 571L351 690Q358 700 368 700H377Q382 700 383 697T381 690L288 569Q281 561 274 561H269ZM165 561Q161 561 160 563T161 571L247 690Q254 700 264 700H273Q278 700 279 697T277 690L184 569Q177 561 170 561H165Z"  />
<glyph unicode="&#x394;" horiz-adv-x="567" d="M8 0Q-3 0 2 10L349 670Q354 680 361 680H371Q378 680 380 670L492 10Q494 0 484 0H8ZM454 26Q461 26 460 32L360 631H358L45 32Q42 26 49 26H454Z"  />
<glyph unicode="&#x3A9;" horiz-adv-x="580" d="M295 0Q285 0 287 10L288 19Q289 26 299 29Q347 47 379 69T434 127T472 213T502 340Q513 402 516 438T520 497Q520 578 481 621T365 664Q230 664 168 536Q163 525 157 511T144 474T129 419T113 340Q105 294 101 258T96 193Q96 158 102 133T121 88T156 55T207 29Q216 26 215 19L213 10Q211 0 202 0H49Q39 0 41 10L42 15Q44 25 52 25H153L154 27Q112 50 90 86T68 187Q68 217 73 255T86 340Q94 387 102 420T116 477T129 515T141 542Q178 618 233 654T369 690Q455 690 501 641T548 502Q548 478 545 442T530 340Q517 265 502 213T465 125T418 66T355 27V25H452Q462 25 460 15L459 10Q457 0 449 0H295Z"  />
<glyph unicode="&#x3BC;" horiz-adv-x="519" d="M365 0Q355 0 357 10L368 74H367Q341 34 302 12T212 -10Q122 -10 95 56H94L54 -170Q52 -180 43 -180H35Q25 -180 27 -170L139 464Q141 474 150 474H158Q167 474 165 464L113 164Q100 91 125 53T218 15Q247 15 274 26T324 57T362 104T384 163L437 464Q439 474 448 474H457Q466 474 464 464L384 10Q382 0 373 0H365Z"  />
<glyph unicode="&#x3C0;" horiz-adv-x="524" d="M399 -6Q351 -6 358 48L428 443Q429 449 423 449H179Q173 449 172 443L96 10Q94 0 86 0H78Q67 0 69 10L145 443Q146 449 141 449H108Q98 449 100 459L101 464Q102 474 113 474H500Q510 474 508 464L507 459Q506 449 495 449H462Q456 449 455 443L385 48Q381 19 402 19H410Q420 19 418 9L417 4Q416 -6 405 -6H399Z"  />
<glyph unicode="&#x2013;" horiz-adv-x="477" d="M45 255Q35 255 37 265L38 271Q39 279 49 279H447Q457 279 455 269L454 263Q453 255 443 255H45Z"  />
<glyph unicode="&#x2014;" horiz-adv-x="780" d="M45 255Q35 255 37 265L38 271Q39 279 49 279H750Q760 279 758 269L757 263Q756 255 746 255H45Z"  />
<glyph unicode="&#x2018;" horiz-adv-x="192" d="M142 539Q133 539 135 549L145 604Q148 619 152 627L175 672Q179 681 186 681Q194 681 193 672L172 549Q170 539 161 539H142Z"  />
<glyph unicode="&#x2019;" horiz-adv-x="192" d="M142 538Q133 538 135 547L156 670Q158 680 167 680H186Q195 680 193 670L183 615Q180 600 176 592L153 547Q148 538 142 538Z"  />
<glyph unicode="&#x201A;" horiz-adv-x="192" d="M33 -80Q24 -80 26 -71L47 52Q49 62 58 62H77Q86 62 84 52L74 -3Q71 -18 67 -26L44 -71Q39 -80 33 -80Z"  />
<glyph unicode="&#x201C;" horiz-adv-x="309" d="M259 539Q250 539 252 549L262 604Q265 619 269 627L292 672Q296 681 303 681Q311 681 310 672L289 549Q287 539 278 539H259ZM142 539Q133 539 135 549L145 604Q148 619 152 627L175 672Q179 681 186 681Q194 681 193 672L172 549Q170 539 161 539H142Z"  />
<glyph unicode="&#x201D;" horiz-adv-x="309" d="M259 538Q250 538 252 547L273 670Q275 680 284 680H303Q312 680 310 670L300 615Q297 600 293 592L270 547Q265 538 259 538ZM142 538Q133 538 135 547L156 670Q158 680 167 680H186Q195 680 193 670L183 615Q180 600 176 592L153 547Q148 538 142 538Z"  />
<glyph unicode="&#x201E;" horiz-adv-x="309" d="M150 -80Q141 -80 143 -71L164 52Q166 62 175 62H194Q203 62 201 52L191 -3Q188 -18 184 -26L161 -71Q156 -80 150 -80ZM33 -80Q24 -80 26 -71L47 52Q49 62 58 62H77Q86 62 84 52L74 -3Q71 -18 67 -26L44 -71Q39 -80 33 -80Z"  />
<glyph unicode="&#x2020;" horiz-adv-x="390" d="M126 -180Q116 -180 118 -170L216 386Q217 392 212 392H84Q74 392 76 402L77 408Q78 416 88 416H215Q220 416 222 422L266 670Q267 680 277 680H284Q294 680 292 670L248 422Q246 416 253 416H380Q390 416 388 406L387 400Q386 392 376 392H249Q243 392 242 386L144 -170Q143 -180 133 -180H126Z"  />
<glyph unicode="&#x2021;" horiz-adv-x="390" d="M121 -180Q110 -180 113 -170L152 52Q153 58 148 58H20Q10 58 12 68L13 74Q14 82 24 82H151Q156 82 158 88L216 415Q217 421 212 421H84Q74 421 76 431L77 437Q78 445 88 445H215Q220 445 222 451L261 670Q262 680 272 680H279Q289 680 287 670L248 451Q246 445 253 445H380Q390 445 388 435L387 429Q386 421 376 421H249Q243 421 242 415L184 88Q182 82 189 82H316Q326 82 324 72L323 66Q322 58 312 58H185Q179 58 178 52L139 -170Q136 -180 128 -180H121Z"  />
<glyph unicode="&#x2022;" horiz-adv-x="342" d="M188 204Q143 204 114 233T84 308Q84 353 113 382T188 412Q233 412 262 383T292 308Q292 263 263 234T188 204Z"  />
<glyph unicode="&#x2026;" horiz-adv-x="585" d="M437 0Q427 0 429 10L437 58Q439 68 448 68H473Q483 68 481 58L473 10Q471 0 462 0H437ZM242 0Q232 0 234 10L242 58Q244 68 253 68H278Q288 68 286 58L278 10Q276 0 267 0H242ZM47 0Q37 0 39 10L47 58Q49 68 58 68H83Q93 68 91 58L83 10Q81 0 72 0H47Z"  />
<glyph unicode="&#x2030;" horiz-adv-x="1008" d="M127 -10Q122 -10 121 -8T123 0L620 680Q627 690 635 690H644Q655 690 648 680L152 0Q147 -5 144 -7T136 -10H127ZM220 330Q179 330 156 353T132 420Q132 436 135 463T145 520T158 576T172 617Q190 655 216 671T278 688Q319 688 342 665T366 598Q366 582 363 555T353 498T340 442T326 401Q308 363 282 347T220 330ZM222 353Q274 353 302 406Q309 421 316 446T329 499T337 553T341 597Q341 628 325 646T276 665Q224 665 196 612Q188 597 181 572T169 519T161 465T157 421Q157 390 173 372T222 353ZM781 -8Q740 -8 717 15T693 82Q693 98 696 125T706 182T719 238T733 279Q751 317 777 333T839 350Q880 350 903 327T927 260Q927 244 924 217T914 160T901 104T887 63Q869 25 843 9T781 -8ZM494 -8Q453 -8 430 15T406 82Q406 98 409 125T419 182T432 238T446 279Q464 317 490 333T552 350Q593 350 616 327T640 260Q640 244 637 217T627 160T614 104T600 63Q582 25 556 9T494 -8ZM783 15Q835 15 863 68Q870 83 877 108T890 161T898 215T902 259Q902 290 886 308T837 327Q785 327 757 274Q749 259 742 234T730 181T722 127T718 83Q718 52 734 34T783 15ZM496 15Q548 15 576 68Q583 83 590 108T603 161T611 215T615 259Q615 290 599 308T550 327Q498 327 470 274Q462 259 455 234T443 181T435 127T431 83Q431 52 447 34T496 15Z"  />
<glyph unicode="&#x2039;" horiz-adv-x="295" d="M61 257Q55 265 63 271L241 429Q244 432 247 431T250 425L248 410Q247 401 239 393L97 266Q93 262 95 258L191 131Q196 124 195 114L193 101Q192 96 189 96T183 98L61 257Z"  />
<glyph unicode="&#x203A;" horiz-adv-x="295" d="M66 98Q63 95 60 96T57 102L59 117Q60 126 68 134L210 261Q214 265 212 269L116 396Q111 403 112 413L114 426Q115 431 118 431T124 429L246 270Q252 262 244 256L66 98Z"  />
<glyph unicode="&#x2044;" horiz-adv-x="187" d="M-146 -10Q-151 -10 -152 -8T-150 0L347 680Q354 690 362 690H371Q382 690 375 680L-121 0Q-126 -5 -129 -7T-137 -10H-146Z"  />
<glyph unicode="&#x20AC;" horiz-adv-x="503" d="M246 -10Q180 -10 143 27T105 139Q105 150 105 161T108 187T112 220T120 265Q121 271 115 271H66Q56 271 58 281L59 286Q61 296 71 296H119Q124 296 126 302L141 385Q143 391 137 391H87Q77 391 79 401L80 406Q82 416 92 416H140Q146 416 147 421Q153 452 158 475T168 517T178 549T189 576Q217 633 263 661T369 690Q402 690 426 680T468 654T495 617T510 574Q511 565 504 562L498 560Q490 557 487 566Q474 614 447 639T365 665Q316 665 277 641T214 570Q209 559 204 546T194 516T183 476T173 422Q171 416 178 416H385Q395 416 393 406L392 401Q390 391 380 391H173Q167 391 166 385L152 302Q150 296 157 296H334Q344 296 342 286L341 281Q339 271 329 271H152Q146 271 145 265Q140 234 137 215T133 182T131 161T130 145Q130 76 160 46T250 15Q304 15 342 43T407 114Q412 123 420 120L425 118Q433 115 428 105Q416 83 399 63T359 26T308 0T246 -10Z"  />
<glyph unicode="&#x2113;" horiz-adv-x="324" d="M83 244Q75 237 70 245L66 250Q61 258 69 264L124 311L163 529Q179 619 204 654T268 690Q295 690 312 669T329 607Q329 566 316 527T279 449T222 374T150 301L111 78Q105 46 114 31T146 15Q177 15 212 50Q219 57 225 50L228 47Q235 40 228 33Q208 13 187 2T143 -10Q107 -10 92 13T84 80L118 274L83 244ZM157 341Q186 370 212 400T258 464T289 532T301 609Q301 637 291 651T265 665Q254 665 244 659T224 636T206 593T190 526L157 341Z"  />
<glyph unicode="&#x2122;" horiz-adv-x="837" d="M775 286Q765 286 765 296V623H763L630 349Q626 341 619 341H612Q605 341 601 349L468 623H466V296Q466 286 456 286H451Q441 286 441 296V670Q441 680 451 680H460Q468 680 472 672L616 374H618L759 672Q763 680 771 680H780Q790 680 790 670V296Q790 286 780 286H775ZM219 286Q209 286 209 296V651Q209 657 203 657H87Q77 657 77 667V670Q77 680 87 680H355Q365 680 365 670V667Q365 657 355 657H240Q234 657 234 651V296Q234 286 224 286H219Z"  />
<glyph unicode="&#x2126;" horiz-adv-x="580" d="M295 0Q285 0 287 10L288 19Q289 26 299 29Q347 47 379 69T434 127T472 213T502 340Q513 402 516 438T520 497Q520 578 481 621T365 664Q230 664 168 536Q163 525 157 511T144 474T129 419T113 340Q105 294 101 258T96 193Q96 158 102 133T121 88T156 55T207 29Q216 26 215 19L213 10Q211 0 202 0H49Q39 0 41 10L42 15Q44 25 52 25H153L154 27Q112 50 90 86T68 187Q68 217 73 255T86 340Q94 387 102 420T116 477T129 515T141 542Q178 618 233 654T369 690Q455 690 501 641T548 502Q548 478 545 442T530 340Q517 265 502 213T465 125T418 66T355 27V25H452Q462 25 460 15L459 10Q457 0 449 0H295Z"  />
<glyph unicode="&#x212E;" horiz-adv-x="664" d="M342 -10Q289 -10 247 9T174 62T128 141T112 238Q112 290 128 335T174 413T246 465T342 484Q394 484 436 466T509 416T557 338T574 238H213V75Q266 24 342 24Q398 24 439 49T514 131L546 111Q505 48 459 19T342 -10ZM473 400Q444 426 412 440T342 454Q265 454 213 400V270H473V400Z"  />
<glyph unicode="&#x2202;" horiz-adv-x="515" d="M198 -10Q129 -10 92 35T54 153Q54 202 69 248T114 331T185 389T279 411Q336 411 373 385T435 306H436Q444 348 448 386T453 460Q453 506 445 544T420 609T377 650T313 665Q284 665 254 654T188 617Q181 611 177 620L174 627Q171 635 180 641Q210 663 244 676T317 690Q362 690 393 672T443 623T470 550T479 461Q479 423 475 382T461 299T440 219T411 148Q334 -10 198 -10ZM205 15Q245 15 280 33T342 85T391 165T426 268Q404 327 366 356T280 386Q235 386 199 367T136 315T95 241T81 154Q81 91 113 53T205 15Z"  />
<glyph unicode="&#x2206;" horiz-adv-x="567" d="M8 0Q-3 0 2 10L349 670Q354 680 361 680H371Q378 680 380 670L492 10Q494 0 484 0H8ZM454 26Q461 26 460 32L360 631H358L45 32Q42 26 49 26H454Z"  />
<glyph unicode="&#x220F;" horiz-adv-x="623" d="M510 -180Q500 -180 500 -170V705Q500 711 494 711H129Q123 711 123 705V-170Q123 -180 113 -180H102Q92 -180 92 -170V730Q92 740 102 740H521Q531 740 531 730V-170Q531 -180 521 -180H510Z"  />
<glyph unicode="&#x2211;" horiz-adv-x="528" d="M80 -180Q70 -180 70 -170V-165Q70 -160 72 -156L274 324L77 710Q74 716 74 721V730Q74 740 84 740H458Q468 740 468 730V721Q468 711 458 711H110L306 333Q309 326 306 319L107 -151H468Q478 -151 478 -161V-170Q478 -180 468 -180H80Z"  />
<glyph unicode="&#x2212;" horiz-adv-x="503" d="M76 264Q66 264 66 274V279Q66 289 76 289H437Q447 289 447 279V274Q447 264 437 264H76Z"  />
<glyph unicode="&#x2215;" horiz-adv-x="187" d="M-146 -10Q-151 -10 -152 -8T-150 0L347 680Q354 690 362 690H371Q382 690 375 680L-121 0Q-126 -5 -129 -7T-137 -10H-146Z"  />
<glyph unicode="&#x2219;" horiz-adv-x="195" d="M87 232Q77 232 79 242L87 290Q89 300 98 300H123Q133 300 131 290L123 242Q121 232 112 232H87Z"  />
<glyph unicode="&#x221A;" horiz-adv-x="583" d="M221 -180Q213 -180 210 -170L118 149Q116 155 110 152L27 114Q18 109 16 118L14 125Q11 135 19 138L125 186Q135 191 137 182L227 -134H229L612 730Q616 740 625 740H634Q645 740 640 730L240 -170Q236 -180 227 -180H221Z"  />
<glyph unicode="&#x221E;" horiz-adv-x="770" d="M573 93Q523 93 480 125T385 224Q335 160 293 127T198 93Q166 93 139 104T93 135T62 184T51 248Q51 317 91 359T198 401Q249 401 292 367T385 270Q438 338 482 369T573 401Q639 401 680 360T721 248Q721 214 710 186T680 137T633 105T573 93ZM573 118Q601 118 623 129T661 158T685 199T694 248Q694 302 663 339T573 376Q551 376 532 369T493 346T451 306T403 247Q431 211 452 187T493 147T532 125T573 118ZM198 118Q241 118 279 149T368 247Q342 281 320 305T278 345T239 368T198 376Q141 376 110 340T78 248Q78 220 87 197T113 156T151 128T198 118Z"  />
<glyph unicode="&#x222B;" horiz-adv-x="341" d="M8 -180Q6 -180 -2 -180T-15 -179Q-23 -177 -22 -169L-21 -164Q-19 -152 -10 -154Q-3 -155 2 -155T12 -155Q89 -155 112 -27L219 579Q235 667 266 703T352 741Q354 741 362 741T375 740Q383 738 382 730L381 725Q379 713 370 715Q363 716 358 716T348 716Q271 716 248 588L141 -18Q125 -106 94 -142T8 -180Z"  />
<glyph unicode="&#x2248;" horiz-adv-x="503" d="M341 320Q309 320 288 333T246 361Q229 374 211 384T168 395Q142 395 122 382T82 336Q77 328 69 333L65 335Q57 340 62 349Q80 382 107 400T170 419Q202 419 223 406T265 378Q282 365 300 355T343 344Q369 344 389 357T429 403Q434 411 442 406L446 404Q454 399 449 390Q431 357 404 339T341 320ZM341 133Q309 133 288 146T246 174Q229 187 211 197T168 208Q142 208 122 195T82 149Q77 141 69 146L65 148Q57 153 62 162Q80 195 107 213T170 232Q202 232 223 219T265 191Q282 178 300 168T343 157Q369 157 389 170T429 216Q434 224 442 219L446 217Q454 212 449 203Q431 170 404 152T341 133Z"  />
<glyph unicode="&#x2260;" horiz-adv-x="503" d="M125 57Q120 57 119 60T120 68L181 168H81Q71 168 71 178V183Q71 193 81 193H197L299 359H81Q71 359 71 369V374Q71 384 81 384H314L376 485Q382 495 390 495H398Q403 495 404 492T403 484L341 384H442Q452 384 452 374V369Q452 359 442 359H326L224 193H442Q452 193 452 183V178Q452 168 442 168H209L147 67Q141 57 133 57H125Z"  />
<glyph unicode="&#x2264;" horiz-adv-x="503" d="M77 262Q67 266 67 274V278Q67 286 77 290L438 436Q448 439 448 429V422Q448 413 438 409L106 277V275L438 143Q448 139 448 130V123Q448 113 438 116L77 262ZM77 0Q67 0 67 10V15Q67 25 77 25H438Q448 25 448 15V10Q448 0 438 0H77Z"  />
<glyph unicode="&#x2265;" horiz-adv-x="503" d="M77 116Q67 113 67 123V130Q67 139 77 143L409 275V277L77 409Q67 413 67 422V429Q67 439 77 436L438 290Q448 286 448 278V274Q448 266 438 262L77 116ZM77 0Q67 0 67 10V15Q67 25 77 25H438Q448 25 448 15V10Q448 0 438 0H77Z"  />
<glyph unicode="&#x25CA;" horiz-adv-x="493" d="M193 -52Q188 -52 187 -50T184 -42L74 322Q73 329 77 336L315 700Q318 705 320 707T328 710H335Q340 710 341 708T344 700L453 336Q454 329 450 322L213 -42Q210 -47 208 -49T200 -52H193ZM423 332L326 662H324L105 325L203 -6H205L423 332Z"  />
<glyph unicode="&#xFB01;" horiz-adv-x="507" d="M81 0Q72 0 74 10L151 443Q152 449 146 449H90Q80 449 82 459L83 464Q84 474 95 474H151Q156 474 158 480L169 545Q176 587 186 613T213 655T252 675T308 680H328Q338 680 336 670L335 665Q334 655 323 655H306Q278 655 260 652T230 637T211 605T197 552L184 480Q182 474 189 474H292Q302 474 300 464L299 459Q298 449 287 449H184Q179 449 178 443L101 10Q99 0 90 0H81ZM456 622Q446 622 448 632L455 670Q457 680 466 680H488Q497 680 495 670L488 632Q487 622 476 622H456ZM353 0Q343 0 345 10L425 464Q427 474 436 474H444Q454 474 452 464L372 10Q370 0 361 0H353Z"  />
<glyph unicode="&#xFB02;" horiz-adv-x="523" d="M81 0Q72 0 74 10L151 443Q152 449 146 449H90Q80 449 82 459L83 464Q84 474 95 474H151Q156 474 158 480L169 545Q176 587 186 613T213 655T252 675T308 680H328Q338 680 336 670L335 665Q334 655 323 655H306Q278 655 260 652T230 637T211 605T197 552L184 480Q182 474 189 474H292Q302 474 300 464L299 459Q298 449 287 449H184Q179 449 178 443L101 10Q99 0 90 0H81ZM422 -2Q379 -2 365 21T359 95L464 670Q466 680 475 680H483Q493 680 491 670L386 95Q378 53 387 38T426 23H440Q450 23 448 13L447 8Q446 -2 435 -2H422Z"  />

</font>
</defs>
</svg>
